<mxfile host="Electron" agent="Mozilla/5.0 (Windows NT 10.0; Win64; x64) AppleWebKit/537.36 (KHTML, like Gecko) draw.io/26.0.16 Chrome/132.0.6834.196 Electron/34.2.0 Safari/537.36" version="26.0.16">
  <diagram name="第 1 页" id="lnkqzPm8fVKpd5bx4BoV">
    <mxGraphModel dx="4049" dy="1194" grid="1" gridSize="10" guides="1" tooltips="1" connect="1" arrows="1" fold="1" page="0" pageScale="1" pageWidth="827" pageHeight="1169" math="0" shadow="0">
      <root>
        <mxCell id="0" />
        <mxCell id="1" parent="0" />
        <UserObject label="" plantUmlData="{&quot;data&quot;:&quot;@startuml\n\n\nhide time-axis \nscale 100 as 300 pixels\n&lt;style&gt;\ntimingDiagram{\n    .red{\n        Linecolor #ff2244\n        LineThickness 3\n    }\n    .blue{\n        Linecolor blue\n        LineThickness 5    \n    }\n}\n&lt;/style&gt;\nbinary  \&quot;PreTime\&quot;  as PRE\nbinary  \&quot;PostTime\&quot;  as PST\nbinary  \&quot;LED1\&quot;  as L1&lt;&lt;blue&gt;&gt;\nbinary  \&quot;LED2\&quot;  as L2&lt;&lt;blue&gt;&gt;\nbinary  \&quot;LED3\&quot;  as L3&lt;&lt;blue&gt;&gt;\nbinary  \&quot;correct lever window\&quot;  as CLW&lt;&lt;red&gt;&gt;\nconcise \&quot;Status\&quot; as STA \nbinary  \&quot;Press\&quot;  as PS &lt;&lt;red&gt;&gt;\nbinary  \&quot;Reward(pump)\&quot; as RW\n\n\n@-40\nPRE is 0\nPST is 0\nL1  is 0\nL2  is 0\nL3  is 0\nCLW is 0\nSTA  is \&quot;\&quot;\nRW  is 0\nPS  is 0\n@-10\nPRE is 1\nCLW is 1\nSTA is event1 #Gold\n@0\nPRE is 0\nL1  is 1\n@50\nL1  is 0\nPST is 1\n@80\nPST is 0\nCLW is 0\n@35\nRW is 0\nPS is 1:success\\n\n@35.5\nPS is 0\n@45\nRW is 0\n@100\nPRE is 1\nPST is 0\nL1  is 0\nL2  is 0\nL3  is 0\nCLW is 1\nSTA is event2 #ddaaff\n@110\nPRE is 0\nL2  is 1\n@160\nL2  is 0\nPST is 1\n@175\nRW is 0\nPS is 1:success\\n\n@175.5\nPS is 0\n@185\nRW is 0\n@190\nPST is 0\nCLW is 0\n\n@210\nPRE is 1\nPST is 0\nL1  is 0\nL2  is 0\nL3  is 0\nCLW is 1\nSTA is event3 #ddffaa\n@220\nPRE is 0\nL3  is 1\n@270\nL3  is 0\nPST is 1\n@280\nPS  is 1:success\\n\nRW  is 1\n@281\nPS  is 0\n@290\nRW  is 0\n@300\nPST is 0\nCLW is 0\n\n@320\nSTA  is \&quot;\&quot;\n\nhighlight -10 to 100 #ffffcc\nhighlight 100 to 210 #ffffcc\nhighlight 210 to 320 #ffffcc\n\nSTA@80&lt;-&gt;@100:&lt;size:18&gt;interval1&lt;/size&gt;\nSTA@190&lt;-&gt;@210:&lt;size:18&gt;interval2&lt;/size&gt;\nSTA@300&lt;-&gt;@320:&lt;size:18&gt;interval3&lt;/size&gt;\nPRE@-10&lt;-&gt;@0:pre_dur\nPRE@100&lt;-&gt;@110:pre_dur\nPRE@210&lt;-&gt;@220:pre_dur\nPST@-10&lt;-[#grey]-&gt;@50:&lt;color:grey&gt;post_delay&lt;/color&gt;\nPST@50&lt;-&gt;@80:post_dur\nPST@100&lt;-[#grey]-&gt;@160:&lt;color:grey&gt;post_delay&lt;/color&gt;\nPST@160&lt;-&gt;@190:post_dur\nPST@210&lt;-[#grey]-&gt;@270:&lt;color:grey&gt;post_delay&lt;/color&gt;\nPST@270&lt;-&gt;@300:post_dur\nL1@0&lt;-&gt;@50:led_dur\nL2@110&lt;-&gt;@160:led_dur\nL3@220&lt;-&gt;@270:led_dur\nRW@280&lt;-&gt;@290:pump_dur\n@enduml\n\n\n\n&quot;,&quot;format&quot;:&quot;png&quot;}" id="i6j7QwNUQumE6ex7yG9b-1">
          <mxCell style="shape=image;noLabel=1;verticalAlign=top;aspect=fixed;imageAspect=0;image=data:image/png,iVBORw0KGgoAAAANSUhEUgAABhsAAAG/CAIAAADO+fENAAAAKnRFWHRjb3B5bGVmdABHZW5lcmF0ZWQgYnkgaHR0cHM6Ly9wbGFudHVtbC5jb212zsofAAADNmlUWHRwbGFudHVtbAABAAAAeJytVVFv2jAQfvevOMFL+wCNHWhpFEXpSlepA60CWh62qXITh0YLDnISWjb1v+/sJBBWNnXSkBCn7/v8+e64XPws5yovlgl5ikMBebwUHf4SZ0CygCcCqGUBz8DGn1X8IpKMuFm+SYRHUBrLxTDmC8WXPwngp6tEWEb6M4qlCNIkVdCOIsZ6vT1m9hQH36XI0Nvgr6XDY1KIQxYa/8P5voYqj1finlT5PcaSqw1A61aJGZbVAl3I7eSqwaRZ3qCmsx01uhrSEh5R19W3e94eyyqWHWTtirXfskGqlAhySMRaKHiOZZg+l+rL0dx1sYWoDlIZxJmA1jTneZG1ND2dXcBeVVlWJw71uS09Ec9chUerYrk6Nqcnc0KI3+lZBFsA+AdjMJ2VwYhCFbA6sKsAcyoDfbuOWi0ymUNtUAV+h259aX2GmjMYYKEyp9C+TpOQ+I0Eqnsp8fuNJKq0EB00ctwm4tt9nUGdgFY6WREE2I6vUrPdfoWjtrfT+jjKuxz/ofb9Ohi0w5DzKEJD2qyF1bXQ04bZrhh69te8kW4mTgfNzM8PNYL4jP6PimxdURRxjoasWZFdV8TOGh67ithgOwLNUqrxMALamBGGVWxHx7etwzXZbG/WcC0tnhL85oAzBnlqNhIulCgKggapUSSxIwdIVp5E6y2p78D5cjuengvHzeIfwqEDL5a5UGueUNwjCHlGh/3XQrR5K2RNIRalhXjRW6FdC7HB+nnRQstZKfEQFsqAtDyNY7UHs1KL/80Ons5Kiy/thRKbb0j38UqzKh2NeCtcbQ+hSPjGPTGwZw71jdUAnQxfWZmLd1Y4wO/xQplJ9/w3N7afGA7Pe9xQZlpnNdxG1Dcg1paIsISY7o9bZblFbd0et7qtRidzPaIG1TniKjSwL2SoX3jkNuEyvxuPABdxFqcSaJdZrNftHU15DhcrBdYp0J5j2w5OzvV4Bpo+Jjd8zWFSSP2ydODzSsib4acagCu5jlUql/hkkZv78U5w2ut8iHOY4jTg4r8fk6GIeJHkeCJIQ3yXOnA3+9gZkBGXi4Iv0FtIcpmir9ogNyW/AD6cJeDBpqfYAABndElEQVR4Xuy9D5RdVZ3nG0VA7Wa011uzbGaNPYw9Q0ccdaZvQlthaYo/BkNStnQEEttAMM0d8RGMKXmjdiAFIp0Qwt8CuYSEGpB6iYt0W8JkQkBSBjo0TLLMDC3PLBulaZtO8MHAC6hZrdTbqU1tTs7e99yzq+7ZZ//5fNZn1TrZd99TVeecX519vjl3n2ljAAAAAAAAAAAANkzLNwAAAAAAAAAAABRCogQAAAAAAAAAAHaQKAEAAAAAAAAAgB0kSgAAAAAAAAAAYAeJEgAAAAAAAAAA2EGiBAAAAAAAAAAAdpAoAQAAAAAAAACAHSRKAAAAAAAAAABgB4kSAAAAAAAAAADY0SFRuuqqq1oQPqtWrco3pcrAwECzuWhg4BKxVRCduWoVh1zlLlt2/vz5c8RX/SVEajBoqe4IpAbRqBiTN5tNMT7PD9mh23A9CCX5+te/nk+FCumQKIk15psgQNiPCrEpGo2G+KM6NrYb0Zkccg5sNheJ6hZf9ZcQqcGgpbojkBpEo+LAGB+Zc6lSOWxkKIntoUKilATsRwWJEtYih5wDuebEAqnBoKW6I5AaRKMkSs5gI0NJbA8VEqUk2L17d74pVbqVKG3qbeiNiO3cvXtYb8Tu2q1rTqo7SqnBoKW6I5AaRKMkSs7gehBKYluPJEqQFuKPqTh15YY1r+3fblwukFEpom8OD68RF5zia7aR6kaMQKobMVbFmFxcbxJ2APiDbQREogTRsmH69E29vUrZKBZ+9tgGMaYUqgHohuknyBahWNbPdlLRX/aRa5CN2eFptlH/LojYLbM1W1x3VDdiWFLdiOkJAB5hGwGRKEG0qBQpu7xh+vRHVy6VJ7DikaXu/QvnyAWxBjV4Nb5XvKp/F0TsluXrzthTl+pG9MTydWfsqUt1I3ovAHiEbQREogTRYkyUxhfeOIFtPX+eXDD+j6iucQDasVF9F0TsluXrjupGDMvydUd1I8YiAHiEbQREopQEaX442Zgorf3oR/V5lApGou26GQegxkbEMWYk7bbGurvslMMT9+ZmWilZjMYVdmzEgKQGQ9FYd1R3BFKDaJR5lJzBRoaS2EZAJEpJkOZ+HP+A20q5fP/ChXJhWU+P/qw3dUu88JHln9HPdrluxjvnjY2I0qk/XhCzZj+cogrzUyc39KdBUd0opQZDkeqOVWoQjfKsN2ewkaEktocKiVISpLkfxyfhfkxOy/3a/v2y0ZgoqWk7NxVOxmmc3dPYyKgUczKS7q6q4rI1a7zmpLpRSg2GItUdq9QgGiVRcgYbGUpie6iQKCVBmnc5Zj/1phCHtJ4o5Xz910++sHdYjVOlolHviVhS7vbvrsYLP3G1qV9z5qS6k5UaDEWqO1apQTRKouSMNK8HYRLY1iOJEqSF+GOqz6OkfPmZkW2f++TjV39Bf0k0ipdEB/0lRPTB4eE1+kwrSqobMVypbsRYZR4lAN+wjYBIlCBB8iezsYnx6Lqj37Z22rS/HmjqHUSjeEl0YGyKGJZUN2KsUt2IUQgAHmEbAZEoQYIccRrLjkelBaNSKWNTxCCkuhFjlepGjEgA8AjbCIhECRLkjRNYdjx63Vvfct1b3lJmVCq6ic6MTRF9lupGjFWqGzE6AcAjbCMgEqUk4MPJCjmP0sOb1myZe8p1bzvq8EBTjDIn/gNTunVJ33M7WjlFY7bP4beMj2LFSsSqXthrnpgJUdpu6i7sonKmlTvWfpnqRl1qMGip7gikBtEo8yg5g40MJbGNgEiUkoD9qGiNP+ttyXv/dXaIOXWvP/boZx+6TT9NIkqLHy+IXVE+DWru9D/QK3QqUt1xSA0GLdUdgdQgGuVZb85gI0NJbA8VEqUkYD8qZKJ0/ZWX3Df3lOve+lZ9fLlW/j/n6B05c//PqRQruY//58ROMpJ2oLzmXPKZP6a6UZcaDFqqOwKpQTRKouQMNjKUxPZQ8ShRGhwc3LVrV74VugF3OSpkoiSHNYfnYrjwk9cdNX7/fMbiuRjeHI8edZR4O3MxYBm529+B8ppTfB2julGTGgxaqjsCqUE0SqLkDK4HoSS29WidKA0ODq6bYNu2bblXi9mxY4d6r+KVV16Rr/b29urfDqC7yHmUssMafWzacVTKeBTRQ+VMK+KraqG6EeOQ6kaMVeZRAvAN20zGOlHqHadvnHPPPdfqrqL169fLN86cOVOt5MCBA/LVxYsXb968+ch3AFRB/mQ2duTYtGBUyngUMTipbsRYpboRoxAAPEKPgIqZTKKkGtXy4ODgvffeK+85UjcuHTp0SN2IlLubSb8d6e677xbdsvmUuhlqZGQku5KC1QKUQz+TveHhsennPvn41V/QXxKNPG8YMVypbsRYpboRAxcAPEKPgIrpTqIkFhrj9PX1ia8yGLr88stli2wcHR01rkRy6aWXzpw5M9uoboaaN29eds0FqwUoh34mO8LXf/1kyUZEDEtjIRsbETEsjYVsbEREzwQAj9AjoGImkyg1m83WOI1GQ35OTaY/e/bskcsqZtKzJ+M/jY36euRCwWqhHXw4WfGV1ld6zm+c8/UzV400u+sFG+fPvrZx08Nf1k6TiMxI6sL/PHDeyZ9o9H3xNL08pyjVHYHUYNBS3RFIDaJR5lFyBhsZSmIbsEwmUerp6ZER0urVq1Wj6qmmQ+rNZE/iLca0KEv5RKndaqEdbCVFz/k9jUbj+HnHT/uzaVXYu7ahnywReWqyA8UFp+DE2SfqhdkVqe6gpQaDluqOQGoQjfKsN2ewkaEktofKZBKl8o0qexIMDQ1lXzL2zzYWJErtVgvt0Ld2ssz9/Fxx3uq5oDHw3WZ3FeNRMSpdcleffrJEZCTtwI/1Hc6LT55LdaNBajBoqe4IpAbRKImSM9jIUBLbQ6XaREk1Dg0Nyc/E6S+1ayxIlNqtFtrBXY6KRSsWifPWohXz9VPaFF010hSjUjE81V9C5G5/B875k9miusVX/aUpSnVHIDUYtFR3BFKDaJREyRlcD0JJbOuxwkRpzjjD48yePbvgHqWdO3eKPrNmzVq2bJlYOHDgQLZPbqFgtQAdueTmS46fd/yymxfpp7QpyqgUsV7P/9qnTpx94gVf+5T+0hSluhHrlepGjFXmUQLwDT3YKabCROngwYOHP/U+zsDAQPalXP/+/n7VU9Buhm+5ULBagI6sGllV0diRUSlivVZXg9WtGRHLWF0NVrdmRCwtAHiEHuwUY50oAQQNiRJirFZXg9WtGRHLWF0NVrdmRCwtAHiEbQREogRpQaKEGKvV1WB1a0bEMlZXg9WtGRFLCwAeYRsBkSglAR9OVjCPEtYiM5I6kJlWsEBqMGip7gikBtEo8yg5g40MJbGNgEiUkoD9qOBZb1iLPDXZgTwNCgukBoOW6o5AahCN8qw3Z7CRoSS2hwqJUhKwHxUkSliLjKQdyDUnFkgNBi3VHYHUIBolUXIGGxlKYnuokCglAXc5KkiUsBa529+BXHNigdRg0FLdEUgNolESJWdwPQglsa1HEiVIC+ZRQoxVZlpBjFWqGzFWmUcJwDdsIyASJUgLnvWGGKvV1WB1a0bEMlZXg9WtGRFLCwAeYRsBkSjFzw0P3TD72tlLNi5ZNbIKxaYQY8cld/VpJ7OpesHG+WLNvWsbYniKiO6dfW2D6kaMUqobMWrzw3VEdOzovlGVHthGQCRK8SMzFMwqxo76sHKKyvEuItYr1Y0Yq1Q3IiJiFQ58d0ClB7YREIlS/Nz08E2NKxpL7loiDhQ85+pzei5ofO2OP9OHlVP0poe/LAa7S+7qG/huEzFn8/YFeiN2177lp508t/H5gYV6eU5RqjsCqcGgpbojkBpEo8tuXrRoxaJlNy/TB+3YXZu3N/VGRCn3KEEH2I8KsSnGnyixSh9WIlYnh5wDm83DT3IUX/WXEKnBoKW6I5AaRKM8680ZbGQoie2hQqKUBOxHBYkS1iKHnAO55sQCqcGgpbojkBpEoyRKzmAjQ0lsDxUSpSTgkZwKEiWsxd27h/VG7K5cc2KB1GDQUt0RSA2iURIlZ3A9CCWxrUcSJUgL8cdUnLoY1iDG5/DwGnHBKb7qLyFi0FLdiLEqxuTiepOwA8AfbCMgEiVIkPzJDBERERER6xAAPMI2AiJRggTRz2SIiIiIiOheAPAI2wioQ6K0YsWKFkBsrEJERERERA8EAI/o7+/Pp0KFdEiUWpYBFfgJH05WMI8S1iKHnAOZaQULpAaDluqOQGoQjTKPkjPYyFAS2wiIRCkJ2I+KFs96wzrkkHMgT4PCAqnBoKW6I5AaRKMtnvXmCjYylMT2UCFRSgL2o4JECWuRQ86BXHNigdRg0FLdEUgNolESJWewkaEktocKiVIScJejIsFEaWjoFr2xnR07P/bY5sHB6/R2LLbj3f6beht6YzutOqdjgtecHQvWqnPc1d2xBqvTqmCtOqcj1V1sx84+VHeNNVidVgVr1TkdSZScwfUglMS2HkmUIC0SnEep40DT2PnVV3epxuxytg92UauBplXndExwphWrYqS669KqYK06pyPVXSzVXZdWBWvVOR2ZRwnAN2wjIBIlSJD8ycxnBwevE6NApWwUw0TVooaMxsaxEoNI9cbnnntIdc5+39x/bGZXaPym2Q4dv3scbph+ghgpKmXja/u3qxaxXNA4VmKgqd74s8c2qM7Zd2UbZZ/ct0DfpLqDkOrGSUh1ByHV7Y0A4BG2ERCJEiSIfibzV+MIr2Pjtm13i69/93f/XTSuXv0N8VUsq1dz3nffHXLhkUfuVQNQ47fQ/ym/kVStp+C9sdpudFjc+Mjyz4ivP912i2i8+d3Hia9iWb2a8/6Fc+TCoyuXikGwvja1LF4VffQO6JvGSunYSHU71lhlHRup7sQ1VkrHRqrbscYq69hIdVcgAHiEbQREogQJop/J/NU4wjM27t//iFjeu/c7BWswalyb8f9X9f4//vHWBx64S3rbbev0Dh2/exwaR4fGxhf2Dovlvx0aKFiDUePaOjZuPX+eWkbfNFaKsZHqrtGOVUZ1o66xUoyNVHeNdqwyqtuVAOARthEQiVIS8OFkRXDzKBlHeMZGqRiVipZvfvP6dh10jWsreJexf3ZZjGgfeeTesSP/4zRuO44O1zdOyvYXo1Lx6tCH/r3+rnZ2/BbGxqQMbqYVY/kYG6VU91Sc9J/9jlWWqziquwqpbl3j2greZeyfXa66uiddg9XZscqobgcyj5Iz2MhQEtsIiEQpCdiPilZoz3pTI7yxTremG29iz3U2arxzPruG7JrHjlyh8b1COa1DdnKHuM3erK5ucc+ODq8/8Y173eXd8rmeuc5Gi++cNzamZnBPg6K6XTrpP/sdq1stU93VSXXrGivU5+qedA1WJ9XtgzzrzRlsZCiJ7aFCopQE7EdFcImSGtsNZabPlJMsSNUkC8aJNlV7wVwMxtk9jWvTJ3cwvjersTE+N5km1JSTLEhvvfSzsrHd7J6yvWAuBuPsnsZGtZCawV1zqsLRq0xKdXfRSf/ZV/WVrdlsdauypbqrk+rWNVaocW2eVPeka7A6VX1la5bqdiyJkjPYyFAS20OFRCkJuMtRUSZRev31fEuNdndUJ+dryKr3mbrZEW0Vd85Pzq7s1td//aTeOFZiIGh1t7+cryGr3meKtvtFgrbMNWdXDoNu2d0CpLqL7ViD7YqiuwVIdU9OqjuC6u5Yg0a7slvbFUV3C5DqnpwkSs7gehBKYluPJEqQFsXzKL300s6RkQ07d27SX8LQFbtV7Fyxi/WXyvjyMyPbPvfJx6/+gv5SiIpfRPw64pfSXwrX4plWqO6IpbqzUt0Yk1R31iirm3mUAHzDNgIiUYIEyZ/MxibGo1dddeXAwMDoqDlvwqAVu1XsXLGLbcemcjy67ui3rZ027a8HmnqHEBW/iPh1xC8V39hUl+qOXqo7K9WNMUl1Z423ugHAI2wjIBIlSJAjTmPZ8aiEUWmUylGppOTYNDselUY2KpXGODZ9Q6o7EanurFQ3xiTVnTXe6gYAj7CNgEiUIEHeOIHp41EJo9IozY5KJQVj0yPGo295S9yjUvkLxjU2pbrTkurOSnVjTFLdWeOtbgDwCNsIiEQpCfhwskLOo7R9+/p7773tyivz41HJd76z4ac/fRAjU+zW/J4eRxwG4mDYv/8ROax54QfDW+aect3bjsqNR6Vbl/Q9t6M1CR9urdQba1T8IrlfTf6y4hcXv/4Le4O8MJMzrdx+++EdSnUnZZnq3r17uKLq9k2qG/30wQfv1Bs7Wqa6xyo7d/tmlNXNPErOYCNDSWwjIBKlJGA/Klrjz3r70z/9TH5sAmnz9a9f9cwz25596Lbrjz06P1xLT7ERxKbQh32eK58GdeaZc/J7F9JGVvetyxdT3WupbogLzt1ZA61unvXmDDYylMT2UCFRSgL2o0ImSuvWfWX8/znzQxPJd76z4dlnt2Nktv9/zoEj/p9z7/CWs0657qi36mO1tfL/OUfvmIS39i/RG2vU8P+c44pfXPz6gf4/p7zmXLLkHKo7NctUt7hoqai6fZPqRj+95ZYBvbGjZap7rLJzt29GWd0kSs5gI0NJbA8V3xOlwcHBXbt25VvBEu5yVMhESZy9xpiLITEnMxeDvH8+46TnYti926+D6oi5GMYVv2zoczHIa07xdYzqTswy1a1qsOvV7ZtUN/rp5M6DZapbSXWHKImSM7gehJLY1qN1ojQ4OLhugm3btuVeLUk2J9qxY4daoeKVV16Rr/b29uo/A8CkkfMoZYc1+tiUUWmUTv55MZmxaZSj0gjGo1I504r4qlqo7kSkurNS3RiTVHfWKKubeZQAfMM2frFOlHrH6Rvn3HPPndwNRNmcaP369XJtM2fOVGs+cOCAfHXx4sWbN29+850AXSB/Mhs7cmzKqDRK5ai05Hg0a3ZsGtmoNJrxaLFUd/RS3VmpboxJqjtrvNUNAB6hR0DFTCZRUo1q+dChQ+r2InXjkrEx98bixrvvvlu8NxtaqTukRkZGsmsu+F4AGvqZ7A3l2HTnzk36Sxi6YrfajkezyrHp41d/QX8pRMUvEt14tINUd8RS3VmpboxJqjtrvNUNAB6hBzXFdCdRWrNmTaPRkLcXiQWZARkbH3zwQfGWnp6eZrMpFp5//nnjmiWXXnrpzJkzs43qDql58+bJlcs1X3755dnvNTo6mlkNQA79THaEr7+eb8EI7Mpuff3XT+qNIRrNL2JrVw4D9M2u7NZoiiKaX8TWrhwG6Jtd2a3RFEU0v4gmAHiEHgEVM5lESYZBrfEZjuVH0owxU7Zx4cKFw8PDYmHlypWifcaMGT09PWJh7969b6zXlCjpjfrK5YLxBwAFH05W6PMoIUpveKh/9rWNJRv7Vo00u27z9gV6o89esHG+2Bo3PfxlfUN5qz7TCqJUVHfjivdXVN3BSXVjLVY09Kr03B2cIVY38yg5g40MJbHNUiaTKMkwSLB69WrVqAc655133umnn95sNm+55ZbcTUPG0KdMY0GipHIu8ePp60kcNoiilXnWG2JWMQib9mfTMGvv2oa+obw1+zQoxKxUty7VjY6taOhFdeuGVd08680ZbGQoie2hMplEqbhRLb/66qtiWfyNmDFjhvhqezuSsbEgUVI5l2BoaEi9BcZM+zFZSJSwnUs29slx2MB3m123b1Wv3uizYjuIrbHkrj59Q3kr15zYzkqrOzipbqzFioZeVHfWEKubRMkZbGQoie2hUmGiNDQ0tGfPHr2D/s/yjeqfuYVst+z3BQl3OSpIlLCdq0aaYhwmBmT6S1O3orv9q7PSrVGRXHNiO0M8nqszxK1BdUdgRefBEI/n6gxxa5AoOYPrQSiJbT12J1GaNWuWaB8eR/1RmDOOaszeN6T6HzhwQDXm1rxz507RQfRctmyZ6tkuUcp+r9mzZ3OPErSDeZSwnSGOw6ozxK3BTCvYzhCP5+oMcWtQ3djOEI/n6gxxazCPEoBv6GlPMd1JlA4ePNiYYGBgoKAx91L2ZqLcmvv7+9XbVc92iVLB9wLQyJ/MEMfCHIdVJ1sDY5LjOStbA2OS4zlrsFsDADxCT3uKsU6UAMJHP5MhhjsOq0S2BsYkx3NWtgbGJMdz1mC3BgB4hG0ERKIECaKfyRDDHYdVIlsDY5LjOStbA2OS4zlrsFsDADzCNgIiUUoCPpysYB4lbGel47DgDrlKt0ZFMtMKtjPE47k6Q9waVHcEVnQeDPF4rs4QtwbzKDmDjQwlsY2ASJSSgP2oaPGsN2xjpeOw4A65SrdGRfI0KGxniMdzdYa4NajuCKzoPBji8VydIW4NnvXmDDYylMT2UCFRSgL2o4JECdtZ6TgsuEOu0q1RkVxzYjtDPJ6rM8StQXVHYEXnwRCP5+oMcWuQKDmDjQwlsT1USJSSgLscFSRK2M5Kx2EV3e1fnZVujYrkmhPbGeLxXJ0hbg2qOwIrOg+GeDxXZ4hbg0TJGVwPQkls65FECdKCeZSwnSGOw6ozxK3BTCvYzhCP5+oMcWtQ3djOEI/n6gxxazCPEoBv2EZAJEqQIPmTGeJYmOOw6mRrYExyPGdla2BMcjxnDXZrAIBH2EZAJErxc8NDN8y+dvaSjUtWjazCcZuIurOvbYhx2JK7+rSBTopesHG+2Bq9axv6hvJW8TOLnbhkY5/+EiYu1Z2V6saYpLqzhljd4+pjdUR06ui+UZUe2EZAJErxM/va2eLsgohlFOMwfYiWoHKMjhiTVLeU6sb4pLqlVDciTs6B7w6o9MA2AiJRip+bHr6pcUVjyV1LxIGCy25etmjF/GU3Lxr4bhMx65K7+sSQ9KaHv6wP0aZucFN3ie0gtobYJvqG8ta+5aedPLchvuovYeKKI7lxxUkVVXdwUt1Yi83bF+iNU7fSc3dwhljdYky+aMUiMT7XB+3YXZu3N/VGRCn3KEEH2I8KnvWGtcgh50CeBoUFUoNBS3VHIDWIRnnWmzPYyFAS20OFRCkJ2I8KEiWsRQ45B3LNiQVSg0FLdUcgNYhGSZScwUaGktgeKiRKScAjORUkSliLwX3qLUS55sQCqcGgpbojkBpEoyRKzuB6EEpiW48kSpAW4o+pOHUxrEGMz+HhNeKCU3zVX0LEoKW6EWNVjMnF9SZhB4A/2EZAJEqQIPmTGSIiIiIi1iEAeIRtBESiBAmin8kQEREREdG9AOARthFQh0RpxYoVLYDYWIWIiIiIiB4IAB7R39+fT4UK6ZAotSwDKvATPpysYB4lrEUOOQcy0woWSA0GLdUdgdQgGmUeJWewkaEkthEQiVISsB8VLZ71hnXIIedAngaFBVKDQUt1RyA1iEZbPOvNFWxkKIntoUKilATsRwWJEtYih5wDuebEAqnBoKW6I5AaRKMkSs5gI0NJbA8VEqUk4C5HReKJ0hOrl22YfoLe3s5NvQ29Ubdkt5Tlbn8Hcs2JBVKDQUt1RyA1iEZJlJzB9SCUxLYeSZQgLZhHKZv+vLZ/u3HZ2LnAkt0QK5WZVhBjlepGjFXmUQLwDdsIiEQJEiR/MkvKbPqzYfoJ4p9Sde/Sa/u3y5afPbahICoydsv2zzbKPkJjboWIiIiIqQoAHmEbAZEoQYLoZ7KENIY+2eX7F86RC4+uXFrwETljN+MKxauij94BEREREZMXADzCNgIiUYIE0c9kCZnNdLL3KBXfZ6Rr7Naxcev589QyIiIiIiYvAHiEbQREopQEfDhZwTxKxtDHqoP+kjE8MjYma8qHnDOZaQULpAaDluqOQGoQjTKPkjPYyFAS2wiIRCkJ2I+KVt3PenvmgRv1Rpdm8x31yTXhI8s/k2ucyqfejI01Wvtmr/GQS0eeBoUFUoNBS3VHIDWIRnnWmzPYyFAS20OFRCkJ2I+KGhOlZx648Z6ZJ62dNk1/yY0/3XbLpt7Gze8+TnwVy2OZ2bU3ZebMNk65rWvsZmwsWIkzxWYXG7/GXKmWQy41uebEAqnBoKW6I5AaRKMkSs5gI0NJbA8VEqUk4C5HRS2JksqSpHoHz31h77AKnqR6H89VG7+uXIm7/R3INScWSA0GLdUdgdQgGiVRcgbXg1AS23okUYK0cDyPUi5LCjRRisDcLqgrV8JKZaYVxFiluhFjlXmUAHzDNgIiUYIEyZ/MqtCYJZEo1aW+F8iVEBERET0QADzCNgIiUYIE0c9k3bQgSyJRqkt9LyjJlRARERHrEwA8wjYCIlGCBNHPZN2xY5Yk1d+IVavvhZzkSoiIiIh1CAAeYRsBkSglAR9OVlQ0j1LJLEn63I4WOlbfC0ary5W6fsihLjOtYIHUYNBS3RFIDaJR5lFyBhsZSmIbAZEoJQH7UdGq4FlvD138aT2bwHAVO1Tfy1O0u4ccGuVpUFggNRi0VHcEUoNolGe9OYONDCWxPVRIlJKA/aioIlEas71HafQOdKy+F4xWd49S1w851OWaEwukBoOW6o5AahCNkig5g40MJbE9VKwTpcHBwV27dumN6zKsX78+27hx40a9v74SqA7uclRUlChJS+ZK+huxavW9kLO6LEnK3f4O5JoTC6QGg5bqjkBqEI2SKDmD60EoiW09WidKvb29xkZB3wRLly7NNp511lmjo6Oq85YtW3p6evSVADigonmUsnbMlfS3YNXqe0FZdZaEzmSmFcRYpboRY5V5lAB8wzao6VqiVNB42WWXnXPOOfKmpJGRkTPPPHPGjBl6fwBX5E9mVViQK+mdsWr1vUCWhIiIiOiBAOARtkGNi0Qpu/yNb3zjq1/9qrE/gCv0M1lVGnMlvRtWLVkSIiIiopcCgEfYBjVdS5SazWZrAtVoXNb/CeAW/Uw2VadNGyvw/dMeuHTaTBVn6B2watXGFztC7A69Q059FyMiIiJiBQKAR9gGNV1LlHp6enonUI0kSp7Ah5MVFc2jpEcSuipX0l/Cqi2fJUn1XTxFu37IoS4zrWCB1GDQUt0RSA2iUeZRcgYbGUpiG9R0LVEqbiRRqhe2tqJVzbPe9EiineVDDeyitptd38VTtOuHHOryNCgskBoMWqo7AqlBNMqz3pzBRoaS2B4qLhKlrVu35h7uZuwP1cHWVtSeKGEQ6rt4inb9kENdrjmxQGowaKnuCKQG0SiJkjPYyFAS20NlMonSsmXLhicYGRnp2Cj+TKxevVq+fefOnaJl1qxZ8qUDBw5kVw4VwV2OChIlLKO+i6cod/s7kGtOLJAaDFqqOwKpQTRKouQMrgehJLb1OJlEqZGhr6+vY+OCBQvU2/v7+7M99+zZo14CcICbeZT0Dui57MEIZKYVxFiluhFjlXmUAHxDj4CKsU6UAMInfzKbuuQRocseRERERKxDAPAI2wiIRAkSRD+TTVXyiNBlDyIiIiLWIQB4hG0ERKIECaKfyaYqeUTosgcRERER6xAAPMI2AiJRSgI+nKxgHiU0WvUe7Pohh7rMtIIFUoNBS3VHIDWIRplHyRlsZCiJbQREopQE7EdFy8mz3vQO6LlV78GuH3Koy9OgsEBqMGip7gikBtEoz3pzBhsZSmJ7qJAoJQH7UUGihEar3oNdP+RQl2tOLJAaDFqqOwKpQTRKouQMNjKUxPZQIVFKAu5yVJAoodGq9yB3+zuQa04skBoMWqo7AqlBNEqi5AyuB6EktvVIogRpwTxKaJQ9GIHMtIIYq1Q3YqwyjxKAb9hGQCRKkZO7TkY36udL9Fx9JyIiIiIiIiaixDYCIlGKHP1AQQfqgQV6rr4TERERERERE1FiGwGRKEWOfqCgA/XAAj1X34mIiIiIiIiJKLGNgEiUIkc/UBL3uON2H398S3zVX+qiemCBnqvvRAzO97xn+MQTm+Kr/hIiBi3VjRirbkbmiFhGiW0ERKIUOfqBkrjipNVoNMRX/aUuqgcW6Ln6TsTgFBecorrFV/0lRAxaqhsxVt2MzBGxjBLbCIhEKQnYjwqxKcafUbpKzxQQq5NDzoE8XxwLpAaDluqOQGoQjYoDY3xkzqVK5bCRoSS2hwqJUhLwSE4FiRLW4u7dw3ojdleuObFAajBoqe4IpAbRKImSM7gehJLY1iOJEqSF+GMqTl0MaxDjc3h4jbjgFF/1lxAxaKluxFgVY3JxvUnYAeAPthEQiRIkSP5khoiIiIiIdQgAHmEbAZEoQYLoZzJERERERHQvAHiEbQTUIVFasWJFCyA2ViEiIiIiogcCgEf09/fnU6FCOiRKLcuACvyEDycrmEcJa5FDzoHMtIIFUoNBS3VHIDWIRplHyRlsZCiJbQREopQE7EdFi2e9YR1yyDmQp0FhgdRg0FLdEUgNotEWz3pzBRsZSmJ7qJAoJQH7UUGihLXIIedArjmxQGowaKnuCKQG0SiJkjPYyFAS20OFRCkJuMtRQaKEtcjd/g5M/JrzidXLNkw/QW9v56beht6oW7Kb/1KDQZt4dcchNYhGSZScwfUglMS2HkmUIC2YRwkxVplpJZv+vLZ/u3HZ2LnAkt0QK5XqRoxV5lEC8A3bCIhECRIkfzJDRIzAbPqzYfoJ4p9Sde/Sa/u3y5afPbahICoydsv2zzbKPkJjboWIiNhJAPAI2wiIRAkSRD+TISIGrzH0yS7fv3COXHh05dKCj8gZuxlXKF4VffQOiIiIpQUAj7CNgEiUIEH0MxkiYvBmM53sPUrF9xnpGrt1bNx6/jy1jIiIWFoA8AjbCIhEKQn4cLKCeZSwFjnkHMhMK8bQx6qD/pIxPDI2ei41GLRUdwRSg2iUeZScwUaGkthGQCRKScB+VLR41hvWIYecA2t/GtQzD9yoN7o0m++oT64JH1n+mVzjVD71Zmys0ZKbnRoM2tqrG6cuNYhGedabM9jIUBLbQ4VEKQnYjwoSJaxFDjkH1njN+cwDN94z86S106bpL7nxp9tu2dTbuPndx4mvYnksM7v2psyc2cYpt3WN3YyNBStxptjsYuN3zJWowaCtsbqxW1KDaJREyRlsZCiJ7aFCopQE3OWoIFHCWuRufwfWcs2psiSp3sFzX9g7rIInqd7Hc9XGL86VqMGgraW6sbtSg2iURMkZXA9CSWzrkUQJ0oJ5lBBj1fFMK7ksKdBEKQJzu6A4V8JAdVzdiOhM5lEC8A3bCIhECRIkfzJDRCyvMUsiUapLfS+QKyEiBiUAeIRtBESiBAmin8kQETtbkCWRKNWlvheU5EqIiCEIAB5hGwGRKEGC6GcyRMQiO2ZJUv2NWLX6XshJroSI6LcA4BG2ERCJUhLw4WQF8yhhLXLIObCimVZKZknS53a00LH6XjB6+0m/T64UrhVVN7qU8yAaZR4lZ7CRoSS2ERCJUhKwHxUtnvWGdcgh58Aqngb10MWf1rMJDFexQ/W9jP5bRXWjYzkPolGe9eYMNjKUxPZQIVFKAvajgkQJa5FDzoEVXXPa3aM0egc6Vt8LRq8/4V9xj1K4VlTd6FLOg2iURMkZbGQoie2hYp0oDQ4O7tq1S29cl2H9+vXZxo0bN6qehw4dUt22bdv25iqgSrjLUUGihLXI3f4OrPSas2SupL8Rq1bfCznlPErUYNBWWt3oRmoQjZIoOYPrQSiJbT1aJ0q9vb3GRkHfBEuXLs02nnXWWaOjo7LnmjVrxF8N2U0s6OEUQKUwjxJirDqYaaVjrqS/BatW3wtK5uSORgfVjYi1yDxKAL6hpz3FdC1RKmi87LLLzjnnHBkeZXsa3wVQPfmTGSJieQtyJb0zVq2+F8iSEBGDEgA8wjaicZEoZZcXL168efNmvQOAQ/QzGSKincZcSe+GVUuWhIgYuADgEbYRTdcSpWaz2ZpANRqXBXv27GmNT2ej0iUAh+hnMkREs9OmjRX4/mkPXDptpooz9A5YtWrjix0hdofeIae+ixERsVYBwCP0tKeYriVKPT09vROoRj1ROnTo0OWXX95oNET/1atXqzVApfDhZAXzKGEtcsg5sKKZVvRIQlflSvpLWLXlsySpvovRfyuqbnQp50E0yjxKzmAjQ0n0tKeYriVKxY1qeeXKlY1xXn311SN6Q5XoeydZ5M1xPOsNHcsh58CKngalRxLtLB9qYBe13ez6Lkb/rai60aWcB9Eoz3pzBhsZSmJ7qLhIlLZu3drT0yOXjT2hatjmChIlrEUOOQdWdM2pRxIYtPouRv+tqLrRpZwH0SiJkjPYyFAS20NlMonSsmXLhicYGRnp2Cj+TKgPuOV6PvXUU9mVQ0Vwl6OCRAlrkbv9HVjRNaceSWDQ6rsY/bei6kaXch5EoyRKzuB6EEpiW4+TSZTGP7X2Bn19fR0bFyxY0O7t+voBKoV5lBBjtaKZVsgjQpc9GIEVVTci1i7zKAH4hm1EY50oAYRP/mSGiNhO8ojQZQ8iIvotAHiEbQREogQJop/JEBHNkkeELnsQEdFvAcAjbCMgEiVIEP1MhoholjwidNmDiIh+CwAeYRsBkSglAR9OVjCPEtYih5wDK5pphTwidNmDEVhRdaNLOQ+iUeZRcgYbGUpiGwGRKCUB+1HR4llvWIcccg6s6GlQ5BGhyx6MwIqqG13KeRCN8qw3Z7CRoSS2hwqJUhKwHxUkSliLHHIOrOiakzwidNmDEVhRdaNLOQ+iURIlZ7CRoSS2hwqJUhJwl6OCRAlrkbv9HVjRNSd5ROiyByOwoupGl3IeRKMkSs7gehBKYluPJEqQFsyjhBirFc20Qh4RuuzBCKyouhGxdplHCcA3bCMgEqXIyY2kERFxKuqjYfRcfSciIiIiYk6JbQREohQ5+oGCiIiTVg8s0HP1nYiIiIiIOSW2ERCJUuToBwoiIk5aPbBAz9V3IiIiIiLmlNhGQCRKkaMfKIl73HG7jz++Jb7qLyFi0L7nPcMnntgUX/WXuqgeWKDn6jsRg9NNdSOiexmZI/qjxDYCIlGKHP1ASVxx0mo0GuKr/hIiBq244BTVLb7qL3VRPbBAz9V3Iganm+pGRPcyMkf0R4ltBESilATsR4XYFOPPKF2lX3UgVieHnAN5vjgWSA0GLdUdgdQgGhUHxvjInEuVymEjQ0lsDxUSpSTgkZwKEiWsxd27h/VG7K5cc2KB1GDQUt0RSA2iURIlZ3A9CCWxrUcSJUgL8cdUnLoY1iDG5/DwGnHBKb7qLyFi0FLdiLEqxuTiepOwA8AfbCMgEiVIkPzJDBERERER6xAAPMI2AiJRggTRz2SIiIiIiOheAPAI2wioQ6K0YsWKFkBsrEJERERERA8EAI/o7+/Pp0KFdEiUWpYBFfgJH05WMI8S1iKHnAOZaQULpAaDluqOQGoQjTKPkjPYyFAS2wiIRCkJ2I+KFs96wzrkkHMgT4PCAqnBoKW6I5AaRKMtnvXmCjYylMT2UCFRSgL2o4JECWuRQ86BXHNigdRg0FLdEUgNolESJWewkaEktocKiVIScJejgkQJa5G7/R3INScWSA0GbeLV/cTqZRumn6C3t3NTb0Nv1C3ZrVtSg2iURMkZXA9CSWzrkUQJ0oJ5lBBjlZlWEGOV6s6mP6/t325cNnYusGQ3xEplHiUA37CNgEiUIEHyJzNEREREb82mPxumnyD+KVX3Lr22f7ts+dljGwqiImO3bP9so+wjNOZWiN0TADzCNgIiUYIE0c9kiIiIiJ5qDH2yy/cvnCMXHl25tOAjcsZuxhWKV0UfvQNiBQKAR9hGQCRKkCD6mQwRERHRU7OZTvYepeL7jHSN3To2bj1/nlpGrEAA8AjbCIhEKQn4cLKCeZSwFjnkHMhMK1ggNRi0VLcx9LHqoL9kDI+MjV2RGkSjzKPkDDYylMQ2AiJRSgL2o6LFs96wDjnkHJj406CwWGowaGuv7mceuFFvdGk231GfXBM+svwzucapfOrN2NgtJ1GDtW92dCDPenMGGxlKYnuokCglAftRQaKEtcgh58DarznRZ6nBoK2xup954MZ7Zp60dto0/SU3/nTbLZt6Gze/+zjxVSyPZWbX3pSZM9s45bausZuxsWAlk3MSNSg2u9j45EpxS6LkDDYylMT2UCFRSgLuclSQKGEtcre/A2u85kT/pQaDtpbqVlmSVO/guS/sHVbBk1Tv49JJ1KDa+ORKEUui5AyuB6EktvVIogRpwTxKiLHKTCuIseq4unNZUqCJUgTmdgG5UpQyjxKAb9hGQCRKkCD5kxkiIiKiMUsiUapLfS+QK0UqAHiEbQREogQJop/JEBERMV0LsiQSpbrU94KSXCkuAcAjbCMgEiVIEP1MhoiIiCnaMUuS6m/EqtX3Qk5ypVgEAI+wjYBIlJKADycrmEcJa5FDzoGOZ1rBsKQGg7ai6i6ZJUmf29HCqfhwa6XeWKy+F4ySKwUt8yg5g40MJbGNgEiUkoD9qGjxrDesQw45B9byNCgMRWowaKuo7ocu/rSeTWC4ih2q72X0X5715gw2MpTE9lAhUUoC9qOCRAlrkUPOgVVcc2I0UoNBW1F1292jNHoHTsVb+5fojcXqe8Eo9ygFLYmSM9jIUBLbQ8U6URocHNy1a5feuC7D+vXrs40bN25UPQ8dOqS6bdu27c1VQJVwl6OCRAlrkU/cOLCia06MQ2owaCut7pK5kv5GtHISNajvhZxkSRFIouQMrgehJLb1aJ0o9fb2GhsFfRMsXbo023jWWWeNjo7KnmvWrBF/NWQ3saCHUwCVwjxKiLFa0UwriFi7Dqq7Y66kvwWrVt8LSrKkaGQeJQDf0NOeYrqWKBU0XnbZZeecc44Mj7I9je8CqJ78yQwRERGxIFfSO2PV6nuBLClSAcAjbCMaF4lSdnnx4sWbN2/WOwA4RD+TISIiIh7WmCvp3bBqyZKSEQA8wjai6Vqi1Gw2WxOoRuPyP/zDP8hujUZj+fLlshHAIfqZDBEREdNy2rSxAt8/7YFLp81UcYbeAatWbXyxI8Tu0Dvk1HcxBiIAeISe9hTTtUSpp6endwLVaEyUnnjiCdmNadicwYeTFcyjhLXIIedABzOtYLhSg0FbUXXrkYSuypX0l7Bqy2dJUn0Xo/8yj5Iz2MhQEtuIpmuJUnGjWh4ZGXn66af1DlApbGeFvDmOZ72hYznkHFjp06AwdKnBoK2ouvVIop3lQw3sorabXd/F6L88680ZbGQoie2h4iJR2rp1a09Pj1w2xkxQNWxnBYkS1iKHnAMruubEOKQGg7ai6tYjCQxafRej/5IoOYONDCWxPVQmkygtW7ZseIKRkZGOjeLPxOrVq+XbZ82aJdplN/58OIO7HBUkSliLfOLGgRVdc2IcUoNBW1F165EEBq2+i9F/SZScwfUglMS2HieTKDUy9PX1dWxcsGCBevvBgwdVt4GBAdUO4AbmUUKM1YpmWkHE2q2ouskjQpc9GIHMowTgG3oEVIx1ogQQPvmTGSIiIqYmeUTosgdjEQA8wjYCIlGCBNHPZIiIiJiW5BGhyx6MRQDwCNsIiEQJEkQ/kyEiImJakkeELnswFgHAI2wjIBKlJODDyQrmUcJa5JBzYEUzrWAcUoNBW1F1k0e4tIoaZA9GIPMoOYONDCWxjYBIlJKA/aho8aw3rEMOOQdW9DQojENqMGgrqm7yCJdWUYPswQjkWW/OYCNDSWwPFRKlJGA/KkiUsBY55BxY0TUnxiE1GLQVVTd5hEurqEH2YASSKDmDjQwlsT1USJSSgLscFSRKWItV3O2POSu65sQ4pAaDtqLqJo9waRU1yB6MQBIlZ3A9CCWxrUcSJUgL5lFCjNWKZlpBxNqtqLrJI0KXPRiBzKME4Bu2ERCJUuTkzrWIiIiIqKtf66Ln6jsREREnrcQ2AiJRihz9QEFERETEnHpggZ6r70RERJy0EtsIiEQpcvQDBRERERFz6oEFeq6+ExERcdJKbCMgEqXI0Q+UxD3uuN3HH98SX/WXEDFo3/Oe4RNPbIqv+kuIGLRuqlsPLLCLVjGFpb4TMTgZmSP6o8Q2AiJRihz9QElccdJqNBriq/4SIgatuOAU1S2+6i8hYtC6qW49sMAuWsVjdvWdiMHJyBzRHyW2ERCJUhKwHxViU4w/o3SVPi5BrE4OOQdW9HxxjENqMGip7gikBtGoODDGR+ZcqlQOGxlKYnuokCglAY/kVJAoYS1Wcbc/5uSaEwukBoOW6o5AahCNkig5g+tBKIltPZIoQVqIP6bi1MWwBjE+h4fXiAtO8VV/CRGDlupGjFUxJhfXm4QdAP5gGwGRKEGC5E9miIiIiIhYhwDgEbYREIkSJIh+JkNERERERPcCgEfYRkAdEqUVK1a0AGJjFSIiIiIieiAAeER/f38+FSqkQ6LUsgyowE/4cLKCeZSwFjnkHMhMK1ggNRi0VHcEUoNolHmUnMFGhpLYRkAkSknAflS0eNYb1iGHnAN5GhQWSA0GLdUdgdQgGm3xrDdXsJGhJLaHColSErAfFSRKWIsccg7kmhMLpAaDluqOQGoQjZIoOYONDCWxPVRIlJKAuxwVJEpYi9zt70CuObFAajBoqe4IpAbRKImSM7gehJLY1iOJEqQF8yghxiozrSDGKtWNGKvMowTgG7YREIkSJEj+ZIaIiIiIiHUIAB5hGwGRKEFivO8MRLQwP+zzWP2HR8QC9SLyVv2HR8QC9SLyWgDwCNsIiEQJEkM/6SJigflhn8fqPzwiFqgXkbfqPzwiFqgXkdcCgEfYRkAkSknAh5MVu0/sbZ10iviaP/UiotH8sM9fh9//0eaH/kh8zf8KiGhUKyJvpboR7dSKyFuZR8kZbGQoiW0EFHOidPfdd69bt27Xrl35F+pmcHDQ6qey7a8T9H7sLq2TTjn8RImTTtFPaYjVGd7jBQMclYoLzsNPg/rQH+kvIYZXg9VJdWMdUoMuDLC6edabM9jIUBLbQyXIRKlkwnLppZfOnDnTw1+ht7fX6qey7a8zxbfHBIkS1mJ4I+kAR6Vcc2KB4dVgdVLdWIfUoAsDrG4SJWewkaEktodKkIlS+YSlfE+XLF68ePPmzfnW9kz9t+AuRwWJEtbi7t3DeqPXBjgq5ZoTCwyvBquT6sY6pAZdGGB1kyg5g+tBKIltPVonSocOHVqXQW/ctm2bbBwcHLz33nvLNBrfbvxGkvIJS66n8Rtl73hSy+166j+8Ef0uKtWifxbPuFr1A2zcuFH9Fu1+qnbfC3TenEdJO6Uh4psGOCp9c6YV7SVEfFOqGzFWA6xu5lEC8I2SSYvCOlG69dZbG41G3zhiYXh4WDSuWbMm2yjjjN7e3sY4HRsvv/zy7NtHR0fbfaMHH3xQ/Eg9PT3NZlMsPP/889mfTSeXKBm/UbaPWm7XU//hjaj1qHBHteifxTOuVv364qv4fWX/dtu53fcCAwGeaxFrMMRKCfFnRnRviJUS4s+M6N5QKwUAPMI2SbBOlLJpxeDg4MKFC3ONarl3nD179pRpNL5d/0YrV64U7TNmzOjp6RELe/fulR3akV1J7p/ZbzRv3rynn35aLDcajeXLlxf01H94I/pvYVyh+qe+WrVw2WWXid+3YCUFC2Ag1HMtoltDrJQQf2ZE94ZYKSH+zIjuDbVSAMAjbJOEKSVKxkZjrqFmDmrXKO85ao3ff6S/PUfBSzlyPY3fSPwYjYmP74qF008/vV1P4w9vRN8Ixk2k/7O4f3GjvgAGQj3XIro1xEoJ8WdGdG+IlRLiz4zo3lArBQA8wjZJcJQoKdo1ynuOJENDQ+16SgpeypHrafxG2W7ZBb2nerUjxhXqm0j/Z3H/4kZ9QcGHkxXMo4S1GN6MpAGOSplpBQsMrwark+rGOqQGXRhgdTOPkjPYyFCSkomHYkqJ0q5du+T0RsVJR5aOjUNDQ/rHytQ30vsXk+tp/Eayfc6cOVu2bFE3Kxl7TuL76gu55XYvqYWtW7cab5LSe+oLipI/dgrwrDesxfCemhzgqJSnQWGB4dVgdVLdWIfUoAsDrG6e9eYMNjKUxPZQsU6U5owzPM5FF10kpzeaNWtWb2+vbDSGMgpjY3ads2fPljcEGb+RRH27AwcOvLmWI9m5c6foIHouW7ZM9TR+I8nhmbEbjS1btsh/Gnsaf3gj6icU65Q/gNwsxp/KmBOpH0C8Uc2jZNzO7b7Xmz+NaT8mC4kS1mJ4I+kAR6Vcc2KB4dVgdVLdWIfUoAsDrG4SJWewkaEktoeKdaJ08OBBGb5I9MaBgQHZaMxfjI3Gtxu/Ue4ldZORTn9/f/btsqfxG0lko0qUjD2NP7wR9Xb1Y8iVGH8qY6Kk1rBgwQK9sWHaULnvlYW7HBUkSliL4d3tH+ColGtOLDC8GqxOqhvrkBp0YYDVTaLkDK4HoSS29WidKEF4qLMLvu8M5lFCLKVWO/7LTCuIpdRqx3+pbsRSarXjv2+OzLWXENGpE9hGQCRKCaAfLvi+kP73BrEG9ZIJSP3XQUSlXjIBqf86iKjUSwYRsaQT2EZAJEoJoB8u+D5GpYiF6iUTkPqvg4hKvWQCUv91EFGplwwiYkknsI2ASJQgQbQTMCIiIiIi1iAAeIRtBESilATMxKYQm6LVWsX0kOhYDjkHDg+vaTYXia/6S4jUYNBS3RFIDaJRcWCI600uVRzARoaS2EZAJEpJwH5UiE0x/kSJVfopDbE6OeQcKC44Dz8NqrlIfwmRGgxaqjsCqUE0yrPenMFGhpLYHiokSknAflSQKGEtcsg5kGtOLJAaDFqqOwKpQTRKouQMNjKUxPZQIVFKAu5yVJAoYS1yt78DuebEAqnBoKW6I5AaRKMkSs7gehBKYluPJEqQFsyjhBirzLSCGKtUN2KsMo8SgG/YRkAdEqUVK1a0AuH222//4he/mG8FMLAKERERERE9EAA8or+/P58KFdIhUWpZBlQ1smXLln379uVbAQzk/3sEERERERHrEAA8wjYCiiRReuGFF+688858K4AZ/UyGiIiIiIjuBQCPsI2ArBOlQ4cOrZtg27Zt2ZcGBwd37dqVbWlH+Z4lueGGG375y1/mW2ECPpysYB4lrEUOOQcy0woWSA0GLdUdgdQgGmUeJWewkaEkegRUjHWitGbNmkaj0TeOWMgGQ729vXp/I+V7luHRcfKtkKGLWzt0WjzrDeuQQ86BPA0KC6QGg5bqjkBqEI22eNabK9jIUBLbQ8U6UcqGQblgKPfPgruZcj2ztyyp5YK3Z/nFL35x44035lvhSPT9mCwkSliLHHIO5JoTC6QGg5bqjkBqEI2SKDmDjQwlsT1UppQoLV68ePPmzWLhwQcfFI09PT3NZlMsPP/886Lx1ltvzd7NtGfPnnY9jSlVwc1QWdavX//zn/883wpHwl2OChIlrEXu9ncg15xYIDUYtFR3BFKDaJREyRlcD0JJbOvROlE677zzTj/9dNF+6NAh1bhy5cre3t4ZM2b09PSIhb1794rG+fPnDw0NyQ4qJzL2NCZK2caFCxcODw/L5Sz79u3bsmVLvhWgPcyjhBirzLSCGKtUN2KsMo8SgG/oEVAx1onSq6++2tvb22g01q1b96Uvfenpp59WL+U+y3bXXXddfPHFrXF6enqyLxV8XE4ty+iq2Wzecssto6OjqrPiN7/5zbXXXiu+5l8A6ED+ZIaIiIiIiHUIAB6hR0DFWCdKIyMjTz/99NDQkMyV2gVDghkzZogOveOI5YKexkRJRVdyPfJupixbtmzZt29frhGgBPqZDBERERER3QsAHqFHQMVYJ0rG9Kf4n1u3bi15j9KOHTtmzZoll4eGhuTUS3p/wQsvvHDnnXdmWwBKo5/JEBERERHRvQDgEXoEVIx1ojRr1qze3t7hcXL3KKmXDhw4IP45ZxzZLXePUq6n+mdjHNlTvV22qymZJDfccMMvf/nLbAsUwIeTFcyjhLXIIedAZlrBAqnBoKW6I5AaRKPMo+QMNjKURI+AirFOlA4ePChzH8HAwIDxJXlvkfrnggULcjcZlelZ8I0eHSfbAsXo+zFZWjzrDeuQQ86BPA0KC6QGg5bqjkBqEI3yrDdnsJGhJLaHinWiVDu/+MUvbrzxxnwrFOLhfqwLEiWsRQ45B3LNiQVSg0FLdUcgNYhGSZScwUaGktgeKuElSuvXr//5z3+eb4VCuMtRQaKEtej53f4v/mjLDW8/Rm/331/8v99bO22a/OG55sQCPa/B6qS60ROTrcHqjKO6SZScwfUglMS2HgNLlPbt27dly5Z8K0BpmEcJUXcSo9JJvKUKX//Nk3//vW/Kn0SfacWTHxKxRidRBZN4SxW2q+5f/2qXuBZVip9Wfy9iCk6iVCfxlirMVnduHqVsdQuPHMUDgAtsI6AOhbpixYqWT1xxxRW/+c1v8j8lgB35Exti4v760OMv7ftLvb1AT0alY+1/EnHZef0xRxtfQkzHyKpbtFx/7DGvPHu/8udPbfbkp0V0bETVfZgXf/SjG97+9leefTaraDlyDA8AldPqbqJkuzqAEMif1RBTNnvzuVIN9TL/T3jEu4yj0t/88xOv/P0Duf9gFC3FK9RX9etf7cq25FaY7Wl8u2o0voSYjvFVd5kWxBSMq7oPIxOlI0fsY3oLAFSNbQREogQJcsQpDTFxszefK8VQ740x5cSNANnBn1i4/pij146PZaXqXWI5e/uAUL5asMKCUelL+/7y5nf9dm6FoiX3o7YbHxtfQkzH+KpbvylD74OYgnFV92F+fejQS/v2HTliJ1ECqAHbCIhEKQmYiU3BPEpYi54fcvq48MWJj5YY+4jln2y9WQxMxYJU76NUQ892K9TfpUal+tWjWqG+HuZRwgI9r8Hq1KugoBjlchDVLTsL9ZWgnyZbg9Wp11dBMcplD6s7N4+SZMP06dJX/v7vs+0wFbgehJLYRkAkSknAflS0eNYb1qHnh5w+LuzYoneQjdn//FQa+xtHnLpyhKqvUKnWrD8NSv+mmKye12B16lXQsUXvIBv9qW7xxpvf9dviq3Ds9f+hrxk9NNkarE699Dq26B1kY43VXfysN+5R6iLtNjJADttDhUQpCdiPChIlrEXPDzl9yNixRe8gG7P/+SmVQ09jf2V28oVsz9/88xMv//S7uRW2+8FIlLBAz2uwOvUq6Niid5CNnlS3ipP074U+m2wNVmdBybRr0TvIxhqrm0TJGe02MkAO20OFRCkJuMtRQaKEtej53f4FQ712LXqHdo0dXxprPyo1vqvdD0aihAV6XoPVqVdBxxa9Q7vGji+Ndbu6X/7Jd+/64L8rc4sE+mayNVidehF1bNE7tGvs+NJYl6pbJUrMo1Q1XA9CSWwjIBIlSAvmUULU1Qd/HVv0Du0aO740Nn4X/dCH/v2LE/+TKZYL3tXuB9NnWjG+HTEp9Sro2KJ3aNfY8aWxble38V2IaaqXQ8cWvUO7xo4vjXWputU8SjzrDcATbCMgEiVIkPwZETFlX3n2/r//3jfl1JvSMdNw0DgqPfxItYm3CF9+ZmTDH/yb7LNdhHKIqa9QVz5Q5sWJuUL1FW6YfoIwux7jDz8mn/V25EsH//G/698RMW6NBaIXY0DV/eLEPMFHOP6Yc8SkbFcgYVb3s2J0/vIzz2z4gz8Qy1lFS34UDwAVYxsBkShBguTPhYgpK8eCWcdMg0i9RTaqt7RbYcHbc+qj0my7WlV2Pbnvlf12uXYxnM2tFjF6jQWiF6PeIhuzNWVcYcHbc8r+U69uvbTXjs8onFstYvTqhTBmKka9RTaqt7RbYcHbc8r+U67uN2jXDgDOsI2AOhSq7eoAQiB/LkRERERExDoEAI+wjYBIlJKAmdgUzKOEtcgh50B9HiVEJTUYtFR3BFKDaFTNo5QfskO3YSNDSWwjIBKlJGA/Klo86w3rMLJD7rX92/VGZ7b77vqz3hCVkdVgdbarLze2++5UdwRSg7Xbrr7c2O67q2e9HTlgh+7DRoaS2B4qJEpJwH5UkChhLUZzyP1///DfNp8284Z3HKu/5Mx1R7/te5cu1MemXHNigdHUYHVS3Vip1GCN+lzdJErOYCNDSWwPFRKlJOAuRwWJEtZiBHf7y/HodW99a3aizVoU3/3G49554zvfnhubcs2JBUZQg9VJdaMDqcFa9L+6SZScwfUglMS2HkmUIC2YRwnR1tx41IdRqTQ3NmWmFURbqW7EWA2luplHCcA3bCMgEiVIkPxJDhF1f/W/d+z79ur/+ofTr3vLW7LjUelzO1p1mftJbnjn22849pjvLDjtx3+59lcvj+q/CCLmpLoRYzXM6n45P1QHgPqwjYBIlCBB8mdfRNT9X3derg9GPfd/bbhC/0UQMSfVjRirYVb3hvxQHQDqwzYCIlGCBMmffRFR91cvj/74r67bMv+j1x/9trVH3jYvfG70jrrM/hjrjn7b+t//1zf+1jtGzjlD/LTcxYBYRqobMVbDrG7uUQLwCNsIiEQpCfhwsoJ5lLAWgz7kXtu/fdtFZ19/7DHXHXWUGg7q3Zwpf4Drjzl66MMn3vyu337kS59hphXsaNA1WJ1UNzqTGnRsKNXNPErOYCNDSWwjIBKlJGA/Klo86w3rMIJDLjc21Ts4U3z33HhUytOgsMAIarA6qW50IDVYi/5XN896cwYbGUpie6iQKCUB+1FBooS1GM0hJ8emN7zjWP0lZ97w9mNy41Ep15xYYDQ1WJ1UN1YqNVijPlc3iZIz2MhQEttDhUQpCbjLUUGihLUY2d3++ojQpe2+O9ecWGBkNVid7erLje2+O9UdgdRg7barLze2++4kSs7gehBKYluPJEqQFsyjhBirzLSCGKtUN2KsMo8SgG/YRkAkSpAg+ZMZIiIiIiLWIQB4hG0ERKIECaKfyRARERER0b0A4BG2ERCJEiSIfiZDRERERET3AoBH2EZAJEpJwIeTFcyjhLXIIedAZlrBAqnBoKW6I5AaRKPMo+QMNjKUxDYCIlFKgjL78dEfP7rjRztCV/wW+V/sSFrlnvX26I/v3PGjFmK37L/uAr0RrRRVqZdq1pJPg6K605Qa9FmqOwWpwTTtWN2tcs96e+Tp0e1PPYxT8co7vq43IkpfPPiSKreO9ZiDRCkJOu7HS4e/OO3PpsXh8k3L879ehjKJ0vJ7+/TVImLtLt/0Gb1glWWuOS+9Z7G+WkSs3S5U96bz9NUiYu0WV3eZROnzQ5foq0XELrr9qYdVxRXXow6JUhIU3+Uo46QldzQ373wgdC9c35xWGCp1TJRknHTJrdN2bEdEj7zkm+8Yr+62A9OO15wyTjr/qkuGb9+BiP54wTUXT7W6x+Ok84c/MfyjVYjojxcMzy2u7o6JkoyT4rhOQfTW/S/9XBVdQT0aIVFKHRknLV1/8XPPvRyHF234QkGoVDyPkoyTlt82bez/QUTvXH77OwsGpsUzrcg46cKvL3/m22OI6JtL/2LZ5Kt7PE66cNO8Z8a+jYi+uXTT/ILqLp5HScZJMV2nIPrpr371z6rubCMgEqWkiS9OkhaHSvrJTEqchOi/xaFSO4mTEP23OFRqJ3ESov8Wh0r5cfoExEmIziRRgskQa5wkLQyV9DMZcRJiMNqGSsRJiKFoGyoRJyGGYmGoZIA4CdGlJEpgTdxxkrR9qJQ/kxEnIYZl+VCJOAkxLMuHSsRJiGHZPlTKQ5yE6FgSJehA7sPJKcRJUj1U0udRIk5CDFE9VNJnWiFOQgxRPVQyVDdxEmKA6qGSPo8ScRKie0mUoAPZ/ZhOnCTNhUqtI5/1RpyEGK65UCn3NCjiJMRwzYVK+eomTkIM1lyolHvWG3ESYi2SKEEH1H5MLU6SZkOlbKJEnIT3Df7Lnzz89jKN6KfZUCl7zUmchLd/7b7vf/Mn6p9/+61Xr+8fkm5Zs0vvj76ZDZWOqG7ipOS9/b6vff8n31T//NtXv3X9UL90y641en/0zWyolE2UiJMQ65JECTogbyVNM06SqlBJJUrESSjs+8QHH7zrd7Itf/vAb51x6odzjeizKlRS15zESSice1rfPVc+qP65+out0z728cVnN4XzP352NmxCb1Wh0pvVTZyEY9+e23faPQ9eqf65uvXF0z7+scXNs4Xzz/54NmxCb1WhkkqUiJMQa5RECTqTcpwklaHShWsvFKeuC9ecSZwUlmu+8t7LPv++obW/K/zsp9//w//2zrEjbyZSy+16fv/ed8vGXZv/hVptLlH6u4feseS86SfP/EMSpbCUodK5l80VF5yfXjGPOCks//yiNV9YdJm8e+iceZ/dftMPnznyDiO13K7n5mu+r998lEuUsv/MvYQ+K0OlN6r7ssPnbuKkgPzzNRd94bJF8u6hcz47b/sPb3rmyDuM1HK7npu/f41+81EuUcr+M/cS+qwMlS5c+ylxvfmn3zg/8esUxHolUYIOECdJZag06+r3EScFZ89H/tPh/6D+7IlCsSATn2wepJbb9Tzr4x8871Mnicaz5/2Hnzz89n/ceYx46YxTP7z2a+99bNO75Ep2bf4XV3zxBP3GJfRfGSp95Ko/JE4Kzo+c3CNKVd49JBZk1mMMgNr1nNN71tmfOE/dfPT4+n8UL5360TNWNtfet/oxuZIlCy4Wy9+/7RnxknovBqEMlT7yF/+BOCk4P9Jz8uGaHb976HDdjWc9xgCoXc85Z/Wefd4n1M1Hj//jevHSqWd8dOXa5n2PrZYrWXLxgtZf/rloF6r3YhDKUGnBLYfvPeQ6BbFGSZSgiO/84Dviz/QHVn5QP3QS9PcuO0Fsjf/41fzlKHpu3yc+uPZr733wrt+RMZDKiS760xN/8vDb7xv8l9nwyNjznE9+YP9fHyOXReP37v4dsXDyzD8UfS4+/8Tc9yJRCtF/++VjRXWf9KX/qF+Ros/OPa1vZXPtPVc+KGMglRMt/tRF3//mT27/2n3Z8MjY84/PPOfJDfvlsmgcvvp7YmHmzJNFnyULLlbf6H9sOLDokxeKl1ZcsOrpe3+p/yTorb+3/PC5+6QrT9CvSNFn5/adtnJtU2Y9p57xUZUTLb7oU9//yTdvv+9r2fDI2POPzznzyf0b5LJoHP7e1WJh5skzRZ8lFy9Q3+iv/uZa0S78k4Vzn/inO/WfBL314+tO5zoFsXZJlKADX/y/uUfpsPIepY9c/fvcoxScfZ/44Bmnflh8le4cPnxX0c++f+ypHzucGYmWDat/97UfHNWuZzYkarec/V56I3ru8tZxoq5PvurD3KMUnHNP6zv1o2eIr9JvX7NTND5+x89mn3LqPVc+KFrWfmnDD7/1WrueMkVSqzIuC5++95dfXnLlGbPP1H8A9Nylqw/fo3TyNR/gHqXgnNt32qlnfFRmPcJv77xGND7+sztmn3rKPQ9eKVrWbvjSD1/7VrueMkVSqzIu69+x3UvooUs3HZ7V9E9uOZfrFMR6JVGCDuzevZtQ6ch5lOYSKoVlNuXZOfyuf3rs8N1Gwo+f9uGv/p//Vt2g1K5nuxTJGB4ZG9FnZZz0xkwr/WcRKoVlNvr59jU7n7jzn+TyaR/7+LLPfjX7CTVjz3YpUi5RWvrpS8Sq5K1MGJAyTpqYR+kThEphmc13vr3zGnX30Gkf/9iyr342+wk1Y892KVIuNspOzESiFJAyTmIeJUQfJFGCDsj9mHKoZHjW2/CnCJUCcvE502+96l899cBvCc+e9wF555HwyfuOEzv06i//G3mDUrue7VKkM0//0Lo/f+++be+Q//zfT75NvEs03vkXx6tG9FwZJx3xNKhvfZZQKSDPnbf4G5fcuu3Gp4Tzzzhb3nkkHFn7pNih/+VzV8sblNr1bJcinTH7zCs+v+57g/vUS2uX3ynfK/yf//Xl3I+BHirjpCOf9baQUCkgz1087xu3XrLtqRuF888+Q955JBx5cu3h6r76c/IGpXY926VIZ5w5+4p1n//evsHsP+V7mUcpFGWcxLPeED2RRAk6oPZjmqGSipPkppCJ0tjYbkKlgHz+0WMaE1zzf/1ern1o7e8W92yXKMnOC/o+IP95/x3/h3qvakSfVXGSqGh1zSmWCZUC8m/WP6/q7itLr8m1X98/VNyzXaIkO39yzgL1knpvg5m5Q1DFSfnqJlQKx795fr0quq9cszTXfv1Qf3HPdomS7PzJBXPkP+8Zn5BbsmDR3B+8NKRWi36q4iRR0SpREqN0QiXEuiRRgg7s3r1bLacWKmXjpLEjEyVCJcSgzcZJuWtOQiXEoM3GSYbqJlRCDNZsnJRLlMYIlRBrkkQJ7EgnVMrFSWPj4Zo4de3ePSxPY4RKiIGai5OEw8NrxAWn+KpaCJUQQzQXJ5mrm1AJMUBzcdLY4YH5sLjezP7nN6ESontJlMCaFEIlPU6a4I1zmJJQCTEs9TipnYRKiGGpx0ntJFRCDEs9TpowD6ESomNJlGAyxB0qtY+TxrTT2GEJlRBDsXycJCVUQgzF8nHSG9VNqIQYiO3jpN35cfo4hEqILiVRgkkSa6hUGCeNaaexNyRUQvRf2zhJSqiE6L+2cdIb1U2ohOi9hXHS7vw4fQJCJURnkihBB7IfTs4RX6hUHCfp8yhlJVRC9NniOEmfaSUroRKizxbHSR2qm1AJ0WOL4yR9HqUshEqIbiRRgg4U70cZKi25o7l55wOhe+H6ZkGcNKY9601XhkqX3Dptx3ZE9MhLbv/tgiHpmPY0KF0ZKp1/1SXDt+9ARH9c8hcXT7W6x0Ol84c/MfyjVYjoj0uGzyqu7tyz3nRkqBTHdQqit+5/6eeq6Arq0QiJUhJ03I8yVIrDgjhprESiNDYRKiGibxYMScdKXHOOTYRKiOibXaju8VAJEX2zuLo7JkpjE6ESIlbn9qceVhVXXI86JEpJ0O5W0iyP/vjRHT/aEbrit8j/YkdSJlESPvrjO3f8qIXYLVvfXak3opWiKvVSzVrmmnOM6k5VatBnqe4UpAbTtGN1t0okSoJHnh4VV7w4FTdsHdIbEaUvHnxJlVvHesxBogRpUTyPEiKGa/FMK4gYrlQ3YqwWz6MEAO6xjYBIlCBB8iczRERERESsQwDwCNsIiEQJEkQ/kyEiIiIionsBwCNsIyASJUgQ/UyGiIiIiIjuBQCPsI2ASJSSgA8nK5hHCWuRQ86BzLSCBVKDQUt1RyA1iEaZR8kZbGQoiW0ERKKUBOxHRavcs94QuyuHnANLPg0K05QaDFqqOwKpQTRa8llvMHXYyFAS20OFRCkJ2I8KEiWsRQ45B3LNiQVSg0FLdUcgNYhGSZScwUaGktgeKiRKScBdjgoSJaxF7vZ3INecWCA1GLRUdwRSg2iURMkZXA9CSWzrsUOitGLFihZARAwMDIgh6cDAJeIEhogxuWzZ+fPnzxFf9ZcQMWipbsRYFWPyZrMpxuf5ITsA1ER/f38+FSqkQ6LUsgyoAEIg/98jiIiIiIhYhwDgEbYREIkSJIh+JkNERERERPcCgEfYRkAkSpAg+pkMERERERHdCwAeYRsBkSglATOxKcSmaLVWMT0kOpZDzoHDw2uazUXiq/4SIjUYtFR3BFKDaFQcGOJ6k0sVB7CRoSS2ERCJUhKwHxUtnvWGdcgh50CeBoUFUoNBS3VHIDWIRls8680VbGQoie2hQqKUBOxHBYkS1iKHnAO55sQCqcGgpbojkBpEoyRKzmAjQ0lsDxUSpSTgLkcFiZKPvu+MN9VfjULu9ncg15xYoBc1mMDfuoqkuiPQixq0MluwlG1lkig5g+tBKIltPZIoQVowj5KPMlzDbshMK+i7/K2brFQ31iCJkhOZRwnAN2wjIBIlSJD8yQxrluEaIqYgf+sQA5JEyZ0A4BG2ERCJEiSIfibDWmW4hogpyN86xIAkUXInAHiEbQRknSgNDg6um2Dbtm25VwFCQD+TYa0yXEPEFORvHWJAkii5EwA8Qo+AirFOlHrH6Rvn3HPP3bVrV64DeAgfTlYwj5KPJjBc45BzIDOtYIFe1GACf+sqkuqOQC9q0EoSJScyj5Iz2MhQEj0CKmYyiZJqVMuDg4P33ntv7salQ4cO6XczlW+ELqLvx2Rp8aw3D61suPbiizuMy+7lkHMgT4PCAr2owQT+1lUk1R2BXtSglZUlStEXrJU8680ZbGQoie2h0p1ESSw0xunr6xNf5Y1Ll19+uWyRjaOjo6JxzZo12UbZ09gIXUTfj8lCouSjmeGaGFqJawapGmZlryLUsur51a/+53YtCxbMU2sTy7lu2W9hbOyiHHIObHLNie31ogYT+FtXkU2qO3y9qEErtUQpVzjZA1It6+Wpt0RfsFaSKDmDjQwlsT1UJpMoNZvN1jii/jdv3iwbBXv27JHLKmYyZk+qceHChcPDw+0aoYtwl6OCRMlHjxyuqfZ16/6LXDAO2rJjtaGhbxhbjG/s+C1UYxcN727/AG1yzYnt9aIGE/hbV5FUdwR6UYNWaomSbDdWEwU7aUmUnMH1IJTEth4nkyj19PTICGn16tWqUfVcvHixiplU9iTeIjucd955p59+umi/5ZZb5F1L7RoBqoB5lHw0M1zbt++vxPjp/vtvyXboOPZq15L9b0D1qvFbGBsxLJlpBX2Xv3WTlerGGtQSJQq2CplHCcA39AiomMkkSuUbVfYkGBoaEo2vvvpq7/hH5GbMmCG+7t27t10jQGXkT2ZYs9p/AIrBkxhCLVz4x/Kfkx606S3K3LcoaERE7I78rUMMSFOiRMFWIwB4hB7sFFNtoqQah4aG5Gfi1EK2g7ERoDL0MxnWama4lr2pW90orsZet912uZpxQL+NvKBlLHO7uPFbGBsREbspf+sQA1JLlGQ7BVuBAOARtmlMhYnSnHGGx5k9e7a8Rynb2Gg0ChoBKkM/k2GtZoZrxkkoVePevZvVAE41Zsdq7VqMa+vYiIjYTflbhxiQWqLUrpoo2CkLAB6hBzvFVJgoHTx4sDHBwMCAbSN0ET6crGAeJR/V/gMwPjnkHMhMK1igFzWYwN+6iqS6I9CLGrRSS5TyHbAbMo+SM9jIUBI92CnGOlGC8NDPiAnbOumURqMhvuovIWLQNj/0R6K6xVf9JUQMWqobMVYZmSP64gS2ERCJUgLoh0vCct5CjFWuORFjlepGjFVG5oi+OIFtBESilAD64ZKwnLcQY5VrTsRYpboRY5WROaIvTmAbAZEoQVowjxJirDLTCmKsUt2Isco8SgC+YRsBkShBguRPZoiIiIiIWIcA4BG2ERCJEiSIfiZDRERERET3AoBH2EZAJEqQIPqZDBERERER3QsAHmEbAZEoJQEfTlYwjxLWIoecA5lpBQukBoOW6o5AahCNMo+SM9jIUBLbCIhEKQnYjwqxKQ4/UaK1Sj+lIVYnh5wDxQXn4adBNRfpLyFSg0FLdUcgNYhGxYExPjLnUqVy2MhQEttDpUOitGLFihaET7PZzDelitgUclQqTmCIzuSQc+D8+XNEdYuv+kuI1GDQUt0RSA2i0Ym8mEuVymEjQ0n6+/vzqVAhHRKllmVABX7CXY6KFvcoYR1yt78DuYsBC6QGg5bqjkBqEI22uEfJFVwPQkls65FECdKCeZQQY5WZVhBjlepGjFXmUQLwDdsIiEQJEiR/MkNERERExDoEAI+wjYBIlCBB9DMZIiIiImJVbupt6I04LgB4hG0ERKIECaKfyRARERERq5JEqb0A4BG2ERCJUhLw4WQF8yhhLXLIOZCZVrBAajBoqe4I9LAGN0w/YVNvQykbs7mPWpY9X9g7LL6+tn97u/fqis6yw88e21D8LVQf9S0SkXmUnMFGhpLYRkAkSknAflS0eNYb1iGHnAN5GhQWSA0GLdUdgR7WYLtkp12j/lV/S877F86RC4+uXLph+gl6f7UsXhV99A7Ry7PenMFGhpLYHiokSknAflSQKGEtcsg5kGtOLJAaDFqqOwI9rEFjslPQqH/V35LT2K1j49bz56nl6CVRcgYbGUpie6iQKCUBdzkqSJSwFj282z8+uebEAqnBoKW6I9DDGuyY7NSVKCUliZIzuB6EktjWI4kSpAXzKCHGKjOtIMYq1Y1VmP2gmfp4mkp29M+pZb8a36tb/Kk3Y2NqMo8SgG/YRkAkSpAg+ZMZIiIiIiblJtNk2AVzaee+6u/VNa7N2KgWkhQAPMI2AiJRggTRz2SIiIiImJBTCXHke1//9ZOqRT4J7rCzOzwADjUBwCNsIyASJUgQ/UyGiIiIiFjKl58Z2fa5Tz5+9Rf0l0SjeEl00F/CNgKAR9hGQCRKScCHkxXMo4S1yCHnQGZawQKpwaCluiMwmhqUWdK6tx21dtq0vx5o6h1Eo3hJdCBXKiPzKDmDjQwlsY2ASJSSgP2oaPGsN6xDDjkH8jQoLJAaDFqqOwIjqMFsliQtSJSk5Eod5VlvzmAjQ0lsDxUSpSRgPypIlLAWOeQcyDUnFkgNBi3VHYFB16CeJZVMlMiVOkqi5Aw2MpTE9lAhUUoC7nJUkChhLUZzt7/Pcs2JBVKDQUt1R2CgNfjCD4a3zD3luqPemguJpFuX9D23o5VTNOo9hWIlYlUv7A1yO1QniZIzuB6EktjWI4kSpAXzKCHGKjOtIMYq1Y21+OxDt11/7NF6NjQVxQrFavXvlazMowTgG7YRUDCJ0uDg4K5du7Ithw4dWrdu3Q9/+MNsYxXcfffd27Zty7dCwORPZoiIiIiIOV/YO7zlrFOuk593e8tbcvHQ4XuURu/IabhHafyNYiX/f3t30BpFmsdxPIfdFzFvwDfQyaEDkj4NiMllPQnKNEtocEFxxlHwoOawgiirCAqTwya5KHjwEAURRjG3xWW8Cp59AXvQ47Lus13OQ28/lbYrSVVXVX++fGkqTz15ui3rn+r+8dTTYShzlPIEUCOKRkCFE6UHDx78bYSxlKc8er3e2Iu5e/duaHz9+vVoYxlcuHCh0+lU9i9F+aRXMpIkSTLHr+so/fEPY7nSt9dRGnYOv2gdpYkCqBFpBDSZwolSb8jakKWlpbRDSaSJUtpSHlU+F8onvZKRJEmS+/p/udJ0iZIsaToB1IiiucdBEqXYGLezG9Ay4g1i6X1qWct+nR89ejTWGHtubW2NZTqh/4kTJ548eTLako4w+hridpxmtbu7O9o/d4SMs2fPHj9+vLnTlNycHLGOEmeiU64CrbTCCarBRqu6W2BranA0V5qQKMmSptQ6SpXhIGNK0ghoMkeTKF27dq3T6WQTl8LG3t7e6N4Y5WQtDx8+HO387t27bFdnSNaY9Y89w2O32x19MemkodCyuLgY+8dh01fbGxK6nTx5cvQZc0cYHT89Gk2hua/8yNn0XW+chU65CvRtUJygGmy0qrsFtqwGs1zpH3/9S7orNMqSptd3vVWGg4wpKXqqHCRRGgwGm0NC/V+5ciVrzA1ucjdWV1d3dnbSzoGxGChuXL58eXFxcfTFpPlOaOl2u2/fvh3dW+iF5Y4QSVsaRHNf+ZGzKVHiLHTKVaDPnJygGmy0qrsFtrIG//Pvf07ZyP2UKFWGg4wpKXqqHCRR6na7vd+nFF29ejVrjDFTnEy0X3Czvb197ty5/Tp/Gd5ilt3OlpsH5f441pI+dW7j2EZu50ja0iDMcoxsSpQ4C1sz27/O+szJCarBRqu6W2DjavDer5dWbnf6W2s3dgdH6w9bq2Hk+69+Tp90DpUoVYbPg5iSovV4kEQpazxz5kxcmbv3e8yUkU1B2i+4ye4sy3rGmUexzyijjWMd0v65nSc3jm3kdo6kLWgi1lEi26qVVsi2qrpZvSu3OwvrC+XZu9NJn3QOtY4SUDeKhh4HT5RGt0cbd3Z29rt5bSy4efHiRe4cpUhuz7jr4sWL79+/H20ZDAYfP34c/cW48ebNm+Xl5dzXEzdyR8jY3d0Vn7eI8YsZSZIkGe1vrWW5z8azwdEaxgwj97fX0iedVwHUiKKhx9EkSt8PeTxkZWUlm6O0vLwcOoSWTqdz/vz5bCP0j53Dj5PnKOX2jIz9SvhxaWnp5s2bWf/0NcRIaEKilI4QB09fHhpLeiUjSZIkv3pjd7CwvrDxLOfb3A5peSM3VgA1omjucTSJ0qdPn7LIJrCxsZHtjY2XLl0a3RXbT506lYY7o+T2jHS73bDrw4cP2Y+hQ7/fH32iL/uMsN9G7giBp0+fdkxQahXplYwkSZL8anm5T3kjN1YANaJo7lE4UaoPnz9/7vV6L1++zH5MI6ei7DfC+vr6rVu3xlsbhZuTI9ZR4kx0ylWglVY4QTXYaFV3C2xcDZaX+5Q3chO1jlJlOMiYktxIZAINTpTG2C8Pmp7Dj1Bb2vrvOgCbvuuNs9ApV4G+DYoTVIONVnW3wMbVYHm5T3kjN1Hf9VYZDjKmpOip0p5ECRPw/xiRKHEmOuUq0GdOTlANNlrV3QIbV4Pl5T7ljdxEJUqV4SBjSoqeKhKlucAsx4hEiTOxcbP9m6jPnJygGmy0qrsFNq4Gy8t9yhu5iUqUKsPnQUxJ0XqUKGG+sI4S2VattEK2VdXN6i0v9ylv5CZqHSWgbhSNgCRKmEPGL2YkSZJktLzcp7yRGyuAGlE0ApIoYQ5Jr2QkSZLkV8vLfcobubECqBFFIyCJEuaQ9EpGkiRJfrW83Ke8kRsrgBpRNAKSKM0Fbk6OWEeJM9EpV4FWWuEE1WCjVd0tsHE1WF7uU97ITdQ6SpXhIGNKikZAEqX2c+/Xe8d+PNbf6t/YvcHTP/3v+2JO/7QaLuesiT9sra7c7vS31tJdh7S8kYu6en0lbeTR+v2fVkJ1h8d0F1mHGizvL1J5I9dE1d0C61CDhQw1tbC+0N9eS0OQQxoKNozcu9NJn3QODe/Jh+/MT6dv2nm0rl5fTRvJzL0PezE9KBoBSZTaz8rtlXDdYuZ3J78L163wmO4i2WiPrRwL1R0e010kG63q5qzs3emkkdAhzbIqZnpnTtbBjWcbMT0oGgFJlNrP/Vf3O9c7/e1+OFEY5yhtPBuwJva318I7tvCY7jqk5Y1c1MEvp9JGHq1xFkO6i6xDDZb3F6m8kWui6m6BdajBQmZldf/Vz2kkdEjDmO0u2ELGOUrpm3YerYNfBmkjmWmOEjAt1lEi26qVVsi2qrrJtmodJaBuFI2AJEqYQ8YvZiRJkiRnIYAaUTQCkihhDkmvZCRJkiSrF0CNKBoBSZQwh6RXMpIkSZLVC6BGFI2AJEpzgZuTI9ZR4kx0ylWglVY4QTXYaFV3C1SDzNU6SpXhIGNKikZAEqW5wP9jJByKTqezuXkjvaSR5emUq8DwgTNUd3hMd5FqsNGq7haoBplrODGG78x9VCkdBxlTUvRU+Uai9Pz58/EmNBCZdGQ4R+n+b7/tffnyL7IynXIV+Pjx3weDP4fHdBepBhut6m6BapC5hhPDHKVqcJAxJUUjoG8kSgAAAAAAAMAYEiUAAAAAAAAUQ6IEAAAAAACAYkiUAAAAAAAAUAyJEgAAAAAAAIohUQIAAAAAAEAxJEoAAAAAAAAohkQJAAAAAAAAxZAoAQAAAAAAoBgSJQAAAAAAABTjv7D18E/KUKiPAAAAAElFTkSuQmCC;" parent="1" vertex="1">
            <mxGeometry x="-80" y="200" width="1563" height="447" as="geometry" />
          </mxCell>
        </UserObject>
        <mxCell id="i6j7QwNUQumE6ex7yG9b-2" value="&lt;i&gt;&lt;font face=&quot;Consolas&quot; color=&quot;#ff0000&quot;&gt;1.&lt;/font&gt;&lt;font face=&quot;Consolas&quot;&gt;&lt;font style=&quot;color: rgb(0, 0, 0);&quot;&gt;if press fail happened(no press during this event&#39;s correct lever window),we need to &lt;b&gt;&lt;u&gt;terminate this trial immediately&lt;/u&gt;&lt;/b&gt;&lt;/font&gt;&lt;br&gt;&lt;/font&gt;&lt;/i&gt;&lt;div&gt;&lt;br&gt;&lt;/div&gt;&lt;div&gt;&lt;i&gt;&lt;font face=&quot;Consolas&quot;&gt;2.&lt;/font&gt;&lt;font face=&quot;Consolas&quot;&gt;&lt;font style=&quot;color: rgb(0, 0, 0);&quot;&gt;We only give one Reward in a trial, so the time of interval （in the diagram above） must be longer than the reward, to prevent the case that the next trial is begin, but object still taste the reward&lt;/font&gt;&lt;/font&gt;&lt;/i&gt;&lt;/div&gt;&lt;div&gt;&lt;i&gt;&lt;font face=&quot;Consolas&quot;&gt;&lt;font style=&quot;color: rgb(0, 0, 0);&quot;&gt;&lt;br&gt;&lt;/font&gt;&lt;/font&gt;&lt;/i&gt;&lt;/div&gt;&lt;div&gt;&lt;i&gt;&lt;font face=&quot;Consolas&quot;&gt;3.&lt;/font&gt;&lt;font face=&quot;Consolas&quot;&gt;&lt;font style=&quot;color: rgb(0, 0, 0);&quot;&gt;How to tackle repeating or multi times pressing the lever?&lt;/font&gt;&lt;/font&gt;&lt;/i&gt;&lt;/div&gt;&lt;div&gt;&lt;i&gt;&lt;font face=&quot;Consolas&quot;&gt;&lt;font style=&quot;color: rgb(0, 0, 0);&quot;&gt;&lt;br&gt;&lt;/font&gt;&lt;/font&gt;&lt;/i&gt;&lt;/div&gt;&lt;div&gt;&lt;i&gt;&lt;font style=&quot;color: rgb(255, 0, 0);&quot; face=&quot;Consolas&quot;&gt;4.What data do we need to record?&lt;/font&gt;&lt;/i&gt;&lt;/div&gt;" style="text;html=1;align=left;verticalAlign=middle;whiteSpace=wrap;rounded=0;" parent="1" vertex="1">
          <mxGeometry x="-80" y="720" width="590" height="150" as="geometry" />
        </mxCell>
        <UserObject label="" plantUmlData="{&quot;data&quot;:&quot;@startuml\n\n\nhide time-axis \nscale 100 as 300 pixels\n&lt;style&gt;\ntimingDiagram{\n    .deeppink{\n        Linecolor #FF1493\n        LineThickness 5\n    }\n    .blue{\n        Linecolor blue\n        LineThickness 5    \n    }\n    .olive{\n        Linecolor #556B2F\n        LineThickness 5\n    }\n}\n&lt;/style&gt;\n\nbinary  \&quot;PreTime\&quot;  as PRE\nbinary  \&quot;PostTime\&quot;  as PST\nbinary  \&quot;LED1\&quot;  as L1&lt;&lt;blue&gt;&gt;\nbinary  \&quot;LED2\&quot;  as L2&lt;&lt;blue&gt;&gt;\nbinary  \&quot;Lever1\&quot;  as PS &lt;&lt;deeppink&gt;&gt;\nbinary  \&quot;Lever2\&quot;  as PS2 &lt;&lt;deeppink&gt;&gt;\nconcise \&quot;Status\&quot; as STA &lt;&lt;olive&gt;&gt;\nbinary  \&quot;Reward(pump)\&quot; as RW\nconcise \&quot;trial\&quot;  as TR  &lt;&lt;olive&gt;&gt;\n\n\n\n@TR\n-10 is {-}\n0   is trial1\n300 is trial2\n\n\n@PRE\n&#39;30ms dur\n-10 is 0\n0   is 1\n30  is 0\n\n90  is 1\n120 is 0\n\n180 is 1\n210 is 0\nPRE@0&lt;-&gt;@30:pre_dur\nPRE@90&lt;-&gt;@120:pre_dur\nPRE@180&lt;-&gt;@210:pre_dur\n\n@PST\n&#39;70ms dur\n-10 is 0\n30  is 1\n100 is 0\n\n120 is 1\n190 is 0\n\nPST@30&lt;-&gt;@100:post_dur\nPST@120&lt;-&gt;@190:post_dur\n\n@L1\n&#39;50ms dur, but turn off immediately at lever press\n-10 is 0\n30  is 1\n50  is 0\n\n120 is 1\n170 is 0\nL1@30&lt;-&gt;@80:\\n        led_dur\nL1@120&lt;-&gt;@170:\\n        led_dur\n\n@PS\n-10 is 0\n49.8  is 1:\\n press\n50  is 0\n\n179.8 is 1:\\n press\n180 is 0\n@PS2\n-10 is 0\n199.8 is 1:\\n  press\n200 is 0\n\nhighlight 49.8  to 50\nhighlight 179.8  to 180\nhighlight 199.8  to 200\n\n@STA\n-10 is {-}\n0   is event1 \t#FFFFE0\n50  is {-}:\\n use same lever with 1\n90  is event2 \t#E1FFFF\n180 is event3   #FA8072:\\n use different lever with 2\n200 is {-}\n\nSTA@50&lt;-&gt;@90:&lt;size:18&gt;      interval&lt;/size&gt;\\n     (using same lever)\nhighlight 250  to 300:&lt;size:18&gt;           ITI &lt;/size&gt;\n@L2\n-10 is 0\n200 is 0:\\n &lt;color:red&gt;LED not active \\n &lt;color:red&gt;if press during pre \n\n\n@RW\n-10 is 0\n200 is 1\n250 is 0\nRW@200&lt;-&gt;@250:pump_dur\n@enduml\n\n\n\n&quot;,&quot;format&quot;:&quot;png&quot;}" id="i6j7QwNUQumE6ex7yG9b-3">
          <mxCell style="shape=image;noLabel=1;verticalAlign=top;aspect=fixed;imageAspect=0;image=data:image/png,iVBORw0KGgoAAAANSUhEUgAABU8AAAH7CAIAAABzLflEAAAAKnRFWHRjb3B5bGVmdABHZW5lcmF0ZWQgYnkgaHR0cHM6Ly9wbGFudHVtbC5jb212zsofAAADfmlUWHRwbGFudHVtbAABAAAAeJztVltv2zYUfh5/xUHykASYM5K24gsEQ+liF80cLLDV9mXAwFi0TVSiDJJymxX57zvUxZZbD3srhiECDFvfOec7V/I4sk4YV2Qp2ahEglOZ7IgvygKxS5FKYJSCsNDFr636IlNLQuueUzkmqKr0+k6JtRHZVwL4XCdSbrdKf6pe/TNTWi7zNDdwPp2y3rB7JIk3avlJS2shKPGXiuYpLeQpCo//k72H2hx5qnYnSc6D4OYNn/5LHC8k/KVOlDwpLcwzwNmjkTEW6Ax8SR7nk5Ykt64lWsQH0Wxyxyp4xsLQpzAeH0l5LeUnpHInDWtIIQybAn+nxBslfqy1zPVSWQlnCydcYc+80iK+RaWyQG2eufwsTHK5LbLtVak3/3gwd0aJtPIRz6Fljk8Uz0mHUcCp+dp5IRQLiD9LC0b85DRv3Cv7ul10aWYhKUxjRxsrbwAVQoa0hhivlQgb0ArijR3SRTTsjKMuHW2N/NOTemxYgmh5hKK9h9F6D2NE2K6L/ncRdffu6d49r92zYQOhMboufVEkxTmonCGM2iU+bOEkmjFyEdTOfoanwoErjIZ8tQKVZTJRwsn0GYSD1DcWME5rT0QV7Ot0iKpfK81YHdOAjv7QzaSnMiljQGkTWv+U3Ffk4LA3vB5ULr1qFU3Ld9+Lj6V1k6jn4QciNmyr1rp8X9uNWm9S/DioPLocAtpCK08eRv42Pmxw5MLYcbpPTCOWUjsGP+EtNJ1OaJMBavhgChxxKzJZl/yzchssZz1/pSlH0wnzxk16JdxF9vPp7YD2ecOTqNVKGpS1yXiTqA+JYIhRUDYARyO06i85YoNx1QSlnTQ7keL1g/i47s5lYfGybcV41aoA98lg/njUvmUrn3fxO6jpcPxaHWmK70MPy9txZGQyxjsJdO5ALB2ecTgWqlXVOT++PiR8AX+s8bL4lhdPaVAj848RguXRC/A04BVTTlokdeJ3D4le19DrGvrha+i/snx+wMp53R+v++N/vD8eU6Hd+4cZYGpW5RrYNae8d927XOAfqdutAXoDrDfqdkc47G8fYvDiK3IvdgLmhfYLZwS/b6W+v/utAWCid8rkOsNmkPsPDweFm17njXKwwEpjhz48kDu5EkXq0GKZJ5jWCN7H086AzIReF2KN3FKTX3PkNc8oW5C/AeTGt/iNqMOaAAB6yklEQVR4Xuzdf7TdVX3n/6viMM6qa5xZ/WNYa/5grc5Uvmu1Tm2AkrSaSyH8TKyYxgRLwo3IRVqDkBSdaEhSixoMMReJ1mv4cb92wSKrRE1pYxCQiGn8imQMRV2mIxQY5JdjxQFkYsH73dxNPnzue+/zOZ99zue9P3uf83ysvbI+d5/P+Zyd/Tl73/3KOZ9PRqYBAAAAAMBgGZEVAAAAAAAgc6R9AAAAAAAGDWkfAAAAAIBBQ9oHAAAAAGDQkPYBAAAAABg0pH0AAAAAAAYNaR8AAAAAgEFD2gcAAAAAYNCQ9gEAAAAAGDRd0v7HPvaxSXSzYcMGWYWht3HjxqVLl5577rlmQz6GpjEGgWraM5LGGNRuMyIw527lypVr166dgDKlTjaHHR8fZwwCXWn8HvT6y7/8S5nYK3VJ++aIsgoOegku866YM4O3RwR0MlBNe0bSOKx2mxGBPYkmNP4LlCl1sjksYxCoI9owCX0h0n4D6CW4WKfGRCcD1bRnJI3DarcZEZD2o1HqZNI+UFO0YRL6QqT9Btx3332yCkOPdWpMjEGgmvaMpDEGtduMCEj70dx9992yqgmkfaAmjd+DXqHjkbQPqDBjft26dRs2bIg2+AGgkxxnpBzbDMGcOxMXlYIoIjDnzmQBxiCQjtB4TtoHtDz//POyCgBakuOMlGObIcj4iNzIMwqgVaHxnLQPaGGdCiAdOc5IObYZgsyOyI08owBaFRrPSfuAFtapANKR44yUY5shyOyI3MgzCqBVofGctN8ALmeCiytOY6KTgWraM5LGYbXbjAi4br9nI45O9ZbtZFl75Fk947p9oKZowyQ0npP2G0AvwTXJ3aQjopOBatozksZhtduMCOxJ5J78Pbj//vu/8pWvHH300fcfUdRb4lHbyW79rIOG4578QE3RhknoC5H2G0AvwcU6NSY6GaimPSNpHFa7zYiAtN+Pe++91+R2WXuEeLTo5OpnhSLtAzVFGyahL0Tab0C0b24gI6xTY2IMAtW0ZySNMajdZkRA2u9HdW4XjxaXS1Q/KxRpH6hJ4/egV+h4JO0DKrjiFEA6cpyRcmwzBK7b70d1bu/0aKf63nDdPpCa0HhO2ge0cDdpAOnIcUbKsc0QZHxEbdW5vdOjnep7Js8ogFaFxnPSPqCFdSqAdOQ4I+XYZggyO6K26tze6dFO9T2TZxRAq0LjOWkf0MI6FUA6cpyRcmwzBJkdUVt1bu/0aKf6nskzCqBVofGctN8ALmeCiytOY6KTgWraM5LGYbXbjAi4br8f1bk9zl36uG4fqCnaMAmN56T9BtBLcE1yN+mI6GSgmvaMpHFY7TYjAnsSuSd/D+6///6vfOUrJrfff4TYQaR628ldnxWKe/IDNUUbJqEvRNpvAL0EF+vUmOhkoJr2jKRxWO02IwLSfs9GHGIHb9qXz3GeFYq0D9QUbZiEvlBCaX/btm379++XtTmI9s0NZIR1akyMQaCa9oykMQa124wISPvRKF0uQdoHatL4PegVOh6D077J5FuO2LNnj3i0mpmJiucWfv7zn9tHR0dH3ZcDMsUVpwDSkeOMlGObIXDdfu64bh9ITWheDk77ozMWzXj3u98d9Gn89u3b7RNPOOGE4iBPPfWUfXT58uU7duyY/QwgY9xNGkA6cpyRcmwzBBkfkRt5RgG0yo3n1XpJ+0Vlsb1t27abbrrJflZffOB/+PDh4gN88S0A92P8L37xi2a38r8dFF8i2LVrV/kgFYcFksI6FUA6cpyRcmwzBJkdkRt5RgG0yo3n1ZpJ+2bDXly3aNEi86cN7VdccYWtsZV79+71HsS65JJLTjjhhHJl8SWCs88+u3zkisMisltGR2UVSlinwmKkIAXpz0juSEm/zehKZkfkRp5RAK1y43m1XtL++Pj45AwTtu13720yP3DggN0u/gnA/XcB74/eSvc4dqPisG0ZjMuZnn/ySe92BXdlhgJXnMYUs5MZKciR9ozkHrb/kaLdZkTAdfvRKHUy1+0DNUUbJqHht5e0P3fuXBvvN23aVFQWexaX34+W/l3APMWb5Mvqp/1Oh21LCm3o5PrjjjPrp6LYSrPx2L59tqZYhJX3NNuvHmI2s7/dxx7BVpaXaNWvMjwmuZt0RP13MiMFg62pGanTSPnchz4k3sP9jxTR5mKf8qsgcfYkck/+CJQ6mXvyAzVFGyahL9RL2q9fWfy7gDE1NVV+yLt/ubIi7Xc6bFvcv0s6isVTedssvL65bp2o9O7pum3ZMrthjlAs4LzP9b7K8BDrVKjqv5Prv4e9e7oYKUhKUzNSp/fwNWedJSq9e7oqRopoMyMlR/YkKgVRlCl1MmkfqCnaMAl9oRFZMZt7uDpB3a00mdx+z999qFNlRdrvdNi2RPvmRg+8661y5e4VK+yG9xMbV9cDeiuLVxkeYp0KVf2PwfrvYUYKctTUjNTpPVyMwQZHimgzIyVH9iQqBVGUKX2Tn7QP1NT/WrSm0PE4Iitmcw9XJ6hbp824ecb8+fMrPtu/5557zD7z5s1btWqV2bD/J1+ntF9xWLgqFlKCt9LV9YDeyiHEFad5qf8e9la6uh7QWwkoaWpGqv8e9la6Kg5o23z+SSfZNtc8IJLCdfu547p9IDVu6K42Iitmcw/nDfbeymeffdb+q7yxcePG8kNi/zVr1hR7Gp3u9mc3Kg4LV/mrj8UXJr1rpuJR4+uXXlp6ZJaKb112qhxa3E06I4wUDLxGZqTII+XrH/6wW4m8yPiI3MgzCqBVbuiuFpz2kZdbfLc18q6Zilsllfd0ee+o5K30vspQaWRtjTgYKRh4jcxIkUfKj+68k5GSO5kdkRt5RgG0KjSek/bz9qsXX5RVs/WzPHr64MFirWaL3KM5Xf8iOWpkbY1GdH2D9fP2ZqQgC3VmpK5vsH7e3j2MlDpt9ur6F0E0MjsiN/KMAmhVaDwn7TeglcuZnnnwwT3vfe+3rrxSPpAn8xcxfx3zl5IPZKupq2RRR0UnM1KA6RozUp8jpdNh+9G1zRUYKYnguv1olDqZ6/aBmqINk9B4TtpvQOReMsuXr46NXf26120eGfmHQblzgfmLmL+O+UuZv9pgrM8mG7oDNurwdjIjBShUzEiNjBT3sP2raHNXjJRE2JPIPfkjUOpk7skP1BRtmIS+EGm/AdF6qbwms6XnlVlq7MrMlsFYn/WzTkUo0cmMFEDwzkgNjhSNic7b5poYKYkg7Uej1MmkfaCmaMMk9IVI+w2I8M0Nd03W58osNeWV2WCsz/pZpyJUMQYZKYCXmJEaHykavwf7mUUZKYkg7Uej9E1+0j5Qk8bvQa/Q8UjaT93T3/3urWeccfVrXysWLrbsHht79O67B6CYv4j7t3t5ffba15q//tMHD8p+SV4/V5yiB4yUTEcK4ihmpDtvuSWXkbL7uutWX3jhn190kdlwH60ujJREcN1+7rhuH0hNaDwn7Sft4Tvu+PTRR7vrlWErphNMV8jeSV7Pd5NGKEaKLZmOFMRhZiRGii2MlJhkfERu5BkF0KrQeE7aT93TBw/uPOusq4866uU1ymteIz6QeflzmL17B6CIz2Fe/mu+5jUvbxx1lPnrZ/o5DGk/JkZKviMFcdgZKa+R8k979riVdQojJR0yOyI38owCaFVoPCft5+GZmf8bacvrX29XLcX6rOdrLFNTXGNZ/O3MXzb3/z+JtB8fIwXopDwj5TJSep5FGSnpkNkRuZFnFECrQuM5ab8B0S5nKq/P0lyZ9ax8R6XBWJNx3X5MopMZKYDgnZEaHCkaE523zTUxUhLBdfvRKHUy1+0DNUUbJqHxnLTfgMi9VF6f9bwyS41dmQ3Smmyyj7tJI5S3kxkpQKFiRmpkpLiH7V9Fm7tipCTCnkTuyR+BUidzT36gpmjDJPSFSPsNaKWX7PrsW1deKR/Ik/mLDNiarJ91KkJVdDIjBZiuMSP1OVI6HbYfXdtcgZGSCNJ+NEqdTNoHaoo2TEJfiLTfgGjf3HD96sUXZVWeBuYvUuhnnYpQXcfgwLzBBuYvgshqzkg9v8G6jsEe1GyzV89/ETSLtB+N0jf5SftATRq/B71CxyNpP11b79g6/1Pzx24Y27BrA+X8G843vXHNndfIbkpVP1ecIggjpVyyGymIw0xEi9+3+PcW/96Sv1zivm3SLB/4zAcWjS36o/f+kdlwH+2zMFLi4Lr93HHdPpCa0HhO2k+XWYiMvG+EUi6jm0dlNyWs57tJIwgjxS15jRTE8bZNb3PfKkNeGCkRyPiI3MgzCqBVofGctJ+usRvG7Fpk499upJh+ML0xduOY7KaEkfbjYKSUS44jBXGct/287EbKR3d+1K1spDBSopHZEbmRZxRAq0LjOWk/XRt2bTBrEbMokQ8MpRx7g7QfR47vDT30Bjr5yK0fye69oTeLMlKikdkRuZFnFECrQuM5ab8BSpczsRYpy643uG4/muzeG6roDXiZiWjR2KJjFxy76jOr5GNN0JjoVGdRRkocXLcfjVInc90+UFO0YRIaz0n7DVDqJdYiZdn1xmQfd5NGkOzeG6roDXgVM9K5q8+VjzVBY6JTnUUZKXHYk8g9+SNQ6mTuyQ/UFG2YhL4Qab8BSr3EWqQsu95QXaeiLLv3hip6A16kfYGREgdpPxqlTibtAzVFGyahL0Tab4DSNzdYi5Rl1xuq61SUZffeUEVvwEs77Wv8HlSdRRkpcZD2o1H6Jj9pH6hJ4/egV+h4JO2ni7VIWXa9oXrFKcqye2+oojfgpX3dvgbVWZSREgfX7eeO6/aB1ITGc9J+uliLlOXYG3p3k0ZZju8NPfQGOuGe/GWMlGhkfERu5BkF0KrQeE7aTxdrkbIce0NvnYqyHN8beugNdELaL2OkRCOzI3IjzyiAVoXGc9J+uliLlOXYG3rrVJTl+N7QQ2+gE9J+GSMlGpkdkRt5RgG0KjSek/YboHQ5E2uRsux6Q/WKU5Rl995QRW/AS/u6fY2JTnUWZaTEwXX70Sh1MtftAzVFGyah8Zy03wClXmItUpZdb0xq3k0aZdm9N1TRG/AqZiSle/JrTHSqsygjJQ57ErknfwRKncw9+YGaog2T0Bci7fdr6x1bf/Oy3xy7YcwsHZot8z8136xFxm4cky85lM6/4XzTG6ObR92OSrOYJXWxtnYfpTRYGCll2Y0USpxSzEhnXnymfNM0QWO1oJr2GSlxin3jLblkyYd3fJiiWs74yBluZf/FnDtWMhRKnbJw/UK3sqmy99De4vdX6O9E0n6/bNLQK2YtIl9yKGn3c+PlmLOPsetUs+E+Smm8MFKs7EYKJU4pZqS558+Vb5omaHyDUTXtM1LiFPvG4/dgvoUzSKGkUMrfRAv9nUja79c1d15jYsbYjWPmNDRbzDHNkc3x5UsOJb1+ViqrPrPqHSvf8c73vtNsuI9SGiyMlLLsRgolTjET0SnvOeWkPz7pI1/4iHzTpEr1un1GSpxi3nhLLlkyfvW4+6ExJYtizt25q89lJUOhtFv4bB9Ikd7dpAEgVI4zUo5thiAvBEdu5BkF0KrQeE7aB7SwTgWQjhxnpBzbDEFmR+RGnlEArQqN56R9QAvrVADpyHFGyrHNEGR2RG7kGQXQqtB4TtpvgMYlhcid6hWnEOhkoJr2jKRxWO02IwJz7iYmJpT+K3iUKXWyOazJAoxBoKtowyQ0npP2G0AvwaV6N2kIdDJQTXtG0jisdpsRgT2JSv8VPMqUOtkcljEI1BFtmIS+EGm/AfQSXKxTY6KTgWraM5LGYbXbjAhI+9EodTJpH6gp2jAJfaEuaX/16tWT6GbDhg2yCkNvfHzcrlPNhnwMTWMMAtW0ZySNMajdZkRgT+LKlSsnoGzt2rWyqgnm3DEGgTo0fg96rVmzRib2Sl3S/mTgPx4AsLjiFEA6cpyRcmwzBK7bzx3X7QOpCY3npH1AC3eTBpCOHGekHNsMQcZH5EaeUQCtCo3npH1AS7vr1FtGR2VVZ0E7A4Mk6M0ftHNq2p2RepNjmyHI7IjcyDMKoFWh8Zy0D2hpd50aFEuCdgYGSdCbP2jn1LQ7I/UmxzZDkNkRuZFnFECrQuM5ab8BXM4EV59XnF5/3HEmVxTFVj7/5JNFjdmuqJyuEUuKJz62b1+xc/lZ5Uq7j3iJdPTWyRgAjJSa+pyRutI4rHabEQHX7Uej1Mlctw/UFG2YhMZz0n4D6CW4Jvv7v6M6ZYnqyq9feqn585/37DGVn3nTm8yfZrt4VLht2TK78c1160xkstvelzCPmn3cHdLRWydjAHjfsV0rh3Ck9DkjdaVxWO02IwJ7Eid0/nM4lCl18gT/Ax9QT7RhEvpCI7JittDDDSd6Ca4+16neLOGtfPrgQbP9vamp4iGra9jwHq1r5e4VK4rtdPTWyRgAXd+xjBSrzxmpK43DarcZEZD2o1HqZNI+UFO0YRL6QiOyYrbQww2naN/cQEb6XKd2zRIiopgMY2qm3vKWokYpw6SJMTi0ur5jGSlWnzNSVxpjULvNiIC0H43SN/lJ+0BNGr8HvULH44ismC30cACsPq84LX8luPgisTdg2O8kW8We0zWCR/X3k72VQGoYKTX1OSO1Isc2Q+C6/dxx3T6QmtB4TtoHtPRzN+lbfLf7spcZ21JcZtzp3mO2vuJqZO+9x7yVxQaQmuK9Wn7/M1K8+pmR2pJjmyHI+IjcyDMKoFWh8Zy0j8HxqxdflFWt6med2mxssFcsl4vcYyil9oaJZpD+4s2+mQd7pPQ8I7X4hum5zUiHzI7IjTyjAFoVGs9J+xgEzzz44J73vvdbV14pH2gV69TEmTeMeduYN498YHClOVIQR88zUosjpec2Ix0yOyI38owCaFVoPCftN4DLmVpk08uW179+88jIP2zcKB9uD1ecxtRbJ5s3jHnbmDdPW0kmpmRHCuLoZ0aqM1J6OGxX/bQZieC6/WiUOpnr9oGaog2T0HhO2m8AvdSKcnqxJakMM8ndpCPqrZNthrGlOslkLfGRgjj6mZHqjJQeDttVP21GIuxJ5J78ESh1MvfkB2qKNkxCX4i03wB6KbJyern6ta/dctRRCWYY1qkx9dbJRYYxbyHzRqpIMpnKYqQgjn5mpDojpYfDdtVPm5EI0n40Sp1M2gdqijZMQl+ItN+AaN/cwNPf/e7OM8+8eia0vJxeXve64hMnU3aPjT16992JlE+tXWvXqWbDfZTSbLlzctKt7FrMG6b8/jFvJ5tkzBvMvM2ePnhQvv/ykdFIocQp/cxIdUaKxu9B0v4AIO1Ho/RNftI+UJPG70Gv0PFI2kc2Hr7jjk8ffXR50ZlyufyNb/zjY481xWy4j1LSL+bNZt5y8l2Yg7xGCiVO0ZuR9EYK1+0PAK7bzx3X7QOpCY3npH3k5OmDB//m9NPtx0puefkTy7170yn/tGePW0lJp4hPLIti3mDmbZb3Z/tZjRRKnNLzjNTiSOGe/ANAxkfkRp5RAK0Kjeepp/1t27bt379f1mK4PfPgg7tXrLh69peTN6d3NTLr1MSV7z32Snp53evMW2uQrtvPYqQgjp5npBZHSs9tRjpkdkRu5BkF0KrQeB6c9k383nLEnj17xKM1lTP83XffXRyw8POf/9w+Ojo66rYBmPYlmdQyDOvUxJUzTLT0El/6IwVx9DwjtThSem4z0iGzI3IjzyiAVoVG4+C0Pzpj0Yx3v/vdvX3wXs7w27dvt0c74YQTiiM/9dRT9tHly5fv2LHj1WcmicuZWlROMkllGK44jam3TrYZJnJ6aUuyIwVx9DMj1RkpPRy2q37ajERw3X40Sp3MdftATdGGiRvPq/WS9ovKYvvw4cPFx/LFB/7eSvHE6sovfvGL5rnlf1Aovlmwa9eu8pErXisC9++CyOz/NPatK6+UD7RnkrtJR9RbJ5s3zCD9f3t1JDhSEEc/M1KdkdLDYbvqp81IhD2J3JM/AqVO5p78QE3RhknoCzWT9q+66iozF9iP5c2Gzefeyttvv908Ze7cuePj42bj8ccf9x7ZuuSSS0444YRyZfHNgrPPPtse3B75iiuuKL/W3r17S4dR5/YSWvGrF1+UVe1hnRpTb52c1BsmpqH9iw+zfmakOm+YHg7bVT9tRiLsSVQKoihT6mTSPlBTtGES+kK9pH0b1O0Mbr9m7/0ngHLlsmXLbr75ZrOxbt06U3/88cebwG82Dpbu5eumfbfSPbjd8DYgmmjf3BhmW+/YOv9T88duGNuwa0MW5dzV59p1qtlwH6U0W8Y/P+5W9l/Ov+F886675s5r5NsxYdmNFEqcojojmZEyZ/2cxkeKXWaQNLJmT6JSEEWZ0jf5SftATdHyYOh47CXt26BubNq0qah0w/bSpUtPOeWU8fHxa6+9VnzY7g3kdSor0n7xbxCmee5xkDsTYEbeN5JReeOyNx674FhTzIb7KCWjMrp5VL4dE5bdSKHEKRFmpMZHCtftDwCu288d1+0DqQnNub2k/erKYvu5554z23PmzDn++OPNn6Ef43srK9J+8W8QxtTUVPEUDIaxG8bsanLj327MpXx050fdSkpGxbzfzLtu7MYx+XZMWI4jhRKn6M1IeiOFe/IPABkfkRt5RgG0ys3L1RTTvoncBw4ccHdwf6xfWfwoNsq7lV8XA2PDrg1mNWmWlfKBhLFOzV2O77oc24w49GYkvXedXpsRjcyOyI08owBa5eblas2k/Xnz5pn6m2cUl/ecNqOoLH/eXuxf/E97086R77nnHrOD2XPVqlXFnp3Sfvm15s+fz2f7g0dvNamHdWrucnzX5dhmxKE3I+m96/TajGhkdkRu5BkF0Co3iVdrJu0/++yz9lY6xsYj/5Ozt1I8VP4QXhx5zZo1xdOLPTul/YrXioDLmSLQW00q4YrTmJQ6Obt33XSebUYEqjOS0rtOtc2Ig+v2o1HqZK7bB2qKNkzcJF4tOO3DRS9FoLSa1DPJ3aQjUurk7N5103m2GRGozkhK7zrVNiMOexK5J38ESp3MPfmBmqINk9AXIu03gF6KQGk1qYd1akxKnZzdu246zzYjAtUZSeldp9pmxEHaj0apk0n7QE3RhknoC5H2GxDtmxvDTGk1qYd1akxKYzC7d910nm1GBKozktK7TrXNiIO0H43SN/lJ+0BNSmtRV+h4JO0jD0qrST1ccToAsnvXTefZZkSgOiMpvetU24w4uG4/d1y3D6QmNJ6T9pEHpdWkKu4mnbsc33U5thlx6M1Ieu86vTYjGhkfkRt5RgG0KjSek/aRB73VpB7WqbnL8V2XY5sRh96MpPeu02szopHZEbmRZxRAq0LjOWkfedBbTephnZq7HN91ObYZcejNSHrvOr02IxqZHZEbeUYBtCo0npP2G8DlTBHorSaVcMVpTEqdnN27bjrPNiMC1RlJ6V2n2mbEwXX70Sh1MtftAzVFGyah8Zy036+td2z9zct+c+yGMbPcoeiV+Z+ab1aTYzeOyROQKnsjYu5kG4dSJ59/w/nmXTe6edR9QyZbshspiEN1RlIaKeeuPte22Wy4j1KyKPYkLrlkyYd3fJiiWs74yBluZf/FnDvGIIVSpyxcv9CtbKrsPbS3+J0b+nuctN8vu7amxClmNSlPQKpU19YQlDo539Gd0UhBHKozktJIOebsY2ybzYb7KCWLYk8iZzDfwhmkUFIo5W/Phf4eJ+3365o7r5mzfs7YjWPmNFD0iulhE2BMb8sTkCrVtTUEpW9PmfebedflNbqzGymIQ3VGUvo9WP5s332UkkXhs/1oZewzY25l/6X4bN89uRQKpVzGPz/uVjZV+GwfSA5XnAJIR44zUo5thsB1+7njun0gNaHxnLQPaOFu0gDSkeOMlGObIcj4iNzIMwqgVaHxnLQPaGGdCiAdOc5IObYZgsyOyI08owBaFRrPSfuAFtapANKR44yUY5shyOyI3MgzCqBVofGctN8ALmeCiytOY6KTgWraM5LGYbXbjAi4bj8apU7mun2gpmjDJDSek/YbQC/BNal5B2wIdDJQTXtG0jisdpsRgT2JJvDLEImmKXWyOSxjEKgj2jAJfaEuaX/16tWT6GZ8fFxWYeiZd4Vdp/L2iIBOBqppz0gah9VuMyKwJ3HlypUTUKbUyeawjEGgjmjDZM2aNTKxV+qS9icD//FgOEX75gYyMsmnUhExBoFq2jOSxhjUbjMisCdxQudjZ5QpfZN/gs/2gXo0fg96hY5H0j6ggitOAaQjxxkpxzZD4Lr93HHdPpCa0HhO2ge0cDdpAOnIcUbKsc0QZHxEbuQZBdCq0HhO2ge0sE4FkI4cZ6Qc2wxBZkfkRp5RAK0KjeekfUAL61QA6chxRsqxzRBkdkRu5BkF0KrQeE7abwCXM8HFFacx0clANe0ZSeOw2m1GBFy3H41SJ3PdPlBTtGESGs9J+w2gl+Ca5G7SEdHJQDXtGUnjsNptRgT2JHJP/giUOpl78gM1RRsmoS9E2m8AvQQX69SY6GSgmvaMpHFY7TYjAtJ+NEqdTNoHaoo2TEJfiLTfgGjf3EBGWKfGxBgEqmnPSBpjULvNiIC0H43SN/lJ+0BNGr8HvULHI2kfUMEVpwDSkeOMlGObIXDdfu64bh9ITWg8J+0DWribNIB05Dgj5dhmCDI+IjfyjAJoVWg8J+0DWlinAkhHjjNSjm2GILMjciPPKIBWhcZz0j6ghXUqgHTkOCPl2GYIMjsiN/KMAmhVaDwn7TeAy5ng4orTmOhkoJr2jKRxWO02IwKu249GqZO5bh+oKdowCY3npP0G0EtwTXI36YjoZKCa9oykcVjtNiMCexK5J38ESp3MPfmBmqINk9AXIu03gF6Ci3VqTHQyUE17RtI4rHabEQFpPxqlTibtAzVFGyahL0Tab0C0b24gI/2sU7+9adP1xx0nazu7ZXRUVvnU3C1HjMHhxEipr58ZqQ6NMajdZkRA2o9G6Zv8pH2gJo3fg16h45G0D6jo84rTct54/sknvduFmuGk5m5ARhgpNfU5I7UixzZD4Lr93HHdPpCa0HhO2ge09HM36XLeuP6448yPthSfZJowY2se27evIpx4dyvvX660+5jiTUpAghgp9fUzI7UlxzZDkPERuZFnFECrQuM5aR/Q0s861Rszytu3LVtmN765bl3Fl5m9u3kPaB41+7g7ACnzvpnL294h4PLu5j1gviOlnxmpLTm2GYLMjsiNPKMAWhUaz0n7gJZ+1qnlFFH+xLKo9+YQl3e3rpW7V6wotoGUMVLq62dGakuObYYgsyNyI88ogFaFxvMRWTFb6OGGE5czwdXnFafemFHWdQfLu1vXyuz01skYAN43c1nXHSzvbl0rM9LnjNSVxmG124wIuG4/GqVO5rp9oKZowyQ0no/IitlCDzec6KV0PPh3fyerWjLZ392ky4mi+I6x8fVLLxWV/Xw/2VvZg9a7vbdOHmatn7KmMFJq6nNG6krjsNptRgT2JHJP/giUOpl78gM1RRsmoS9E2m8AvZQCs4z+6xNO2DzS5S0dTc/r1H/es8fEic+86U3mT7M9Xbp/2C2lu4J5byrm8u7mraw4SFem203nt5tkZBU6SG2k9IyREqTnGakmjcNqtxkRkPajUepk0j5QU7RhEvpCXRZ8oYcbTtG+uQGvIr3YIh9uSfx16tMHDxZRxxa5h5qi89tKMozBOtIcKfEN50jRnpE0xqB2mxEBaT8apW/yk/aBmjR+D3qFjscuC77QwwExifSSVIYZqitOxSmIn2RQLeWRMlRaHCk5zkg5thkC1+3njuv2gdSExvMuCz73cNu2bdu/f79buaVk+/bt5cobbrjB3d89CFCfN72klmGG527S7lmInGTQSRYjZXi4ZyHmSMlxRsqxzRBkfERu5BkF0Co3nlfrsuBzDzc6OuqtNBYdccEFF5QrzzrrrL179xY779y5c+7cue5BgDoq0ktqGWZ41qnuWShKtCQDIaORMjzcs1CUCCMlxxkpxzZDkNkRuZFnFECrQkN0lwWfe7hOab+i8vLLL1+yZIn9MH/Xrl2nn3768ccf7+4PVOuaXmyRT2vP8KxT3bMgSoQkg0J2I2V4uGdBFNWRkuOMlGObIcjsiNzIMwqgVaEhusuCzz1cdbDvVFlsf/zjH1+7dq13/3xxOZO2munFlkfvvjuFsvu661ZfeOGfX3SR2XAfHbDingVv0UsyjEErx5EyVMU9C96iMVK0r4HXOKx2mxEB1+1Ho9TJXLcP1BRtmISG6MbS/vj4+OQRRaV32/0xd4P0d0nQHRdf7K6G0y/nH3OMvZu02XAfHeZiTqg8x31jDE5nO1IonUqzI2VS+f72GofVbjMisCeRe/JHoNTJ3JMfqCnaMAl9ocbS/ty5c0ePKCpJ+2hE2CeWe/emUD61dq1dp5oN99EBK+5Z8BaNTywtxqCV40gZquKeBW/RGCnayVnjsNptRgSk/WiUOpm0D9QUbZiEvlBjab+6crDTfrRvbgy5mklGPq0lQ7VOdc+CKBrppYwxWJbXSBkq7lkQRW+kaM9IGmNQu82IgLQfjdI3+Un7QE0avwe9QsdjlwWfezhvUK+u3L17t7gJv3d/oI6uSUY+oSVDdcWpexaKopdeUC2XkTJU3LNQFO2RkuOMlGObIXDdfu64bh9ITWiI7rLgcw9ngvqqVatuPmLXrl1dK+fMmbNp0yb79HvuucfUzJs3zz701FNPlQ8O1FSRZOSu7Rmeu0m7ZyFCekEdWYyU4eGehZgjJccZKcc2Q5DxEbmRZxRAq9x4Xq3Lgs89nMnw9pt11qJFi7pWLl68uHj6mjVrynseOHCgeAgI5U0ycqf2DM86ta30gpoSHynDo92RkuOMlGObIcjsiNzIMwqgVW48r9ZlwRd6OECDCSYV5f8Z+btLRl5NMu4OKZTB1lZ6geC+8coli5Ey2KXofHMizOlwdxClWTkm5xzbDEFmR+RGnlEArQqN511WE6GHG05czqTNXQS7pUgy7kOtlDe+8b5jj9147LEbzMZIl3GWvdZzPmPQct+HbkltpAxVqZ/zbWmQ9jXwGofVbjMi4Lr9aJQ6mev2gZqiDZPQeN5lNRF6uOFEL2lzF8GdSv1ltHY55phX7iZtNka6jLPstZjzLcag5b4PO5V0RspQldBub9Ck8v3tNQ6r3WZEYE8i9+SPQKmTuSc/UFO0YRL6Ql1WE6GHG070kjZ3EZx+Gaq03zrGoOW+DylZlwZpJ2eNw2q3GRGQ9qNR6mTSPlBTtGES+kJdVhOhhxtO0b65MbTcRXD6hbQfE2PQct+HlKxLg7STs8YY1G4zIiDtR6P0TX7SPlCTxu9Br9Dx2GU1EXo4QIPeCljPUF23j0TkOFJQpncGc7wGPsc2Q+C6/dxx3T6QmtB43mU1EXo4QIPeClhPjm1G7njX5U71DOZ4f/sc2wxBxkfkRp5RAK0KjeddVhOhhwM0qK6AleTYZuSOd13uVM9gjsk5xzZDkNkRuZFnFECrQuN5l9VE6OEADaorYCU5thm5412XO9UzmGNyzrHNEGR2RG7kGQXQqtB43mU1EXq44cTlTNpUV8BKuG4/JsagleNIQZneGdS+Bl7jsNptRgRctx+NUidz3T5QU7RhEhrPu6wmQg83nOglbXorYD3ckz8mxqCV40hBmd4ZnFS+v73GYbXbjAjsSeSe/BEodTL35AdqijZMQl+oy2oi9HDDiV7SprcC1kPaj4kxaOU4UlCmdwa1k7PGYbXbjAhI+9EodTJpH6gp2jAJfaEuq4nQww2naN/cGFp6K2A9pP2YGINWjiMFZXpnUDs5a4xB7TYjAtJ+NErf5CftAzVp/B70Ch2PXVYToYcDNOitgPVw3T7iy3GkoEzvDOZ4DXyObYbAdfu547p9IDWh8bzLaiL0cMNGrMwocUoW3GZTKJELsuOeRAqFQqFQKJSRI+u60HjeZT0Yerhh454GSoSSBbfZFErkguy4J5FCoVAoFAplhLTfCvc0UCKULLjNplAiF2THPYkUCoVCoVAoI6T9VringRKhZEFct0+hxC/IjnsSmyo5zkg5tpkiijl3xxwzyRnMt3AGKZR0ihUaz7usB0MPN2zc00CJULIg7slPocQvyI57EpsqOc5IObaZIoo9iZzBfAtnkEJJp1ih8bzLejD0cMOJXoJrkv87KiI6GaimPSNpHFa7zYjAnkT+B74IlDqZ/4EPqCnaMAl9IdJ+A/iPSeBinRoTYxCopj0jaYxB7TYjAtJ+NEr/zSFpH6hJ4/egV+h4JO0DKvifogGkI8cZKcc2QzDnzsRFpSCKCMy5M1mAMQikIzSek/YBLc8//7ysAoCW5Dgj5dhmCDI+IjfyjAJoVWg8J+0DWlinAkhHjjNSjm2GILMjciPPKIBWhcbzLml/9erVkwB6sm3bNlkFAC3JcUbKsc0QJpA5eUYBtGrNmjUysVfqkvYnA//xYDhxORNcXHEaE50MVNOekTQOq91mRMB1+9EodTLX7QM1RRsmofGctN8AegmuSe4mHRGdDFTTnpE0DqvdZkRgT+IE9+TXp9TJE9yTH6gn2jAJfSHSfgPoJbhYp8ZEJwPVtGckjcNqtxkRkPajUepk0j5QU7RhEvpCpP0GRPvmBjLCOjUmxiBQTXtG0hiD2m1GBKT9aJS+yU/aB2rS+D3oFToeSfuACq44BZCOHGekHNsMgev2c8d1+0BqQuM5aR/Qwv8dBSAdOc5IObYZgoyPyI08owBaFRrPSfuAFtapANKR44yUY5shyOyI3MgzCqBVofGctA9oYZ0KIB05zkg5thmCzI7IjTyjAFoVGs9J+w3gcia4uOI0JjoZqKY9I2kcVrvNiIDr9qNR6mSu2wdqijZMQuM5ab8B9BJck9xNOiI6GaimPSNpHFa7zYjAnkTuyR+BUidzT36gpmjDJPSFgtP+tm3b9u/f71ZuKdm+fXu58oYbbij2PHz4cLHbnj17Xj1EztxeAlinxkQnA9W0ZySNw2q3GRGQ9qNR6mTSPlBTtGES+kLBaX90dNRbaSw64oILLihXnnXWWXv37rV7XnXVVWbWsLuZDfcfDnIU7ZsbyAjr1JgYg0A17RlJYwxqtxkRkPajUfomP2kfqEnj96BX6HhsLO1XVF5++eVLliyxwb68p/dZwGDgilMA6chxRsqxzRC4bj93XLcPpCY0PsdI++Xt5cuX79ixw90BGDzcTRpAOnKckXJsMwQZH5EbeUYBtCo0PjeW9sfHxyePKCq928aBAwcmZ77cVSR/YPCwTgWQjhxnpBzbDEFmR+RGnlEArXKTeLXG0v7cuXNHjygq3bR/+PDhK664wuR8s/+mTZuKIwCDh3UqgHTkOCPl2GYIMjsiN/KMAmiVm8SrNZb2qyuL7XXr1tmb7jz33HOz9s4ZlzPBxRWnMdHJQDXtGUnjsNptRgRctx+NUidz3T5QU7Rh4obuajHS/u7du+fOnWu3vXvmbvD+RujfJHeTjohOBqppz0gah9VuMyKwJ5F78keg1Mnckx+oKdowCX2hXtL+qlWrbj5i165dXSvNNFF8aV/s+cADD5QPnim3lwDWqTHRyUA17RlJ47DabUYEpP1olDqZtA/UFG2YhL5QL2nf/va1Fi1a1LVy8eLFnZ7uHj8vIyMUir8cc8wr61Sz4T5KoVAoMUuOM1KObaaIYk8iZzDfwhmkUNIpVmh8Dk77KHNPA4ViyxvfeN+xx2489tgNZsN9lEKhUGKWHGekHNtMEcWcOxMUOYP5Fs4ghZJOsULjOWm/L+5poFAoFAqFQqFQKBQKpcFihcZz0n5f3NNAoVAoFAqFQqFQKBRKg8UKjeek/b64p4FCoVAoFAqFQqFQKJQGixUaz0n7DYj2/ysiI/xP0THRyUA17RlJ47Dd2zw6KmuOO+7lSlvsfwZU1OzbJ3fumfu6PfMeyluZJ3PuJiYmlP4reJQpdbI5rMkCHccggCOiDZPQeE7abwC9BNck/3dURHQyUE17RtI4bPc2u6m4ombduuknn5z1UM/cV+mZ91ArVsgaofwXaeovpcOeRKX/HA5lSp3M/8AH1BRtmIS+EGm/AfQSXN3XqWgOnQxU056RNA7bvc1uVK6ucR8t2A//7bcAivxsNmxNudLuXM37xKJy2bJX93QPtWnTy99HKHjbX/4KQ3nn9JD2o1HqZNI+UFO0YRL6QqT9BkT75gYy0n2diuYwBoFq2jOSxhjs3mY3KhcxuEjU3rTsMk9ct+6V7WI397l79ry88aY3vfyn2e7k0ktf3S5aUmyY2G8ifcWh3NcV297KJJH2o1H6Jj9pH6hJ4/egV+h4JO0DKrpfcQoAseQ4I3Vvsxt0q2vcRwve3byVYtvrq1+dfv/7Xym//duvVHqf1bXy0Udf+dH8abat8mf73iMkg+v2c8d1+0BqQuN5l7S/evXqSQA92bZtm6wCgJbkOCN1afPcuWE17qMF727eSrHt5d3Z+6w6lfZH7zFzMIHMyTMKoFVr1qyRib1Sl7Q/GfiPBwAKzz//vKwCgJbkOCN1abP7sXZFzbp1VZe4ez+691aKba/iS/vlFxXf5Le8hxKV3/rWywcpPtifLh1qevZVA0mSHxYjN/KMAmhVaDwn7QNauqxTASCiHGekLm2u+P/23Jrq/4HPG+btpfW2lC+tt/fbq7huv7ghn73zn6gsZ3VxKO/F/A8//Or/s2x57wKYKpkdkRt5RgG0KjSek/YbwOVMcHW/4hTNoZOBatozksZhtduMCLhuPxqlTua6faCmaMMkNJ6T9htAL8E12fVu0mgOnQxU056RNA6r3WZEYE/iBPfk16fUyRPckx+oJ9owCX0h0n4D6CW4WKfGRCcD1bRnJI3DarcZEZD2o1HqZNI+UFO0YRL6QqT9BkT75gay8evXTv7GBa+sU3/jAvOj3AGNYgwCVfRnJI0xSNofAKT9aJS+yU/aB2rS+D3oFToeSfuAgl+/9r7//NGNb1664c1LzYbG2hoA6spzRuK6/QHAdfu547p9IDWh8Zy0Dygwi2lRAKAt2c5IXe7JbxU3vbfsTfgrbpifCNHs+oKemMAN1WV8RG7kGQXQqtB4TtoHFGS7tgYwgLKdkWql/RUrZv0YFIarlf9zu8b/o7ue2yn+vtV6fpWy/vpBZkfkRp5RAK0KjeekfUBBtmtrAAMo2xmpe9rftOnlD/PLuuZb++F/USyzsW+f/B/sy3sWr+L9v+69la5iN/taVrFR3i72EQcUf1/vbkWzzcall766s9BnP9QmsyNyI88ogFaFxvPgtL9t27b9+/eLSj2RX643XM4EKc+rZPPFGASq6M9IGmOw7nX7RVLds+fl7Te96eU/K77JX+xf3jYhdt06Wends1xZZGlvpWvZslc2zGsVsdn7Kt72uD96d3M3vOq/rnfPerhuPxqlTua6faCmaMPEjefVRmTFbO7hRkdH3UolO3funDt3brSX61n6LURs+nfARhljEKiiPyNpjMHJmvfkrwjDXt7sWq4svirv/fT74MGXt6emjuzdudLV9aW9lRWXKni3zYrzt37r5R9Nqyp4n+t9XW8/1GNPIvfkj0Cpk7knP1BTtGES+kIjsmI293DetH/48OEtR+w58g/q5Y/li+1Oe950002icteuXaeffvrxxx/vvlxq0m8hYtNfW6OMMQhU0Z+RNMZga2m/4K20TLA3j77lLd0ry7q+tLdS8O5f3n744emxsVfrO/E+1/u63sp6SPvRKHUyaR+oKdowCX2hEVkxm3s4b9q/4oorzFywaIbZ2Lt3r9iz2O60p/2Nbivtvwt8/OMfX7t2rfflUhPtmxvIhv7aGmWMQaCK/oykMQa10n75y+rFV+u9zyoenS59P7/8Rf1iB2+lq/qb/N5Klzell7cfe+yVz/YrWjLddz/UQ9qPRumb/KR9oCaN34NeoeOxmbTvDfZm4+yzz/7BD35gts1McenMb4hOexoHDhwQO7g/AnnQv0oWAOrKc0bqft2+90J9b14tG/XdiM77LO+99+pXurx36fNWetvj/n3Lu3mf6z2OVbxiuc3e/Wv+7Xy4bj93XLcPpCY0GjeW9sfHxydnFFfaL1++vPjnQLNxyimndNqzfEzzrB07dpSP7L4ckLps74ANYABlOyN1vyd/D7yBdpDYfxQYnflsv+LS/Vj9IOMjciPPKIBWhUbjxtK+ie72I3pj6siNaoqdyxvunsWjroqHgHRlu7YGMICynZFU0j7iktkRuZFnFECrQqNxY2m/qDQB3n4n39afdtppO3fuLD7k9+7pPaZV8RCQrmzX1gAGULYzEml/AMjsiNzIMwqgVaHRuJe0v2rVqpuP2LVrl6k8bYatmT9/fvHZ/vTMd/gNE/jtj949vZH+nnvuMfvMmzfPvtxTTz0ldkgHlzNByvMq2XwxBoEq+jOSxhjsft0+ksd1+9EodTLX7QM1RRsmbmqu1kvatwHeWrRokal89tlni5qNGzeW97eVRdr37ulN+2vWrCn2NIrvC6TF/cCEQpkp8g7YFAqF0l7JcUbKsc0UUexJ5AzmWziDFEpCZYabmqsFp33M4p4GCmWmsE6lUCjplBxnpBzbTBGFrJh74QxSKAmVGaHxnLTfH/c0UCgzhXUqhUJJp+Q4I+XYZoooZMXcC2eQQkmozAiN56T9/ringUKZKfIqWQqFQmmv5Dgj5dhmiijm3JmgyBnMt3AGKZSEyozQeE7a7497GigUCoVCoVAoFAqFQmmwzAiN56R9QAv/dxSAdOQ4I+XYZgjyJu/IjTyjAFoVGs9J+4CWRtapP/3pT73bABAkxxmpkTajXTI7IjfyjAJoVWg8J+03INr/r4iMVP9P0YsXLx4vsZVm4+DBg7amWEaX9zTbttI8WlQWe3orh4S3kwEUtGekc889V+zZ/4xU3WZkwZy7iYkJpf8KHmVKnWwOa7IAYxDoKtowCY3npP0G0EtwmXfFK3eT9r09xo+sp8vbZun8uc99TlR69yxXbtmypaJySHg7GUBBe0YqDtvgjFTdZmTBnkQT+GWIRNOUOtkcljEI1BFtmIS+EGm/AfQSXNXr1E4r5qJy/fr1dsP7mduhQ4fM9m233Vbs36lySHg7GUBBe0ZauHBh4zNSdZuRBdJ+NEqdTNoHaoo2TEJfqEvaX7169SS62bBhg6zC0DPLXLtOHZ/51EswK2N3u1xZ8FZaa9asMY8uWLCga+XAYwwC1bRnJDMGvZOPt7Km6jYjC/Ykrly5cgLK1q5dK6uaYM4dYxCoI9pa1PxilYm9Upe0Pxn4jwcArOorTstfkTW/oe1G8UFZWfHodOnbsOWvxRY7eCsBYDrPGam6zcgC1+3njuv2gdSExnPSPqCl4m7S477bX3nX1t47XdWvBAArxxmpos3IhYyPyI08owBaFRrPSfuAlop16rhvGQ0AenKckSrajFzI7IjcyDMKoFWh8Zy0D2hhnQogHTnOSDm2GYLMjsiNPKMAWhUaz0n7DeByJri44jQmOhmopj0jaRxWu82IgOv2o1HqZK7bB2qKNkxC4zlpvwH0ElyT/N9REdHJQDXtGan5w/76tZO/ccErbf6NC8yPcgfkwL7xJnT+cziUKXXyBP8DH1BPtGES+kKk/QbQS3Bpr61RRicD1bRnpOYPS9ofCKT9aJQ6mbQP1BRtmIS+EGm/AdG+uYGMaK+tUcYYBKppz0jNj0HS/kAg7Uej9E1+0j5QU/O/BzsIHY+kfUAFV5wCSEd+M9KvX3vff/7oxjcv3fDmpWaDtJ8prtvPHdftA6kJjeekfUALd5MGkI7MZiQT70VBnmR8RG7kGQXQqtB4Hpz2t23btn//flGp4fDhw1uO2LNnj3wYSF5ma2sAAy2zGYm0PyhkdkRu5BkF0Co3nlcLTvujo6NupYarrrpqzpw5i2aYjTj/xAA0KLO1NYCBltmMRNofFDI7IjfyjAJoVWgSbybtez+HL38LoNjutOdNN90kKssv5H3RdHA5E1z5XSWbMzoZqKY9IzV/WK7bHwhctx+NUidz3T5QU7RhEhqKm0n7V1xxRflz+L1794o9i+1Oe9r77pY/xl++fPmOHTvE09OUctvQlknlO2CjjE4GqmnPSM0flnvyDwT7xuOe/BEodTL35AdqijZMQl+ombTvDfZm4+yzz/7BD35gts1Mcemll1bsaRw4cEDsYJhK+6uiSP4JcjsE0F5bo4xOBqppz0jNH5a0PxDsG08piKJMqZNJ+0BN0YZJ6As1lvbHx8cnZ8ydO9fusHz58mKCMBunnHJKpz3Lxyw+0j98+LD9IoDZbdOmTcVrJSjaNzeQkUnltTXKGINANe0ZqfkxSNofCPaNpxREUab0TX7SPlBT878HOwgdj42lfZPJ7Uf0xtTUVFEv8rx3z+LRsnXr1tlf888995x4CEif9lWyAFBffjMS1+0PBK7bzx3X7QOpcVNztcbSflFpArz9Tr6tP+2003bu3Fn8u6B3z67HBHKU2R2wAQy0zGYk7sk/KGR8RG7kGQXQqtCA3EvaX7Vq1c1H7Nq1y1SeNsPWzJ8/v/hsf3rmO/yGCfz2R++e3mAvXuiBBx4QOwCJy2xtDWCgZTYjkfYHhcyOyI08owBa5abmar2kfRvgrUWLFpnKZ599tqjZuHFjeX9bWaR9756d0n6x55xkLxlylyMUCoVCoVAoFAqFQqE0WGaEhuLgtI9Z3NNAocwUecUphUKhtFdynJFybDNFFHPuJn/jAs5gvoUzSKEkVGaExnPSfn/c00ChzBR5N2kKhUJpr+Q4I+XYZooo9iRyBvMtnEEKJaEyIzSek/b7454GCmWmsE6lUCjplBxnpBzbTBGFrJh74QxSKAmVGaHxnLTfH/c0UCgzhXUqhUJJp+Q4I+XYZoooZMXcC2eQQkmozAiN56R9QEV+/7s1gMGV44yUY5shmHM3MTFx9913y/u8IxPm3JkswBgE0hEaz0n7gJbM/r8rAAMtxxlJqc0//elPvdvQIOMjciPPKIBWhcZz0j6gRWmdCgA9yHFGCmrz4sWLx0tspdk4ePCgrSmCfXlPs20rzaNFZbGntxJBZHZEbuQZBdCq0HhO2ge0BK1TAUBVjjNSUJvHjyT88rYJ85/73OdEpXfPcuWWLVsqKhFEZkfkRp5RAK0Kjeek/QZwORNcXHEaE50MVNOekTQOG9rmrhl+/fr1dsP7LYBDhw6Z7dtuu63Yv1Ml6uO6/WiUOpnr9oGaog2T0HjeJe2vXr16MhOf//znP/jBD8raKMxSQFZh6Jl3hb2bNG+PCOhkoJr2jKRx2NA2L1y40N0uVxa8ldaaNWvMowsWLOhaiTrsSVy5cuUElCl1sjls/TEIDLNow8T8SpKJvVKXtD8Z+I8HLdq5c+ehQ4dkbRQZ9RKiMe8Ku07l7REBnQxU056RNA4b2ubyl/bXrl1rN4qP7suKR6dL388vf1G/2MFbifrsSTShUX5kjKYpdbI5bP0xCAyzaMMk9IUGJO0//fTT1113nayNJdo3N5CR0HUq+sEYBKppz0gaYzC0zeO+G/J507733nv1K1EfaT8apW/yk/aBmjR+D3qFjscBSftbt2594YUXZC3QntArTgFAT44zUmibx33BHu3iuv3ccd0+kJrQeB6c9g8fPrzliD179pQf2rZt2/79+8s1ndTfs45vzpC1QNuC7iYNAKpynJFybDMEGR+RG3lGAbTKjefVgtP+VVddNWfOnEUzzEY5tI+Ojrr7e9Xfs6tf/OIXExMTshZIAOtUAOnIcUbKsc0QZHZEbuQZBdCq0BAdnPbLQV2EdvFjxbcAxJ7lj/qL7Yqnl23fvv0nP/mJrAUSwDoVQDpynJFybDMEmR2RG3lGAbTKjefV+kr7y5cv37Fjh9m4/fbbTeXcuXPHZ/7vgccff9xUfvazny1/C+DAgQOd9vT+C0LFlwgKhw4d2rlzp6yNjsuZ4Aq94hT9oJOBatozksZhtduMCLhuPxqlTua6faCmaMPEjefVgtP+0qVLTznlFFN/+PDhotL8PjYp/fjjjzcx3mwcPHjQVC5cuHBqasruUGR4757etF+uXLZs2c0332y3Cy+99NKnPvUp86eoj8/tJWAy8G7SSn76wx9u/bf/Vtbm4Bf/+39vHhmp2fh2OxlIn/aMpHFY7TYjAnsSuSd/BEqdzD35gZqiDZPQFwpO+88995zJ4Wbkb9my5bLLLvvBD35QPCS+n3/jjTdefPHFkzNMti8/VHEJQLFt/1lhfHz82muv3bt3b7FzYefOnYcOHZK1bXB7CbBLnNZ/R/aQ9nt4ioZfvfTSI3fdVbMl7XYykD7tGUnjsNptRgT2JCoFUZQpdTJpH6gp2jAJfaHgtL9r1y6T8KempmzmL+8gMvzxxx9vdhidYbYr9vSm/eKfFexx7LcACk8//fR1111XrmlRtG9uICOJrFNfPHz4XwL/USyRtD8d0hLGIFBNe0bSGIPabUYE9iQqBVGUKX2Tn7QP1KTxe9ArdDwGp31vMq/+cffu3TU/2zdT1bx58+z21NSUvdTf3d/YunXrCy+8UK4BkpLCFafeL8MXEdo8ZEv50fIOZS/967/+/JFHiqfYYmrK+7sHdA/14v/9v+UaccDSji9znw6gNynMSKFybDMErtvPHdftA6lx43k1ubwW3MOZNG6y980zxL/2FQ899dRT5sfTZtjdxGf7Ys/ix/K/4hdPt/XFLQCMb84ofgTS1PrdpL1fhjcR+pWs/vDDtpRDtdn49L/5N5tn/o3AluJZZrt4ii320YoDunG9SPv/cujQZ/79vxcHNDXlnd2nA+hZ6zNSD3JsMwQZH5EbeUYBtMqN59WC0/6zzz5rM7mxceNG70P2M/nix8WLF4sP5+vs2emFfvGLX0xMTBQ/AslKYZ3qBmZT8+mjjzbRulxTTvUP7d5tAr/ZsMXdp1BE+k4HdJ9VpH3vJQZuU90XBdCbFGakUDm2GYLMjsiNPKMAWuXG82rBab9127dv/8lPfiJrgfSksE51A3PXGncHW1n+wL8o3v29Sd5lk797wIJ7ZAA9S2FGCpVjmyHI7IjcyDMKoFWh8TyztH/o0KGdO3fK2rZxORNciVxx6gbmrjXuDray/IG/LTbSe/cvlC/UL+/50r/+6zP//M/igNUNq9BuJwPp056RNA6r3WZEwHX70Sh1MtftAzVFGyah8bxL2l+9evVkStavX//SSy/JVrZtMrDTMQwm07ibtBuYu9a4O3SqtCoemu6c9r3Pqm5YhXY7GUif9oykcVjtNiMCexK5J38ESp3MPfmBmqINk9AX6pL2Qw83nOgluBJZp7qBuWuNu0OnSqvioemZb/VPveUtPz3y6b3ZtvXeZ1U3rEK7nQykT3tG0jisdpsRAWk/GqVOJu0DNUUbJqEvRNpvQLRvbiAjKaxTf/7ww4/cdZe9hZ4t074I7U37L/+Xe0eeYjzz4IPXv/nN4hb6Nrq7B3TZm/b/9Mg9/6adA15/3HGmlI/jbXwnjEGgmvaMpDEGtduMCEj70Sh9k5+0D9Sk8XvQK3Q8kvYBFSlccSr+N3v7H9q74dytsZXFUwru0eye7tMFN+2X64tDlY8jXku0BECQFGakUDm2GQLX7eeO6/aB1ITG8y4L6NDDAShwN2kA6chxRsqxzRBkfERu5BkF0KrQeE7aB7SwTgWQjhxnpBzbDEFmR+RGnlEArQqN56R9QAvrVADpyHFGyrHNEGR2RG7kGQXQqtB4TtpvAJczwcUVpzHRyUA17RlJ47DabUYEXLcfjVInc90+UFO0YRIaz0n7DaCX4JrkbtIR0clANe0ZSeOw2m1GBPYkck/+CJQ6mXvyAzVFGyahL0TabwC9BBfr1JjoZKCa9oykcVjtNiMC0n40Sp1M2gdqijZMQl+ItN+AaN/cQEb6XKdef9xx3960SdbWc8voqKzq7IW2L8kzf03zl5W1garHYCMvAWStzxmpq+ox2BvtNiMC0n40St/kJ+0DNWn8HvQKHY+kfUBFP1ecvvTLX+654AJZW9vuFStkVWdB/zRQ3/NPPund9iq3of4T6+85HdgnwODpZ0ZqS45thsB1+7njun0gNaHxnLQPaOn5btIigZd/LLZNvjXbtpSzrvgc2zz62L59Yjezg60xG1+/9NJiZ8H7Et5Ke8CnDx4sKouXsK9SHNPrltJf0PvE8g7Fdqc93b9v8VD5R2DY9DwjtSjHNkOQ8RG5kWcUQKtC4zlpH9DS8zpV5FJv1i1XisRefsjE4G+uWyfq3Q0v70uUX+u2Zcvsht3T/bP8aIVOO3vbWV3p/ft6fwSGTc8zUotybDMEmR2RG3lGAbQqNJ6PyIrZQg8HoNDzOrUiphbb9oP0701NFQ8VvPuXt5+8774bf+u3bpn5NL541OV9iYe++tWvvf/9ttz4279tK+2Ry3+WP3jvGrPLO3if+H8efbQ4uNmu2LN8KPHt/a7NAAZbzzNSi3JsMwSZHZEbeUYBtCo0no/IitlCDzecuJwJrn6uOBW5tPyjeMhEcVMz9Za3lCs77V9s//zhh786NlbUVxMv4T2g3XD/rMl7TME9bHm76OROT5+ufAgYeP3MSHVoHFa7zYiA6/ajUepkrtsHaoo2TELj+YismC30cMOJXoJrso+7SV/3X//rjlNOKX4sYuo3160rLlD3fqPe6hSJi+1nH3vMfrYvnih4X6LYKDfGzfnlI1fcGsAqN7LTEx//1rfMyxUf7E/P3vOaI93VKdLvXrGi00PAMOhnRqpD47DabUYE9iRyT/4IlDqZe/IDNUUbJqEvRNpvAL0EV5/r1HI0LW6MZ+8/JypvKd2O7p/37DE/fuZNbzJ/mm1xnGLbW+nyvoS3MXaj/Kf3uS63wZ2e+POHH948Mmu+Ku/5+c2bbWXRJKFTPTAk+pyRutI4rHabEQFpPxqlTibtAzVFGyahL0Tab0C0b24gI32uU02U/famTbK2ITZj3zLz2X71pfu5qB6Dpicr/sUBGAZ9zkhdVY/B3mi3GRGQ9qNR+iY/aR+oSeP3oFfoeCTtAyq6XnFK/gxFjwE96zojJSjHNkPguv3ccd0+kJrQeE7aB7R0upv0T+6///9961u3vuEN8gFU2nLUUbePj5P5gd50mpFSlmObIcj4iNzIMwqgVaHxnLQPaHHXqTbnX/2a12weGRFXoaMr02NXH3XU1qOPJvMDPXBnpPTl2GYIMjsiN/KMAmhVaDzvkjdCDwegUF6nipxP2u9B0W9kfqAHOSbnHNsMQWZH5EaeUQCtCo3nXfJG6OGGE5czwWWvOL1i7dq/+djHtv+X/1IO+UV59O67KfWL6L2rX/e6T7/+9V9auPB/fulL/9/evfIEACjRvgZe47DabUYEXLcfjVInc90+UFO0YRIaz0n7DaCX4Jo8cjfp8485xs35lGbLthUr5AkAUFLMSEq/sDQOq91mRGBPIvfkj0Cpk7knP1BTtGES+kKk/QbQS3AV69RPXnbZVxYv3nr00Vvf8AaRUR/du5dSv8yK9//xP0699a3X/Nqv7Vqy5H9++cufn5iQJwBAiXZy1jisdpsRAWk/GqVOJu0DNUUbJqEvRNpvQLRvbiAjYp36/JNP3nXJJRP/7t9N/NqvFZFVPgeVbKd97j/9p1tOPvna//Afvn7ZZcV1+4xBoJp2ctYYg9ptRgSk/WiUvslP2gdq0vg96BU6HrvkjdDDAbC8V5yKzF/aHd2ZHnNzPoA6vDNS4nJsMwSu288d1+0DqQmN513yRujhABQ63U3aZv6tb3iDfACVTI+R84GedZqRUpZjmyHI+IjcyDMKoFWh8Zy0D2ipXqeSWkPRY0A/qmekNOXYZggyOyI38owCaFVoPCftA1pYpwJIR44zUo5thiCzI3IjzyiAVoXGc9J+A7icCS6uOI2JTgaqac9IGofVbjMi4Lr9aJQ6mev2gZqiDZPQeE7abwC9BNckd5OOiE4GqmnPSBqH1W4zIrAnkXvyR6DUydyTH6gp2jAJfSHSfgPoJbhYp8ZEJwPVtGckjcNqtxkRkPajUepk0j5QU7RhEvpCpP0GRPvmBjLCOjUmxiBQTXtG0hiD2m1GBKT9aJS+yU/aB2rS+D3oFToeSfuACq44BZCOHGekHNsMgev2c8d1+0BqQuM5aR/Qwt2kAaQjxxkpxzZDkPERuZFnFECrQuM5aR/QwjoVQDpynJFybDMEmR2RG3lGAbQqNJ6T9gEtrFMBpCPHGSnHNkOQ2RG5kWcUQKtC4zlpvwFczgQXV5zGRCcD1bRnJI3DarcZEXDdfjRKncx1+0BN0YZJaDwn7TeAXoJrkrtJR0QnA9W0ZySNw2q3GRHYk8g9+SNQ6mTuyQ/UFG2YhL4Qab8B9BJcrFNjopOBatozksZhtduMCEj70Sh1MmkfqCnaMAl9IdJ+A6J9cwMZYZ0aE2MQqKY9I2mMQe02IwLSfjRK3+Qn7QM1afwe9Aodj6R9QAVXnAJIR44zUo5thsB1+7njun0gNaHxnLQPaOFu0gDSkeOMlGObIcj4iNzIMwqgVaHxnLQPaGGdCiAdOc5IObYZgsyOyI08owBaFRrPSfuAFtapANKR44yUY5shyOyI3MgzCqBVofGctN8ALmeCiytOY6KTgWraM5LGYbXbjAi4bj8apU7mun2gpmjDJDSek/YbQC/BNcndpCOik4Fq2jOSxmG124wI7EnknvwRKHUy9+QHaoo2TEJfiLTfAHoJLtapMdHJQDXtGUnjsNptRgSk/WiUOpm0D9QUbZiEvhBpvwHRvrmBjLBOjYkxCFTTnpE0xqB2mxEBaT8apW/yk/aBmjR+D3qFjkfSPqCCK04BpCPHGSnHNkPguv3ccd0+kJrQeE7aB7RwN2kA6chxRsqxzRBkfERu5BkF0KrQeE7aB7SwTgWQjhxnpBzbDEFmR+RGnlEArQqN56R9QAvrVADpyHFGyrHNEGR2RG7kGQXQqtB4TtpvAJczwcUVpzHRyUA17RlJ47DabUYEXLcfjVInc90+UFO0YRIaz0n7DaCX4JrkbtIR0clANe0ZSeOw2m1GBPYkck/+CJQ6mXvyAzVFGyahL0TabwC9BBfr1JjoZKCa9oykcVjtNiMC0n40Sp1M2gdqijZMQl+ItN+AaN/cQEaGc526b9++qamphx56SD6gzDsGb7311nJLqn+sFrQzkCDtGck7BmvqNDaLNi9btuxLX/pSsYOZZNavX1+u0VBn1Lc143l16kbvj50899xzU0fs379fPhyOtB+N0jf5SftATf38HgwSOh5J+4CK4bzi1CwQ586de/vtt8sH2rBo0aJyS6p/rPC9733v1FNPrbkzkKaUZ6ROY9O2+YQTTjBhw8T7YgczyYgaDXWmiMGb8cyqb8GCBeMzzjnnnDr/QFCN6/Zzx3X7QGpC4zlpH9DSz92ky5/DFNveT12uuuqqyy+/3Faed9553//+94uDlHmf6600L2d+/NrXvlZU1nwJq7ym9D7R+1frtOc3vvENW1nxKZM9SPnP6ZnP3Ewe+Ou//utiN3ftu3379q4H/9GPfjQ2NnbiiSfWWSgDKUtzRvr7v//78tgUI9e02Y2posb7it7Zo/6e086rdDJgM175WTV7oCsZH5EbeUYBtCo0npP2AS39rK29Sy7vpy72Yy5baTY6Lc68z/3yl79sDm4rL7rooieeeGJ65uWWLFnyrne9y+xv96z5Ela55d4nev9qnfY866yzli5dOl75KZM9SPnP6dmfuf34xz82G6eeeurmzZvNmrh4Vp2Dm2Xx+vXrm1r1Ai1KakYqJh8zBsvfnREj92//9m/LI9c7lr2v6B3gNff0vkonAzbjXXzxxeYpDz74oDlCxekLIrMjciPPKIBWhcZz0j6gpfG1tVm9rVmz5o477jDba9eu/c53vmMfNUu622dUfOHc+9z3vOc969atE891l5I1X8ISLXefaCovvPBC+6lUeZnr3XPJkiVPPvmkOKzgNrhcbzbuuusus33iiSeaI5u1bPFonYNbXXcA0pfUjFQc5OMf/7j47kx55C5cuLA8cjuNZfcVvQO85p7eV+lE9Iz3+HnNeE899dTKlSvNPhs2bHjhhRfkw+FkdkRu5BkF0KrQeE7abwCXM8HV51Wy3jXcAw88YFZvdr34yU9+8pFHHrGPmspFR9xzzz3l4xS8z73oootOOumkVTPmzZtXrDjFUrLmS1j2KcW2+8THHnvs5JNPtoe9/vrrbQLx7rmodCj7idMrrzGb2e2v/uqv7M7lp5S3q38UD7m67gAkTntGWr16ddCM5D2g+NG2+W1ve9vnP//54tHyDsWP7iuW9ylmj657dtquIJ7iHl9jxrNHK/4s14vdvD+Kh8pMvP+Lv/iL008/XT7QK67bj0apk7luH6gp2jAJjeek/QbQS3BN9ncH7GI1ZhbQZuFlt82K8Iknnrj55pvNo96vidodSod5VfVzv/vd75Y/XxJLyZovYXVaU5afuGDBgrVr15a/Jurds2JJWmZ2+9CHPuQ2VTy94seuL9R1ByBxqc1IxW7lyUc8VLTZDPDi0fIO7o/Vs0fXPTttV+j0FNUZ73bf5FzRLeLHihf6wAc+YNppvwLQCHsSuSd/BEqdzD35gZqiDZPQFyLtN4BegqvPtbVZT2/ZsuWBBx545zvfWawRly9f/tnPfvaBGWeccYb9OKhcec4559hKV/VzV65cWXyZ1l1K1nyJn/3sZ2YH0/Lrrrvu0KFD053bdu+995q/1JVXXll8tdi7Z8WStMy84tjYmDmgeV3bV25L7G6mS4sfa659vYcCsqM9I7397W/vbUYqTz5iuNVM+95X9A7qrnuWt8WM4XInB+/xpxVmPNMwpRnPPGQOYhtmPPPMM3KPQKT9aJQ6mbQP1BRtmIS+EGm/AdG+uSE88fSj7//oaUv+7L9R2iqm/81ZkCdmRp9r68cff9w+3eTYYmVWVBqf+MQnxJ7lSpd3N++ruGnf+1zXbbfdVuy2ePHi6Q4vWtRPTU2JGrFnxZK0zD531apVxXNFS+xIOed9/838eNIf/K49dyfNm3Pm0t9xt0U5492/UxyqeC6Fkmbpc0aq+J1ih4/x+/N/txgvRaVx8llvFXuWK91S7Db/lN8766wz7UgXI7dm2q8/e3Tds7xtd7ZTmVeyM155t+LHTn9NYdHM1zQKnXarj7QfjdI3+Un7QE3R8mDoeCTt56piWUaJWTotr/u8ShZNYaRQhqr0PCO1OFJ6bjPSx3X7ueO6fSA1ofGctJ+lFpdlFLd0Wqr2cwdsNIKRQhnC0sOM1PpI6aHNyIWMj8iNPKMAWhUaz0n7+Wl9WUZxi3epyjq1XYwUytCWoBkpkZES1GZkRGZH5EaeUQCtCo3npP3MJLIso7jFXaqyTm0RI4Uy5KXmjJTUSKnZZuRFZkfkRp5RAK0Kjeek/QZEu5zJuyx7/0dPeeLpb01PP0yJWUyfm553zsWrS1WuOI1JdLJ3pFz40dMOPP3oI9PTFMrgFfPevtB5z3edkbwj5aJVv/e/rrj4lxtXaxfzKua1QtuMvHDdfjRKncx1+0BN0YZJaDwfkRWzhR5uOMXpJe+yjKjfYqkO/JM17oCNppQ72TtSiPqUgS/Vgd+dkbwjJVrUt6U68LttRnbsSeSe/BEodTL35AdqijZMQl9oRFbMFnq44RShl7zLMqJ+66Ui8LNOjak6wBD1KUNSKgK/mJG8IyVy1LelIvAziw4A0n40Sp1M2gdqijZMQl9oRFbMFnq44aT9zQ3vsoyon0jpFPi3fPpTrFOjsWPQO1KI+pShKp0Cf3lG8o6UVqK+LZ0CP7PoACDtR6P0TX7SPlCTdh4shI7HEVkxW+jh0Djvsoyon1TxBv4/ufjkNX9+GVecRuMdKUR9yhAWb+AvZqSv3bnbHSktRn1bvIGfWXQAcN1+7rhuH0hNaDwfkRWzhR4OzfIGmOGJ+rfe+oWHHtpXp7L14g38F31kgb36FNq8I4Won3L5wq23/sNDDxU//vC55yampmz5yv797v6UoOIN/GZG+scfftsdKRGi/o6V5/7TmvcXP/5s3QevP2+JLff86Zit9AZ+ZtEBIOMjciPPKIBWhcbzEVkxW+jh0CBvgBmeqG/KokVn3n77TeWa733vzlNPPVlUJlK8gd9efSpPLRrlHSlE/cTLmYsW3XT77cWPn5qc/MMFC1aMj5uy6Jxzyv8QQOmteAP/0lW/K2oiRH1TFr7t93dfeF7x41+9Z/GCeXMvPO0UU945/23FPwR4Az+zaO5kdkRu5BkF0KrQeD4iK2YLPdywEYsS7ZJs1L/qqnWXX/5nU1NbTTnvvHd///t3Ts/+EL7Y7rTnN77xN7Zy//6vFIcVaf9HP7pnbOzcE088Mc20P90h8FPiF6J+g2XdVVf92eWX20/d333eeXd9//uPzP5kvtjutOet3/iG+6G9SPvlH8VDlJ6LN/CXixv1P7l40ZqFp9tP3f/klNH7L73wl7M/mS+2O+359YvPFx/a/9JJ++UfxUPewE+hUCgUCsXGz9B4PiIrZgs93LBxT4NeSTbqmzJ37klz5syZ+Vhuhdmwabyc1YvtTnueddZpS5e+y1Sec86ihx7a9+Mf32seOvXUkzdvXr9v35fsQfbv/8r69WvcD/yTKkXgX7T8d0bP+N3RM95qNtyzSdErRP1my0lz55qhaj91Nxs2h3vDeac9Tz/rrHctXVp8aP+dH//YPPSHp566fvPmL+/bZw+y8uKLzfa+Bx80DxXPpfRfisDvzkhu1Ddl7gknmP63n7qbDZvDveG8055n/sG8d5/89uJD+0c+9KfmoVPnnXTVH79j75H8//4zTv2bleeaelOK57qB320zJbtizt2pf8QZzLhwBimUdIqNn6HxfERWzBZ6uGHjnga98t3vvxJ6EywmgZtYbkK4jehFhr/wwuUmut966xfKwd6755Il73zyyQN221TeddctZuPEE080+1x88UrxWimnfVPMmTLny/x2nDPDbLhnk6JXbv/+KwGS0kgxcd3E8pdH7ExELzL8igsvNNH9C7feWg723j3fuWTJgSeftNumcsddd5kNM7rNPibkFy/0P5566j0rV5qH/nzDhn964QW3JZTeihkRS3wz0nc+cr6I+jaum1huc7iJ6EWGf99pf2ii+46V55aDvXfPPx59+2Mf/jO7bSq/dtEKs3Hi8cebfUzIL15o35+tNPWmLD15/v+a2b9cTNu8baZkV+xJ5AzmWziDFEo6xcbP0Hg+IitmCz3csHFPg15J+bN9k8BNLDd/2nLPPbeaysce+/bJJ883K39Tc/31W55//oed9iwH+E7b5ddyK9MpxWf7rFPbKny232wxA9XE8ldG7KJFO++5x1Te+9hj808+2UR3U7Pl+usPPf98pz1twi8O5d02xcT7y//iL049/XS3AZR+SvHZvjsjeT/bN/HbxHKbw035+sUv/4vAwx/605NP+j0T3U3NF/5k8TPrPthpT5vwi0N5t91X7PTZvttmSnaFrJh74QxSKOkUGz9D4/mIrJgt9HDDxj0NqiXZwF9O4CbAP/HEfXZ7wYI/XLv2kjlHPtjvtGenhO8N9t7KREr5un3WqS0WAn+DpRzLTYA/8MQTdvsPFyz44Nq1c0rfuvfu2Snhi7T/vg98wBzKfgWA0lQpX7fvnZHcwF/O3ibAF5+6L5g398OLzphT+ta9d89OCV9E+vKNAMRD5ev2vW2m5FXIirkXziCFkk6x8TM0no/IitlCD4cGee80nmbgX7586Wc/+4kHHrjDlHPOWWg/sTfl3ntvM78krrzyv9sP9jvt2Snhn376qVu2bDh0aK/98Wc/+0fzLFN53XVXF5XpFHGLPnvF6envmPe1O3fLU4tGeUcKgb+psnT58k9+9rMvj9gHHlh0zjn2E3tT/u7ee83o/u9XXmk/2O+0Z6eEf+rpp2/csuUbhw4VD2257jr7XFO+98wzohmU0CJu0ffKNfBn/q64/lYE/vNOGb122Tnf/eD7THnn2//AfmJvyv4PrDSn+2PvWmg/2O+0Z6eEf/rvz9285I++f9l4+Uf73PK/IIhb9DGLDoD77rtvYmLi7rvvlvd5RybMuTNZwJxHeWoBtCQ0no/IitlCD4dmeWNMgoH/8ce/Yz+BMT7xibWifmpqa/WendK+3Xnx4nfYH2+7bap4blGZSPHejZ//KToa70gh8DdS7nv88WLcfeQTnxD1E1NT1Xt2Svt253csXlw8VDx3Dnfp67t478ZvZqR//OG33ZFSDvyPfuhPi7Nw5bsW2sqi/vrzlogasWentG93ftf8t9kfd8/cnM9advLbn1q76pdO1C/azCyaOxkfkRt5RgG0KjSej8iK2UIPh8Z5Y0yCgX+Yizfqm7P20COH5OmEGu9IIfBThrB4o34xI3lHivuV/sjFG/WZRQeDzI7IjTyjAFoVGs9HZMVsoYeDBu/ijMCfSOkU9c1Ze/755+W5hCbvSCHwU4aqdIr65RnJO1JaDPydoj6z6GCQ2RG5kWcUQKtC4/mIrJgt9HDDKcLlTN7FGYG/9VIR9c27Yt26dRs2bIjw9kDRyd6RQuCnDEmpiPpiRvKOlFYCf0XUZxYdAFy3H41SJ3PdPlBTtGESGs9HZMVsoYcbTnF6ybs4I/C3WCqi/vTMu8JelRrn7THkyp3sHSkEfsrAl4qob8eImJG8IyVy4K+I+t42Izv2JJrAL0MkmqbUyeawjEGgjmjDJPSFRmTFbKGHG07Resm7OCPwt1Kqo/4069S4RCd7RwqBnzLApTrq2zHizkjekRIt8FdH/U5tRl5I+9EodTJpH6gp2jAJfaERWTFb6OGGU7Rvbkx3WJxRUijlReo069S43DHISKEMeak5IyU1Umq2GRkh7Uej9E1+0j5Qk7sWVRI6Hkn7+UlqcUaxRSxSp2fGPFectouRQhnaEjQjJTJSgtqMXHDdfu64bh9ITWg8J+1nKZHFGcUWd5FqcTfp1jFSKENYepiRWh8pPbQZuZDxEbmRZxRAq0LjOWk/V60vzii2dFqkTrNOTQMjhTJUpecZqcWR0nObkQWZHZEbeUYBtCo0npP2M9bi4oxiS8UidZp1ajIYKZQhKX3OSK2MlD7bjPTJ7IjcyDMKoFWh8Zy03wAuZ4KLK05jopOBatozksZhtduMCLhuPxqlTua6faCmaMMkNJ6T9htAL8E1yd2kI6KTgWraM5LGYbXbjAjsSeSe/BEodTL35AdqijZMQl+ItN8Aegku1qkx0clANe0ZSeOw2m1GBKT9aJQ6mbQP1BRtmIS+EGm/AdG+uYGMsE6NiTEIVNOekTTGoHabEQFpPxqlb/KT9oGaNH4PeoWOR9I+oIIrTgGkI8cZKcc2Q+C6/dxx3T6QmtB4TtoHtHA3aQDpyHFGyrHNEGR8RG7kGQXQqtB4TtoHtLBOBZCOHGekHNsMQWZH5EaeUQCtCo3nXdL+6tWrJwH0ZNu2bbIKAFqS44yUY5shTCBz8owCaNWaNWtkYq/UJe1PBv7jwXDicia4uOI0JjoZqKY9I2kcVrvNiIDr9qNR6mSu2wdqijZMQuM5ab8B9BJck9xNOiI6GaimPSNpHFa7zYjAnsQJ7smvT6mTJ7gnP1BPtGES+kKk/QbQS3CxTo2JTgaqac9IGofVbjMiIO1Ho9TJpH2gpmjDJPSFSPsNiPbNDWSEdWpMjEGgmvaMpDEGtduci1tGR2VVPkj70Sh9k5+0D9Sk8XvQK3Q8kvYBFVxxCiAdOc5IObZZQ9Zpn+v2c8d1+0BqQuM5aR/Qwv8dBSAdOc5Iabb5+uOOMwm8KLaynMmLbbvn0wcPmj+ff/LJTs91mZ3tDo/t21f9EsU+xUukRsZH5EaeUQCtCo3npH1AS5rrVADDKccZKc02d0rdnSrdP8VurtuWLbMb31y37vrjjrPb3ueaR80+7g7pkNkRuZFnFECrQuM5aR/QkuY6FcBwynFGSrPN3tRdUen+KXZzeXfrWrl7xYpiOx0yOyI38owCaFVoPCftN4DLmeDiitOY6GSgmvaMpHFY7Tb3rGvqbivtJ4jr9qNR6mSu2wdqijZMQuM5ab8B9BJck9xNOiI6GaimPSNpHFa7zT0rf3m++Mp9kbrd796X//Q+11X9TX5vZZrsSeSe/BEodTL35AdqijZMQl+ItN8AegmuZNepA4lOBqppz0gah9Vuc89u8d0Yr+K+euJP97ku79G8lcVGmkj70Sh1MmkfqCnaMAl9IdJ+A6J9cwMZSXadOpAYg0A17RlJYwzWbPOvXnxRVinrJ2C7z7V37C8XsUPKunY+aT8apW/yk/aBmjR+D3qFjkfSPqAi2StOAQyhHGekrm1+5sEH97z3vd+68kr5AGIxnW9OgTkR8oEjuG4/d1y3D6QmNJ6T9gEtad5NGsBwynFG6tRmm/OvPuqozSMj/7Bxo3wYsZjON6fAnIiKzC/jI3IjzyiAVoXGc9I+oKXTOhUA4stxRnLbXM75tpD2W2TTvi2dMr/MjsiNOKEA2hUaz0n7gBZ3nQoAbclxRiq32c35pP3WldN+p8wvsyNyUzrhANoXGs9J+w3gcia4ul5xigbRyUA17RlJ47BFm++85ZadZ5559eteJ4KlLbvHxh69+25KK8V0/v/f3v33VnHdeRxPVVV9DPmjUp9BQ82PmArhEockBSdsgY1AcXEacIO2JpGdQKAE06Y0Kan5FSPhNQVKBRKrtSIaiYVtIpM0pRspTonaRHHZP7pJlSggoZVIQGhh2ROfZnZyztzxHHu+Z+Z7/X7po+p6PIxPZzLH8+HeGfwj8lnn//KXzSG7eP489+1HI7STuW8fKCjaaRJaz2n7JWAvwTdU7GnSKAU7GcgnPSNJbDYZc9fXvub3SVL/7PrqV3++aRPP5I9DaCfzTH6goGinSegPUtP2BwcHz507l15y/fr1gYGBd955J71QwtGjR0+fPu0uTanPXkJ9SF9bI42dDOSTnpEkNpuMedePfzzyne/8/TP8X/qSUyk/e2//7FlSSTLe2584QOZgmUN28fx5exCFiijShHYybR8oKNppEvqDgtu+ad0DKU4Dl9PW1uYMZteuXWbhK6+8kl4oYcOGDWamy/l/Gu2TG1BE+toaaZyDQD7pGUniHHTGbO/bH/jKV5zOz337FfrCffsTB8UcoPR9+7T9aIQ+yU/bBwqS+D2YKfR8DG77bRM6JsyZM8dfQYjf9v0lcmL+LDQH6btkAaA4jTNS5pi/0Plp+1VLt32n51vct68d9+0DdRPaSafS9pOFyWv7oXor+dC7/9l7u6TRyseOHXMWJmseOnTI6dtm/fvuu+/EiRPpJf4W0mNIXicfTzh58mR6/cwtWJ2dnQsWLMh5ex/waXwCNoBmpXFGajTmdOen7VfItv3Mnp9w6yO0cY8ogEr59TxfOW3/6aefbmlpsW/4mxdnz55Nfzep2XbJ/v370yuPjY3Zb9kP7NmFdv1kTfO/ra2t6cH4b7abJbNnz07WTzbrj7ZtglltyZIl6Z+YuYX09v29AeRodJ0KAPFpnJHyx2w7/x9++lP3G4jF7Pycnm+53RHauEcUQKVCC+lU2n53d/fQBFOJN27caBdmlurMF0uXLj1y5Ii/suFU9OTFk08+aXp4ejB+9zZLWltb33jjjfR3gwaWuYWEvwTIl3+dCgAxaZyRioz5f2/ccBchliI73+2O0MY9ogAqFVpIp9L2TSVu+/yt+M2bN9uFyV8BJG/CNyrVhw8fXr9+faOVb018bN5+RD+zq2d+6Szxf3TmQudF5soJf0mC25ngy7zjFELYyUA+6RlJYrNmm8vXLp+3fN7KZ1b2n+wnGrPimRXzHprX+0Kv2yBRNqGHI3DfPlBQtNOkUSFtZCpt3y586KGHkqf0tX3+VwCWfeu+Uam2n5a3aybv2CfrpKUXOiv462eunL/QeZG5csJfkmi0HDPZkPATsJHGTgbySc9IEptNxnz7kttvW3sb0Rhz7MwRnNc5zy2RKJvQP3zAM/mBgqKdJqE/aOptP/06vdBU/UYfyHdK9alTpzLf209krpl86/HHH3/33XfTS7q7uz/44IP0H0xejI6Ozp8/P3M8yYvMLVgnT57MmewaLcdMNiR8bY00djKQT3pGkthsMubWNa3bf7OdaIw5duYILl632C2RKBttH6hWtNMk9AeV0/YXTzg+YeHChfa9fdOuzQpmiZkmenp67AuzfrKy+TL/vf3MNRPOHzFfzpkzZ8eOHXZ9fwzJbJXT9v0tJBv3h5eI9skNKDIkfG2NNM5BIJ/0jCRxDiZjXtW7yv0elDDHzhzBlRtWuiUSZRP6JD9tHyhI4vdgptDzsZy2f+XKFfsr2dj++b+Fkyzs6+tLfytZvnz5cr94p2WumWht/ewvjMfHx+2XZoWurq70D7rVYAuNXmRuwRgZGWlhpkMg6btkAaA4jTOSGWpHV8fX7/56z74e93tQ4of7fnj7ktu7f9HtlkgowX37QN2EdtLgtl8fn3zyiennp0+ftl/6fx0QqtEW1q5d+9xzz7lLgckUeZo0AMShcUba8q9bblt72/bf/P/fv0OX/pP95ghuOrHJLZHQwz2oACqVWVdzKG77jkZdvbjpbwFI03htDaBZaZyRaPva0fabgHtQAVQqtK42T9sH6kbjtTWAZqVxRqLta0fbbwLuQQVQqdB6TtsvAbczwafxLlm92MlAPukZSWKz3LffBLhvPxqhp/Rx3z5QULTTJLSe0/ZLwF6Cb0j4CdhIYycD+aRnJInNJmPmmfx68Uz+aPgX+IBqRTtNQn8Qbb8E7CX4pK+tkcZOBvJJz0gSm6XtNwHafjS0faBa0U6T0B9E2y9BtE9uQBHpa2ukcQ4C+aRnJIlzkLbfBGj70Qh9kp+2DxQk8XswU+j5SNsHREjfJQsAxWmckbhvvwlw37523LcP1E1oPaftA1I0PgEbQLPSOCPxTH7teCZ/E3APKoBKhdZz2v507f7t7oU7F3Yd6jK/0ghJx1yn+gsJIaSSaJyRFjy3wHTFrsNd7q9eKLHm0BpzBL/1s2+Zwk+Uxj8xCSGRc3b8bDKvhtZz2v50mapvfpMRQgghRCJtz7e5v3qhBNdIhBAy/aQ/4xZaz2n707X35b0t21q6DneZw0BIkp59Pfc/fP+y7y8zL/zvknLTfaDbX0gISSI9I0mcg2aod62+684Vd2755y3ur14oYY7dvM55y/qX+e8Yk3LTta/LXzj9dP+ie1XvKqF5g5BmisTvwSS8t18x9hJ8ydOk+c8jAnYykE96RpLYrPSYEYE9iEL/OBzShHYyz+QHCop2moT+INp+CdhL8HGdGhM7GcgnPSNJbFZ6zIiAth+N0E6m7QMFRTtNQn8Qbb8E/MMk8HGdGhPnIJBPekaSOAelx4wIaPvRjI6OuovKQNsHCpL4PZgp9Hyk7QMiNP7r1gCalcYZSeOY4TDHztRFoSKKCMyxM12AcxCoj9B6TtsHpGj8160BNCuNM5LGMcPh1kdo4x5RAJUKree0fUAK16kA6kPjjKRxzHC43RHauEcUQKVC6/kkbb+3t3eofg4cOPDYY4+5S4GaGRwcdBcBQEU0zkgaxwzHHijnHlEAlerr63Mbe65J2v5Q4F8exDEyMjI+Pu4urQ63M8HHHacxsZOBfNIzksRmpceMCLhvPxqhncx9+0BB0U6T0Hqur+1fvHjx4MGD7tJK1XAvoXJDPE06InYykE96RpLYrPSYEYE9iHt4Jr88oZ28h2fyA8VEO01Cf5B42x8cHDx37py71HP06NGBgYEia+7evfvatWvu0kpNfy+h+XCdGhM7GcgnPSNJbFZ6zIiAth+N0E6m7QMFRTtNQn/QFNt+wQ5vtLW1NdpI2oYNG+bMmTPpmr+b4C6tWrRPbkARrlNj4hwE8knPSBLnoPSYEQFtPxqhT/LT9oGCJH4PZgo9H6fY9gt2eKOzs/PEiRPu0iyTbvPq1atm0nGXArXEHacA6kPjjKRxzHBw37523LcP1E1+X/aV0/YHBwePHTs2MOH06dPJcv/z+devX7erOWve8rbpGx4evnTpkrsUqCv+7SgA9aFxRtI4Zjjc+ght3CMKoFL5fdkX3PbPnDljFra2tnZ3d5sXH3744a2Jom4/btfR0WH+N6n3/ufz9+/fb1eza46NjSXfym/74+PjIyMj7lKgxrhOBVAfGmckjWOGw+2O0MY9ogAqldOXMwW3/a1bt5paPnv2bFP4zYvz58/fmijqhq3uTml3vly6dOmRI0cyv5XT9m/evLlz507zv+43gBrjOhVAfWickTSOGQ63O0Ib94gCqFSjvtxIcNu3coq6c6O+s+bhw4fXr18/NKG1tbXRRhwjIyPj4+Pu0trgdib4uOM0JnYykE96RpLYrPSYEQH37UcjtJO5bx8oKNpp0qgvN1J+23c435o9e3ZLS4v9LIB5XWQjFy9ePHjwoLu0TjKHjRluiKdJR8ROBvJJz0gSm5UeMyKwB5Fn8kcgtJN5Jj9QULTTJPQHxW77yZenTp0q+N7+7t27r1275i6tk8xhY4bjOjUmdjKQT3pGktis9JgRgT2IQkUUaUI7mbYPFBTtNAn9QVNs+/Pnzzfl/Pjx4x9//PGtBkX9tddeMyuYNXt6epI1F08wX5q5I3lvP3NN63cTki/rKdonN6AI16kxcQ4C+aRnJIlzUHrMiIC2H43QJ/lp+0BBEr8HM4Wej1Ns+1euXLG/gzOfzGf19fXZddJrJn9w+fLlyZ/KXNO4evWqmWXS2wS04I5TAPWhcUbSOGY4uG9fO+7bB+rGL935ptj24xgeHr506ZK7FFCCp0kDqA+NM5LGMcPh1kdo4x5RAJUKref1bfvj4+MjIyPuUkAPrlMB1IfGGUnjmOFwuyO0cY8ogEqF1vNJ2n5vb+9QRbZt23bz5k13QIAeXKcCqA+NM5LGMcPhdkdo4x5RAJUaKrfth25uZuJ2Jvi44zQmdjKQT3pGktis9JgRAfftRyO0k7lvHygo2mkSWs9p+yVgL8E3xNOkI2InA/mkZySJzUqPGRHYg8gz+SMQ2sk8kx8oKNppEvqDaPslqGovfXTx/Ud/tHjlP32D1DDtD8yy16nmhf9dQgiJGY0zksYxEyf2IHIE65zuze3vXfiT2/I/N2nb/9tHf1331N3+ZgkhpceedDnnYybafgmifXIjjapf83CdSgipTzTOSBrHTJzQ9lUkp/Dnt32qPiExY8+7RudjI7R9laj69U9H5x1t936z7d5Z5oX/XUIIiRmNM5LGMRMn5tiZqs8RrH8aFf6c+/ap+oREjj31Qus5bV8fqj4hhBBCCCkxjQq/exk6gapPSPzYsy+0ntP2laHqE0IIIYSQ0pNZ+N0rUao+IRXFnoCh9Zy2r0lm1V/3VPtbb7/z/vv/TQghhBBCSJGYq0dzDelcVfqF37kWzaz6XIsSEiH2HAyt57T9EmTezlQ6qr6unDr16hNPbDExL/zvEkJIzGickTSOmTgxx27nzr0cwdpm0sLv3LdP1SekwtjTMLSe0/ZLEGEvUfXVxVzf2KdJmxf+dwkhJGY0zkgax0yc2IPIEaxz8gt/+pn8VH1Cqo1thaHFk7ZfAum9RNXXGK5TCSH1icYZSeOYiRPavorkFP6k7VP1Cak8thiGFk/afglEP8lP1VcarlMJIfWJxhlJ45iJE9q+ljQq/DuefcYcwecHfk7VJ6Ty2G4YWs9p+7VG1dcb7jglpPQMD//63Lm3/eV+iqz54otn9u494KxW5A9qjMYZSeOYiRPu21eUzMK/6tG2n+zoX/WDbxe5Fi0+fxZZ05mix8c/NF/anDz5W399Qpo+th6G1nPafn1R9QkhJJ377lty/PiL/nI/RdY0l4x33tmaXu2VV/5j0aK7Jv2DhBDSlPELf/fmex7ZtKjgtWiRibf4ms4U/fzz+xYtal+z5vsmHR0PTPqXBYQ0X2xDDK3ntP1pcaY/6TSaXgkhZCbEuUAcHv71yMi/+W/1vPjimZaWlhdeGLZf5rwjlN7g66+fX726c+7cuZNegxJCSLMmXfg/q/obi1b994Wn6EavCZk5sfUztJ7T9qfFL+RyyZleCSGkufPmm++Za7tFi+7atm2HuVK0C80F3z333Pvd765w3upx3hH65S+PmzXtO0JdXY+Mjf0l2Wz6ktFcZfb1PcVFJCFkhscW/qCqH2GKfvjhdWbLv//922ZJS0sLEzWZgbH1M7Se0/anxe/kcvn3s3+fPYmKcMcpISXmxImXzGXf3LlzzdWkueazC82SZcuWv/XWBfs6ffGX/nLFigd7ezeZL+3FaKPVGi1pjmickTSOmTjhvn2lMdecPf3LzMVnR+cd7Q/MMv+bfy0aZ4r+4x//c/Xq75mFTzyx+cKFj5PlhMyQ2PoZWs9p+9Pid3K5NPr7VFLP8DRpQkpPzvWifdsn81tdXY/Mm3fnunXrTVpbv3Cjvt/t/SXNEY0zksYxEyc8k19j0u/tm6pvjqD53yLXoqJTtKn3Gzf+qL19cfJdQmZabP0Mree0/WnxO7lo8idZUqtwnUpI6cm5lMxZM3l95szr+W8cZS5pjmickTSOmTih7auLc9/+khXz020//1pUdIpeu/ZRMxL7SQFCZmZs/Qyt57T9Erz55pvuojLwTH7V4TqVkNLT3r54+/afvfrqmP0y81Lyz3/+r5df/oNZc2Bg0K754IOrn312l1m4evX3kofw+av5S5opGmckjWMmTmj7uuI/k3/pPy5w2n7OtajoFG22Zl6bhTbvmJ/vDYCQ5o5tiKH1nLZfaxR+veGOU0JKz9jYuLnuvP/+f7BfZl5K/upX/2IrYrKm/VPG6tWdyR/xV/OXNFM0zkgax0yccN++ovhV32TVo20/2dG/6gffLnItKjpFm28lS1p4Sh+ZkbH1MLSe0/brjsJPCCGEEELkkln1uze3v3fhT+Za9G8f/XXdU3dzLUpItbHdMLSe0/YVoPATQgghhBCJ5FT9y5cv22tRCj8hlceejKH1nLavA4WfEEIIIYSUm/yqn7T9WxR+QqqOPRND6zltvwRCT+lzUPh1hTtOCSH1icYZSeOYiRPu2695Jq36o6OjpgskF7oUfkIqjD0NQ+s5bb8E0fYShV9ReJo0IaQ+0TgjaRwzccIz+eucSau+sWfPHnME0xe6FH5Cqoo9B0OLJ22/BDH3UmbhJzVM+wOz7HWq8+/WEEJI/GickTSOmTixB5EjqCVO1c9s+7caFH5CiHTsCRhaPGn7JYjzSf4EhV9FuE4lhNQnGmckjWMmTmj7iuJX/UZt/xaFn5AqYs8+/3zMR9tXicJf/3R03tF27zfb7p1lXvjfJYSQmNE4I2kcM3Fijp2p+hzB+iez6l/27ttPo/ATEjn21Aut57R9rSj8hBBCCCFkmmlU9S33AjSFwk9IzNjzLrSe0/YVo/ATQgghhJApJ7/qX85t+7co/IREjD3pQus5bR+Q8umnn7qLAKAiGmckjWOGw+2O0MY9ogAqFVrPafslyLydCTOc+a9i69at/f39/OcRATsZyCc9I0lsVnrMiMAcuz179oyOjroNEmUT2sk59+0DSIt2moTWc9p+CdhL8Jn/KuzTpPnPIwJ2MpBPekaS2Kz0mBGBPYim8LslEmUT2smNnskPwBHtNAn9QbT9ErCX4OM6NSZ2MpBPekaS2Kz0mBEBbT8aoZ1M2wcKinaahP4g2n4Jon1yA4pwnRoT5yCQT3pGkjgHpceMCGj70Qh9kp+2DxQk8XswU+j5SNsHRHDHKYD60DgjaRwzHNy3rx337QN1E1rPafuAFJ4mDaA+NM5IGscMh1sfoY17RAFUKrSeT9L2X3rpJXcRgGJu3LjhLgKAimickTSOGY7/gXLuEQVQqdB6PknbBwAAAAAA6tD2AQAAAABoNrR9AAAAAACaDW0fAAAAAIBmQ9sHAAAAAKDZ0PYBAAAAAGg2tH0AAAAAAJoNbR8AAAAAgGZD2wcAAAAAoNnQ9gEAAAAAaDb/Bxo3R5V6ejQAAAAAAElFTkSuQmCC;" parent="1" vertex="1">
            <mxGeometry x="-1740" y="1723" width="1921.9" height="717" as="geometry" />
          </mxCell>
        </UserObject>
        <mxCell id="i6j7QwNUQumE6ex7yG9b-4" value="" style="rounded=0;whiteSpace=wrap;html=1;fillColor=#FFFFCC;opacity=30;strokeColor=none;movable=0;resizable=0;rotatable=0;deletable=0;editable=0;locked=1;connectable=0;" parent="1" vertex="1">
          <mxGeometry x="311.37" y="1740" width="360" height="780" as="geometry" />
        </mxCell>
        <mxCell id="i6j7QwNUQumE6ex7yG9b-5" value="System flowchart" style="text;whiteSpace=wrap;fontFamily=Consolas;fontSize=30;fontStyle=1;labelBorderColor=none;labelBackgroundColor=#FFFFCC;" parent="1" vertex="1">
          <mxGeometry x="361.5" y="1120" width="272.9" height="40" as="geometry" />
        </mxCell>
        <mxCell id="i6j7QwNUQumE6ex7yG9b-6" value="&lt;div style=&quot;&quot;&gt;&lt;span style=&quot;font-family: Consolas; background-color: transparent; color: light-dark(rgb(0, 0, 0), rgb(255, 255, 255));&quot;&gt;&lt;font style=&quot;font-size: 26px;&quot;&gt;1ms&lt;/font&gt;&lt;/span&gt;&lt;/div&gt;" style="text;whiteSpace=wrap;html=1;align=left;direction=east;fillColor=#99FFFF;rotation=0;movable=1;resizable=1;rotatable=1;deletable=1;editable=1;locked=0;connectable=1;" parent="1" vertex="1">
          <mxGeometry x="200" y="2058.75" width="45.5" height="37.5" as="geometry" />
        </mxCell>
        <mxCell id="i6j7QwNUQumE6ex7yG9b-7" style="edgeStyle=orthogonalEdgeStyle;rounded=0;orthogonalLoop=1;jettySize=auto;html=1;exitX=0.5;exitY=1;exitDx=0;exitDy=0;entryX=0.5;entryY=0;entryDx=0;entryDy=0;" parent="1" source="i6j7QwNUQumE6ex7yG9b-8" target="i6j7QwNUQumE6ex7yG9b-27" edge="1">
          <mxGeometry relative="1" as="geometry" />
        </mxCell>
        <mxCell id="i6j7QwNUQumE6ex7yG9b-8" value="&lt;span style=&quot;font-family: Consolas; font-size: 20px;&quot;&gt;training trial(begin)&lt;/span&gt;" style="shape=trapezoid;perimeter=trapezoidPerimeter;whiteSpace=wrap;html=1;fixedSize=1;strokeWidth=3;fillColor=#FFFFCC;movable=1;resizable=1;rotatable=1;deletable=1;editable=1;locked=0;connectable=1;" parent="1" vertex="1">
          <mxGeometry x="315.5" y="1690" width="351.75" height="40" as="geometry" />
        </mxCell>
        <mxCell id="i6j7QwNUQumE6ex7yG9b-9" style="edgeStyle=orthogonalEdgeStyle;rounded=0;orthogonalLoop=1;jettySize=auto;html=1;exitX=0.5;exitY=0;exitDx=0;exitDy=0;entryX=0.5;entryY=0;entryDx=0;entryDy=0;" parent="1" source="i6j7QwNUQumE6ex7yG9b-10" target="i6j7QwNUQumE6ex7yG9b-58" edge="1">
          <mxGeometry relative="1" as="geometry" />
        </mxCell>
        <mxCell id="i6j7QwNUQumE6ex7yG9b-10" value="&lt;span style=&quot;font-family: Consolas; font-size: 20px;&quot;&gt;training trial(end)&lt;/span&gt;" style="shape=trapezoid;perimeter=trapezoidPerimeter;whiteSpace=wrap;html=1;fixedSize=1;strokeWidth=3;fillColor=#FFFFCC;movable=1;resizable=1;rotatable=1;deletable=1;editable=1;locked=0;connectable=1;direction=west;" parent="1" vertex="1">
          <mxGeometry x="315.5" y="2550" width="351.75" height="40" as="geometry" />
        </mxCell>
        <mxCell id="i6j7QwNUQumE6ex7yG9b-72" value="" style="edgeStyle=orthogonalEdgeStyle;rounded=0;orthogonalLoop=1;jettySize=auto;html=1;" parent="1" source="i6j7QwNUQumE6ex7yG9b-27" target="i6j7QwNUQumE6ex7yG9b-71" edge="1">
          <mxGeometry relative="1" as="geometry" />
        </mxCell>
        <mxCell id="i6j7QwNUQumE6ex7yG9b-27" value="&lt;span style=&quot;font-family: Consolas; font-size: 20px;&quot;&gt;store slot start_time&lt;/span&gt;" style="rounded=0;whiteSpace=wrap;html=1;movable=1;resizable=1;rotatable=1;deletable=1;editable=1;locked=0;connectable=1;" parent="1" vertex="1">
          <mxGeometry x="371.3699999999999" y="1800" width="240" height="40" as="geometry" />
        </mxCell>
        <mxCell id="i6j7QwNUQumE6ex7yG9b-83" style="edgeStyle=orthogonalEdgeStyle;rounded=0;orthogonalLoop=1;jettySize=auto;html=1;exitX=1;exitY=0.5;exitDx=0;exitDy=0;entryX=0;entryY=0.5;entryDx=0;entryDy=0;" parent="1" source="i6j7QwNUQumE6ex7yG9b-30" target="i6j7QwNUQumE6ex7yG9b-82" edge="1">
          <mxGeometry relative="1" as="geometry" />
        </mxCell>
        <mxCell id="i6j7QwNUQumE6ex7yG9b-30" value="&lt;font face=&quot;Consolas&quot;&gt;&lt;span style=&quot;font-size: 20px;&quot;&gt;output controller&lt;/span&gt;&lt;/font&gt;" style="rounded=0;whiteSpace=wrap;html=1;movable=1;resizable=1;rotatable=1;deletable=1;editable=1;locked=0;connectable=1;" parent="1" vertex="1">
          <mxGeometry x="371.37" y="1950" width="240" height="45" as="geometry" />
        </mxCell>
        <mxCell id="i6j7QwNUQumE6ex7yG9b-31" value="" style="edgeStyle=orthogonalEdgeStyle;rounded=0;orthogonalLoop=1;jettySize=auto;html=1;" parent="1" source="i6j7QwNUQumE6ex7yG9b-32" target="i6j7QwNUQumE6ex7yG9b-34" edge="1">
          <mxGeometry relative="1" as="geometry" />
        </mxCell>
        <mxCell id="i6j7QwNUQumE6ex7yG9b-32" value="&lt;font face=&quot;Consolas&quot;&gt;&lt;span style=&quot;font-size: 20px;&quot;&gt;sensor input reader&lt;/span&gt;&lt;/font&gt;" style="rounded=0;whiteSpace=wrap;html=1;movable=1;resizable=1;rotatable=1;deletable=1;editable=1;locked=0;connectable=1;" parent="1" vertex="1">
          <mxGeometry x="371.37" y="2020" width="240" height="50" as="geometry" />
        </mxCell>
        <mxCell id="i6j7QwNUQumE6ex7yG9b-34" value="&lt;span style=&quot;font-family: Consolas; font-size: 20px;&quot;&gt;update event_state&lt;/span&gt;" style="rounded=0;whiteSpace=wrap;html=1;movable=1;resizable=1;rotatable=1;deletable=1;editable=1;locked=0;connectable=1;" parent="1" vertex="1">
          <mxGeometry x="371.37" y="2180" width="240" height="50" as="geometry" />
        </mxCell>
        <mxCell id="i6j7QwNUQumE6ex7yG9b-35" value="&lt;div style=&quot;text-align: center;&quot;&gt;&lt;span style=&quot;background-color: transparent; color: light-dark(rgb(0, 0, 0), rgb(255, 255, 255)); font-size: 20px;&quot;&gt;&lt;font face=&quot;Consolas&quot;&gt;a event is end&lt;/font&gt;&lt;/span&gt;&lt;/div&gt;" style="text;whiteSpace=wrap;html=1;" parent="1" vertex="1">
          <mxGeometry x="510.5" y="2440" width="165" height="50" as="geometry" />
        </mxCell>
        <mxCell id="i6j7QwNUQumE6ex7yG9b-36" style="edgeStyle=orthogonalEdgeStyle;rounded=0;orthogonalLoop=1;jettySize=auto;html=1;exitX=0.5;exitY=1;exitDx=0;exitDy=0;entryX=0.5;entryY=1;entryDx=0;entryDy=0;" parent="1" source="i6j7QwNUQumE6ex7yG9b-38" target="i6j7QwNUQumE6ex7yG9b-10" edge="1">
          <mxGeometry relative="1" as="geometry">
            <mxPoint x="403.505000000001" y="2489.9999999999995" as="targetPoint" />
          </mxGeometry>
        </mxCell>
        <mxCell id="i6j7QwNUQumE6ex7yG9b-37" style="edgeStyle=orthogonalEdgeStyle;rounded=0;orthogonalLoop=1;jettySize=auto;html=1;exitX=0;exitY=0.5;exitDx=0;exitDy=0;entryX=0.25;entryY=0;entryDx=0;entryDy=0;" parent="1" source="i6j7QwNUQumE6ex7yG9b-38" target="i6j7QwNUQumE6ex7yG9b-27" edge="1">
          <mxGeometry relative="1" as="geometry">
            <Array as="points">
              <mxPoint x="315.5" y="2385" />
              <mxPoint x="315.5" y="1780" />
              <mxPoint x="431.5" y="1780" />
            </Array>
          </mxGeometry>
        </mxCell>
        <mxCell id="i6j7QwNUQumE6ex7yG9b-38" value="&lt;span style=&quot;font-family: Consolas; font-size: 20px;&quot;&gt;meet&amp;nbsp;&lt;/span&gt;&lt;div&gt;&lt;span style=&quot;font-family: Consolas; font-size: 20px;&quot;&gt;end condition？&lt;/span&gt;&lt;/div&gt;" style="rhombus;whiteSpace=wrap;html=1;movable=1;resizable=1;rotatable=1;deletable=1;editable=1;locked=0;connectable=1;" parent="1" vertex="1">
          <mxGeometry x="331.1199999999999" y="2340" width="320.5" height="90" as="geometry" />
        </mxCell>
        <mxCell id="i6j7QwNUQumE6ex7yG9b-39" value="" style="edgeStyle=orthogonalEdgeStyle;rounded=0;orthogonalLoop=1;jettySize=auto;html=1;" parent="1" source="i6j7QwNUQumE6ex7yG9b-40" target="i6j7QwNUQumE6ex7yG9b-38" edge="1">
          <mxGeometry relative="1" as="geometry" />
        </mxCell>
        <mxCell id="i6j7QwNUQumE6ex7yG9b-40" value="&lt;font face=&quot;Consolas&quot;&gt;&lt;span style=&quot;font-size: 20px;&quot;&gt;delay remain microsecond&lt;br&gt;&lt;/span&gt;&lt;/font&gt;" style="rounded=0;whiteSpace=wrap;html=1;movable=1;resizable=1;rotatable=1;deletable=1;editable=1;locked=0;connectable=1;" parent="1" vertex="1">
          <mxGeometry x="371.3699999999999" y="2250" width="240" height="60" as="geometry" />
        </mxCell>
        <mxCell id="i6j7QwNUQumE6ex7yG9b-41" value="" style="shape=curlyBracket;whiteSpace=wrap;html=1;rounded=1;flipH=1;labelPosition=right;verticalLabelPosition=middle;align=left;verticalAlign=middle;size=0.5;strokeWidth=3;movable=1;resizable=1;rotatable=1;deletable=1;editable=1;locked=0;connectable=1;rotation=-180;" parent="1" vertex="1">
          <mxGeometry x="245.5" y="1795" width="50" height="565" as="geometry" />
        </mxCell>
        <mxCell id="i6j7QwNUQumE6ex7yG9b-42" value="&lt;div style=&quot;text-align: center;&quot;&gt;&lt;font face=&quot;Consolas&quot;&gt;&lt;span style=&quot;font-size: 20px;&quot;&gt;NO&lt;/span&gt;&lt;/font&gt;&lt;/div&gt;" style="text;whiteSpace=wrap;html=1;movable=1;resizable=1;rotatable=1;deletable=1;editable=1;locked=0;connectable=1;" parent="1" vertex="1">
          <mxGeometry x="310.53999999999996" y="2390" width="30" height="50" as="geometry" />
        </mxCell>
        <mxCell id="i6j7QwNUQumE6ex7yG9b-43" value="&lt;div style=&quot;text-align: center;&quot;&gt;&lt;span style=&quot;background-color: transparent; color: light-dark(rgb(0, 0, 0), rgb(255, 255, 255)); font-size: 20px;&quot;&gt;&lt;font face=&quot;Consolas&quot;&gt;YES&lt;/font&gt;&lt;/span&gt;&lt;/div&gt;" style="text;whiteSpace=wrap;html=1;movable=1;resizable=1;rotatable=1;deletable=1;editable=1;locked=0;connectable=1;" parent="1" vertex="1">
          <mxGeometry x="453.5" y="2460" width="30" height="50" as="geometry" />
        </mxCell>
        <mxCell id="i6j7QwNUQumE6ex7yG9b-44" style="edgeStyle=orthogonalEdgeStyle;rounded=0;orthogonalLoop=1;jettySize=auto;html=1;exitX=0.5;exitY=1;exitDx=0;exitDy=0;entryX=0.5;entryY=0;entryDx=0;entryDy=0;" parent="1" source="i6j7QwNUQumE6ex7yG9b-46" target="i6j7QwNUQumE6ex7yG9b-54" edge="1">
          <mxGeometry relative="1" as="geometry" />
        </mxCell>
        <mxCell id="i6j7QwNUQumE6ex7yG9b-45" value="&lt;span style=&quot;font-family: Consolas; font-size: 20px; text-wrap-mode: wrap;&quot;&gt;Yes&lt;/span&gt;" style="edgeLabel;html=1;align=center;verticalAlign=middle;resizable=0;points=[];" parent="i6j7QwNUQumE6ex7yG9b-44" vertex="1" connectable="0">
          <mxGeometry x="-0.1126" y="4" relative="1" as="geometry">
            <mxPoint as="offset" />
          </mxGeometry>
        </mxCell>
        <mxCell id="i6j7QwNUQumE6ex7yG9b-46" value="&lt;font face=&quot;Consolas&quot;&gt;&lt;span style=&quot;font-size: 20px;&quot;&gt;current trial number&lt;/span&gt;&lt;/font&gt;&lt;div&gt;&lt;font face=&quot;Consolas&quot;&gt;&lt;span style=&quot;font-size: 20px;&quot;&gt;&amp;lt;&lt;/span&gt;&lt;/font&gt;&lt;/div&gt;&lt;div&gt;&lt;font face=&quot;Consolas&quot;&gt;&lt;span style=&quot;font-size: 20px;&quot;&gt;param_trial_nums&lt;/span&gt;&lt;/font&gt;&lt;/div&gt;" style="rhombus;whiteSpace=wrap;html=1;movable=1;resizable=1;rotatable=1;deletable=1;editable=1;locked=0;connectable=1;" parent="1" vertex="1">
          <mxGeometry x="300.56" y="1360" width="381.62" height="130" as="geometry" />
        </mxCell>
        <mxCell id="i6j7QwNUQumE6ex7yG9b-47" style="edgeStyle=orthogonalEdgeStyle;rounded=0;orthogonalLoop=1;jettySize=auto;html=1;exitX=0.5;exitY=1;exitDx=0;exitDy=0;strokeWidth=4;strokeColor=#FF6666;" parent="1" source="i6j7QwNUQumE6ex7yG9b-49" target="i6j7QwNUQumE6ex7yG9b-46" edge="1">
          <mxGeometry relative="1" as="geometry" />
        </mxCell>
        <mxCell id="i6j7QwNUQumE6ex7yG9b-48" style="edgeStyle=orthogonalEdgeStyle;rounded=0;orthogonalLoop=1;jettySize=auto;html=1;exitX=1;exitY=0.5;exitDx=0;exitDy=0;entryX=0;entryY=0.5;entryDx=0;entryDy=0;dashed=1;" parent="1" source="i6j7QwNUQumE6ex7yG9b-49" target="i6j7QwNUQumE6ex7yG9b-51" edge="1">
          <mxGeometry relative="1" as="geometry" />
        </mxCell>
        <mxCell id="i6j7QwNUQumE6ex7yG9b-49" value="&lt;font face=&quot;Consolas&quot;&gt;&lt;span style=&quot;font-size: 20px;&quot;&gt;training_init&lt;/span&gt;&lt;/font&gt;" style="rounded=0;whiteSpace=wrap;html=1;movable=1;resizable=1;rotatable=1;deletable=1;editable=1;locked=0;connectable=1;fillColor=#f5f5f5;fontColor=#333333;strokeColor=#666666;" parent="1" vertex="1">
          <mxGeometry x="371.3699999999999" y="1200" width="240" height="40" as="geometry" />
        </mxCell>
        <mxCell id="i6j7QwNUQumE6ex7yG9b-50" style="edgeStyle=orthogonalEdgeStyle;rounded=0;orthogonalLoop=1;jettySize=auto;html=1;exitX=0.5;exitY=1;exitDx=0;exitDy=0;entryX=0.5;entryY=0;entryDx=0;entryDy=0;strokeWidth=4;strokeColor=#FF6666;" parent="1" source="i6j7QwNUQumE6ex7yG9b-56" target="i6j7QwNUQumE6ex7yG9b-46" edge="1">
          <mxGeometry relative="1" as="geometry">
            <Array as="points">
              <mxPoint x="491" y="2800" />
              <mxPoint x="840" y="2800" />
              <mxPoint x="840" y="1320" />
              <mxPoint x="491" y="1320" />
            </Array>
          </mxGeometry>
        </mxCell>
        <mxCell id="i6j7QwNUQumE6ex7yG9b-51" value="&lt;font face=&quot;Consolas&quot;&gt;&lt;span style=&quot;font-size: 20px;&quot;&gt;verify parameters(&lt;u&gt;each event has own params like pre,post,led dur...&lt;/u&gt;)&lt;/span&gt;&lt;/font&gt;&lt;div&gt;&lt;font face=&quot;Consolas&quot;&gt;&lt;span style=&quot;font-size: 20px;&quot;&gt;event_pin/event_led update&lt;/span&gt;&lt;/font&gt;&lt;/div&gt;&lt;div&gt;&lt;font face=&quot;Consolas&quot;&gt;&lt;span style=&quot;font-size: 20px;&quot;&gt;current_trail_num = 0&amp;nbsp;&lt;/span&gt;&lt;/font&gt;&lt;/div&gt;&lt;div&gt;&lt;font face=&quot;Consolas&quot;&gt;&lt;span style=&quot;font-size: 20px;&quot;&gt;update &lt;b&gt;&lt;u&gt;interval 1/2(1.5,2.5) real time&lt;/u&gt;&lt;/b&gt;&lt;/span&gt;&lt;/font&gt;&lt;/div&gt;" style="rounded=0;whiteSpace=wrap;html=1;movable=1;resizable=1;rotatable=1;deletable=1;editable=1;locked=0;connectable=1;fillColor=#FFFF66;" parent="1" vertex="1">
          <mxGeometry x="1160" y="1160" width="520" height="120" as="geometry" />
        </mxCell>
        <mxCell id="i6j7QwNUQumE6ex7yG9b-52" value="" style="edgeStyle=orthogonalEdgeStyle;rounded=0;orthogonalLoop=1;jettySize=auto;html=1;" parent="1" source="i6j7QwNUQumE6ex7yG9b-54" target="i6j7QwNUQumE6ex7yG9b-8" edge="1">
          <mxGeometry relative="1" as="geometry" />
        </mxCell>
        <mxCell id="i6j7QwNUQumE6ex7yG9b-53" style="edgeStyle=orthogonalEdgeStyle;rounded=0;orthogonalLoop=1;jettySize=auto;html=1;exitX=1;exitY=0.5;exitDx=0;exitDy=0;entryX=0;entryY=0.5;entryDx=0;entryDy=0;dashed=1;" parent="1" source="i6j7QwNUQumE6ex7yG9b-54" target="i6j7QwNUQumE6ex7yG9b-55" edge="1">
          <mxGeometry relative="1" as="geometry" />
        </mxCell>
        <mxCell id="i6j7QwNUQumE6ex7yG9b-54" value="&lt;font face=&quot;Consolas&quot;&gt;&lt;span style=&quot;font-size: 20px;&quot;&gt;trial_init&lt;/span&gt;&lt;/font&gt;" style="rounded=0;whiteSpace=wrap;html=1;movable=1;resizable=1;rotatable=1;deletable=1;editable=1;locked=0;connectable=1;fillColor=#f5f5f5;fontColor=#333333;strokeColor=#666666;" parent="1" vertex="1">
          <mxGeometry x="371.3699999999999" y="1580" width="240" height="40" as="geometry" />
        </mxCell>
        <mxCell id="i6j7QwNUQumE6ex7yG9b-55" value="&lt;font face=&quot;Consolas&quot;&gt;&lt;span style=&quot;font-size: 20px;&quot;&gt;sensor reset&lt;/span&gt;&lt;/font&gt;&lt;div&gt;&lt;div&gt;&lt;font face=&quot;Consolas&quot;&gt;&lt;span style=&quot;font-size: 20px;&quot;&gt;current_event_num =1 *NOTE:1.5means after event1(if event 1 and event 2use different lever, then event1.5 will cost time interval)&lt;/span&gt;&lt;/font&gt;&lt;/div&gt;&lt;/div&gt;&lt;div&gt;&lt;span style=&quot;font-family: Consolas; font-size: 20px;&quot;&gt;&lt;b&gt;trial_fail_flag = 0&lt;/b&gt;&lt;/span&gt;&lt;/div&gt;&lt;div&gt;&lt;span style=&quot;font-family: Consolas; font-size: 20px;&quot;&gt;&lt;b&gt;get trial start time = mills()&lt;/b&gt;&lt;/span&gt;&lt;/div&gt;&lt;div&gt;&lt;font face=&quot;Consolas&quot;&gt;&lt;span style=&quot;font-size: 20px;&quot;&gt;&lt;b&gt;get event start time = mills()&lt;/b&gt;&lt;/span&gt;&lt;/font&gt;&lt;/div&gt;" style="rounded=0;whiteSpace=wrap;html=1;movable=1;resizable=1;rotatable=1;deletable=1;editable=1;locked=0;connectable=1;fillColor=#FFFF66;" parent="1" vertex="1">
          <mxGeometry x="1540" y="1520" width="1070" height="160" as="geometry" />
        </mxCell>
        <mxCell id="i6j7QwNUQumE6ex7yG9b-56" value="&lt;font face=&quot;Consolas&quot;&gt;&lt;span style=&quot;font-size: 20px;&quot;&gt;delay ITI-time_send&lt;/span&gt;&lt;/font&gt;" style="rounded=0;whiteSpace=wrap;html=1;movable=1;resizable=1;rotatable=1;deletable=1;editable=1;locked=0;connectable=1;" parent="1" vertex="1">
          <mxGeometry x="371.37" y="2710" width="240" height="60" as="geometry" />
        </mxCell>
        <mxCell id="i6j7QwNUQumE6ex7yG9b-57" value="" style="edgeStyle=orthogonalEdgeStyle;rounded=0;orthogonalLoop=1;jettySize=auto;html=1;" parent="1" source="i6j7QwNUQumE6ex7yG9b-58" target="i6j7QwNUQumE6ex7yG9b-56" edge="1">
          <mxGeometry relative="1" as="geometry" />
        </mxCell>
        <mxCell id="i6j7QwNUQumE6ex7yG9b-58" value="&lt;font face=&quot;Consolas&quot;&gt;&lt;span style=&quot;font-size: 20px;&quot;&gt;send data&lt;/span&gt;&lt;/font&gt;" style="rounded=0;whiteSpace=wrap;html=1;movable=1;resizable=1;rotatable=1;deletable=1;editable=1;locked=0;connectable=1;" parent="1" vertex="1">
          <mxGeometry x="371.37" y="2630" width="240" height="60" as="geometry" />
        </mxCell>
        <mxCell id="i6j7QwNUQumE6ex7yG9b-59" value="" style="shape=curlyBracket;whiteSpace=wrap;html=1;rounded=1;flipH=1;labelPosition=right;verticalLabelPosition=middle;align=left;verticalAlign=middle;size=0.5;strokeWidth=3;movable=1;resizable=1;rotatable=1;deletable=1;editable=1;locked=0;connectable=1;rotation=-180;" parent="1" vertex="1">
          <mxGeometry x="230" y="2630" width="50" height="140" as="geometry" />
        </mxCell>
        <mxCell id="i6j7QwNUQumE6ex7yG9b-60" value="&lt;div style=&quot;&quot;&gt;&lt;span style=&quot;font-family: Consolas; background-color: transparent; color: light-dark(rgb(0, 0, 0), rgb(255, 255, 255));&quot;&gt;&lt;font style=&quot;font-size: 26px;&quot;&gt;ITI&lt;/font&gt;&lt;/span&gt;&lt;/div&gt;" style="text;whiteSpace=wrap;html=1;align=left;direction=east;fillColor=#99FFFF;rotation=0;movable=1;resizable=1;rotatable=1;deletable=1;editable=1;locked=0;connectable=1;" parent="1" vertex="1">
          <mxGeometry x="170" y="2681.25" width="45.5" height="37.5" as="geometry" />
        </mxCell>
        <mxCell id="i6j7QwNUQumE6ex7yG9b-61" value="&lt;span style=&quot;color: light-dark(rgb(0, 0, 0), rgb(255, 255, 255)); background-color: transparent; font-family: Consolas; font-size: 20px;&quot;&gt;get trial_execuate time and event_execute time&lt;/span&gt;" style="rounded=0;whiteSpace=wrap;html=1;movable=1;resizable=1;rotatable=1;deletable=1;editable=1;locked=0;connectable=1;fillColor=#FFFF66;" parent="1" vertex="1">
          <mxGeometry x="1000" y="1860" width="600" height="60" as="geometry" />
        </mxCell>
        <mxCell id="i6j7QwNUQumE6ex7yG9b-66" style="edgeStyle=orthogonalEdgeStyle;rounded=0;orthogonalLoop=1;jettySize=auto;html=1;exitX=0.5;exitY=1;exitDx=0;exitDy=0;entryX=0.5;entryY=0;entryDx=0;entryDy=0;" parent="1" source="i6j7QwNUQumE6ex7yG9b-30" target="i6j7QwNUQumE6ex7yG9b-32" edge="1">
          <mxGeometry relative="1" as="geometry">
            <mxPoint x="491.3699999999999" y="1990" as="sourcePoint" />
          </mxGeometry>
        </mxCell>
        <mxCell id="i6j7QwNUQumE6ex7yG9b-67" value="&lt;div&gt;&lt;font face=&quot;Consolas&quot;&gt;&lt;span style=&quot;font-size: 20px;&quot;&gt;detect event_number_add condition:&lt;b&gt;&lt;u&gt;current_event_num +=0.5&lt;/u&gt;&lt;/b&gt;&lt;/span&gt;&lt;/font&gt;&lt;/div&gt;&lt;div&gt;&lt;font face=&quot;Consolas&quot;&gt;&lt;span style=&quot;font-size: 20px;&quot;&gt;&lt;b&gt;&lt;u&gt;update event_start_time&lt;/u&gt;&lt;/b&gt;&lt;br&gt;if&amp;nbsp;&lt;/span&gt;&lt;/font&gt;&lt;span style=&quot;font-family: Consolas; font-size: 20px; background-color: transparent; color: light-dark(rgb(0, 0, 0), rgb(255, 255, 255));&quot;&gt;current_event_num is 4, then exit flag is 1&lt;br&gt;if event_execute_time&amp;gt;time_window &amp;amp;&amp;amp;&amp;nbsp;&lt;/span&gt;&lt;span style=&quot;font-family: Consolas; font-size: 20px; background-color: transparent; color: light-dark(rgb(0, 0, 0), rgb(255, 255, 255));&quot;&gt;current_event_num&lt;/span&gt;&lt;span style=&quot;font-family: Consolas; font-size: 20px; background-color: transparent; color: light-dark(rgb(0, 0, 0), rgb(255, 255, 255));&quot;&gt;&amp;nbsp;is 1/2/3&amp;nbsp;&lt;/span&gt;&lt;span style=&quot;font-family: Consolas; font-size: 20px; background-color: transparent; color: light-dark(rgb(0, 0, 0), rgb(255, 255, 255));&quot;&gt;then exit flag is 1，trail_fail_flag =1&lt;/span&gt;&lt;/div&gt;&lt;div&gt;&lt;font face=&quot;Consolas&quot;&gt;&lt;span style=&quot;font-size: 20px;&quot;&gt;&lt;br&gt;&lt;/span&gt;&lt;/font&gt;&lt;/div&gt;" style="rounded=0;whiteSpace=wrap;html=1;movable=1;resizable=1;rotatable=1;deletable=1;editable=1;locked=0;connectable=1;fillColor=#FFFF66;" parent="1" vertex="1">
          <mxGeometry x="960" y="2140" width="1600" height="130" as="geometry" />
        </mxCell>
        <mxCell id="i6j7QwNUQumE6ex7yG9b-73" value="" style="edgeStyle=orthogonalEdgeStyle;rounded=0;orthogonalLoop=1;jettySize=auto;html=1;entryX=0.5;entryY=0;entryDx=0;entryDy=0;" parent="1" source="i6j7QwNUQumE6ex7yG9b-71" target="i6j7QwNUQumE6ex7yG9b-30" edge="1">
          <mxGeometry relative="1" as="geometry">
            <mxPoint x="491.4210526315792" y="1940" as="targetPoint" />
          </mxGeometry>
        </mxCell>
        <mxCell id="i6j7QwNUQumE6ex7yG9b-76" style="edgeStyle=orthogonalEdgeStyle;rounded=0;orthogonalLoop=1;jettySize=auto;html=1;exitX=1;exitY=0.5;exitDx=0;exitDy=0;entryX=0;entryY=0.5;entryDx=0;entryDy=0;" parent="1" source="i6j7QwNUQumE6ex7yG9b-71" target="i6j7QwNUQumE6ex7yG9b-61" edge="1">
          <mxGeometry relative="1" as="geometry" />
        </mxCell>
        <mxCell id="i6j7QwNUQumE6ex7yG9b-71" value="&lt;span style=&quot;font-family: Consolas; font-size: 20px;&quot;&gt;get execute time&lt;/span&gt;" style="rounded=0;whiteSpace=wrap;html=1;movable=1;resizable=1;rotatable=1;deletable=1;editable=1;locked=0;connectable=1;" parent="1" vertex="1">
          <mxGeometry x="371.3699999999999" y="1870" width="240" height="40" as="geometry" />
        </mxCell>
        <mxCell id="i6j7QwNUQumE6ex7yG9b-80" value="" style="edgeStyle=orthogonalEdgeStyle;rounded=0;orthogonalLoop=1;jettySize=auto;html=1;entryX=0.5;entryY=0;entryDx=0;entryDy=0;" parent="1" source="i6j7QwNUQumE6ex7yG9b-34" target="i6j7QwNUQumE6ex7yG9b-40" edge="1">
          <mxGeometry relative="1" as="geometry">
            <mxPoint x="491" y="2150" as="sourcePoint" />
            <mxPoint x="491.43478260869597" y="2180" as="targetPoint" />
          </mxGeometry>
        </mxCell>
        <mxCell id="i6j7QwNUQumE6ex7yG9b-81" style="edgeStyle=orthogonalEdgeStyle;rounded=0;orthogonalLoop=1;jettySize=auto;html=1;exitX=1;exitY=0.5;exitDx=0;exitDy=0;entryX=0;entryY=0.5;entryDx=0;entryDy=0;dashed=1;" parent="1" source="i6j7QwNUQumE6ex7yG9b-34" target="i6j7QwNUQumE6ex7yG9b-67" edge="1">
          <mxGeometry relative="1" as="geometry">
            <mxPoint x="611.3699999999994" y="2205" as="sourcePoint" />
          </mxGeometry>
        </mxCell>
        <mxCell id="i6j7QwNUQumE6ex7yG9b-82" value="&lt;span style=&quot;color: light-dark(rgb(0, 0, 0), rgb(255, 255, 255)); background-color: transparent; font-family: Consolas; font-size: 20px;&quot;&gt;use event_execute_time and current_event_number,if exit flag:drive every thing off&lt;/span&gt;" style="rounded=0;whiteSpace=wrap;html=1;movable=1;resizable=1;rotatable=1;deletable=1;editable=1;locked=0;connectable=1;fillColor=#FFFF66;" parent="1" vertex="1">
          <mxGeometry x="1000" y="1942.5" width="600" height="60" as="geometry" />
        </mxCell>
      </root>
    </mxGraphModel>
  </diagram>
</mxfile>
